G75*
%MOIN*%
%OFA0B0*%
%FSLAX24Y24*%
%IPPOS*%
%LPD*%
%AMOC8*
5,1,8,0,0,1.08239X$1,22.5*
%
%ADD10OC8,0.0520*%
%ADD11C,0.0520*%
%ADD12R,0.0630X0.0460*%
%ADD13C,0.0600*%
%ADD14C,0.0600*%
%ADD15OC8,0.0600*%
%ADD16C,0.0640*%
%ADD17C,0.2000*%
%ADD18C,0.1750*%
%ADD19C,0.1500*%
%ADD20C,0.0660*%
%ADD21OC8,0.0560*%
%ADD22C,0.0560*%
%ADD23OC8,0.0630*%
%ADD24C,0.0630*%
%ADD25C,0.0520*%
%ADD26C,0.0760*%
%ADD27R,0.0880X0.0480*%
%ADD28R,0.0866X0.1417*%
%ADD29R,0.0709X0.0630*%
%ADD30R,0.0630X0.0709*%
%ADD31R,0.0512X0.0591*%
%ADD32R,0.0740X0.0740*%
%ADD33C,0.0740*%
%ADD34R,0.0460X0.0630*%
%ADD35C,0.0320*%
%ADD36C,0.0400*%
%ADD37C,0.0160*%
%ADD38C,0.0100*%
%ADD39C,0.0180*%
D10*
X012863Y004680D03*
X012863Y005680D03*
X012863Y007180D03*
X012863Y008180D03*
X012863Y009680D03*
X012863Y010680D03*
X015863Y012680D03*
X016863Y012680D03*
X017863Y011180D03*
X017863Y010180D03*
X019863Y009180D03*
X019863Y008180D03*
X022863Y008180D03*
X023863Y008180D03*
X023863Y009180D03*
X022863Y009180D03*
X022363Y010680D03*
X023363Y010680D03*
X026863Y009180D03*
X026863Y008180D03*
X026863Y004680D03*
X023863Y004680D03*
X022863Y004680D03*
X019863Y004680D03*
X026863Y016180D03*
X026863Y019180D03*
X027763Y021180D03*
X033363Y021180D03*
X034363Y021180D03*
X035863Y019680D03*
X036363Y018180D03*
X036363Y017180D03*
X037863Y017180D03*
X038863Y016190D03*
X038863Y018170D03*
X038863Y019680D03*
X035863Y015380D03*
X036363Y013680D03*
X037363Y013680D03*
X038863Y012170D03*
X037863Y011180D03*
X038863Y010190D03*
X038863Y008680D03*
X037863Y008680D03*
X036363Y008680D03*
X035363Y008680D03*
X036363Y009680D03*
X036363Y010680D03*
X035363Y011680D03*
X040363Y013680D03*
X036363Y026180D03*
X037863Y027680D03*
X037863Y028680D03*
X033363Y026180D03*
X032863Y027180D03*
X032863Y028180D03*
X032863Y029180D03*
X032863Y030180D03*
X022363Y023680D03*
X021363Y023680D03*
X018363Y027180D03*
X017363Y027180D03*
X014363Y031180D03*
X011363Y031180D03*
X010863Y030180D03*
X010863Y028180D03*
X015363Y021680D03*
X015363Y020680D03*
X016863Y019680D03*
X015363Y019180D03*
X015363Y018180D03*
X016863Y016680D03*
X010363Y018680D03*
X010363Y019680D03*
D11*
X018103Y019680D02*
X018623Y019680D01*
X018623Y018680D02*
X018103Y018680D01*
X018103Y017680D02*
X018623Y017680D01*
X018623Y016680D02*
X018103Y016680D01*
X018103Y015680D02*
X018623Y015680D01*
X018623Y014680D02*
X018103Y014680D01*
X018103Y013680D02*
X018623Y013680D01*
X021103Y013180D02*
X021623Y013180D01*
X021623Y012180D02*
X021103Y012180D01*
X021103Y014180D02*
X021623Y014180D01*
X021623Y015180D02*
X021103Y015180D01*
X021103Y016180D02*
X021623Y016180D01*
X021623Y017180D02*
X021103Y017180D01*
X021103Y018180D02*
X021623Y018180D01*
X021623Y019180D02*
X021103Y019180D01*
X021103Y020180D02*
X021623Y020180D01*
X021623Y021180D02*
X021103Y021180D01*
X021103Y022180D02*
X021623Y022180D01*
X025103Y022180D02*
X025623Y022180D01*
X025623Y021180D02*
X025103Y021180D01*
X025103Y020180D02*
X025623Y020180D01*
X025623Y019180D02*
X025103Y019180D01*
X025103Y018180D02*
X025623Y018180D01*
X025623Y017180D02*
X025103Y017180D01*
X025103Y016180D02*
X025623Y016180D01*
X025623Y015180D02*
X025103Y015180D01*
X025103Y014180D02*
X025623Y014180D01*
X025623Y013180D02*
X025103Y013180D01*
X025103Y012180D02*
X025623Y012180D01*
X017123Y011180D02*
X016603Y011180D01*
X016603Y010180D02*
X017123Y010180D01*
X017123Y009180D02*
X016603Y009180D01*
X016603Y008180D02*
X017123Y008180D01*
X017123Y007180D02*
X016603Y007180D01*
X016603Y006180D02*
X017123Y006180D01*
X017123Y005180D02*
X016603Y005180D01*
X016603Y004180D02*
X017123Y004180D01*
X014123Y004180D02*
X013603Y004180D01*
X013603Y005180D02*
X014123Y005180D01*
X014123Y006180D02*
X013603Y006180D01*
X013603Y007180D02*
X014123Y007180D01*
X014123Y008180D02*
X013603Y008180D01*
X013603Y009180D02*
X014123Y009180D01*
X014123Y010180D02*
X013603Y010180D01*
X013603Y011180D02*
X014123Y011180D01*
X013863Y032420D02*
X013863Y032940D01*
X012863Y032940D02*
X012863Y032420D01*
X010863Y032420D02*
X010863Y032940D01*
X009863Y032940D02*
X009863Y032420D01*
X020363Y032420D02*
X020363Y032940D01*
X021363Y032940D02*
X021363Y032420D01*
X023363Y032420D02*
X023363Y032940D01*
X024363Y032940D02*
X024363Y032420D01*
D12*
X028363Y032280D03*
X028363Y031680D03*
X028363Y031080D03*
D13*
X030063Y031180D02*
X030663Y031180D01*
X030663Y030180D02*
X030063Y030180D01*
X030063Y029180D02*
X030663Y029180D01*
X030663Y028180D02*
X030063Y028180D01*
X030063Y027180D02*
X030663Y027180D01*
X030663Y026180D02*
X030063Y026180D01*
X030063Y025180D02*
X030663Y025180D01*
X030663Y024180D02*
X030063Y024180D01*
X030063Y023180D02*
X030663Y023180D01*
X039563Y018180D02*
X040163Y018180D01*
X040163Y017180D02*
X039563Y017180D01*
X039563Y016180D02*
X040163Y016180D01*
X040163Y012180D02*
X039563Y012180D01*
X039563Y011180D02*
X040163Y011180D01*
X040163Y010180D02*
X039563Y010180D01*
X026363Y002980D02*
X026363Y002380D01*
X026363Y001980D02*
X026363Y001380D01*
X025363Y001380D02*
X025363Y001980D01*
X025363Y002380D02*
X025363Y002980D01*
X024363Y002980D02*
X024363Y002380D01*
X024363Y001980D02*
X024363Y001380D01*
X023363Y001380D02*
X023363Y001980D01*
X023363Y002380D02*
X023363Y002980D01*
X022363Y002980D02*
X022363Y002380D01*
X022363Y001980D02*
X022363Y001380D01*
X013363Y001380D02*
X013363Y001980D01*
X012363Y001980D02*
X012363Y001380D01*
X011363Y001380D02*
X011363Y001980D01*
X010363Y001980D02*
X010363Y001380D01*
X009363Y001380D02*
X009363Y001980D01*
X008363Y001980D02*
X008363Y001380D01*
X016363Y027880D02*
X016363Y028480D01*
X017363Y028480D02*
X017363Y027880D01*
X018363Y027880D02*
X018363Y028480D01*
X030063Y032180D02*
X030663Y032180D01*
D14*
X018363Y001680D03*
D15*
X019363Y001680D03*
X019363Y002680D03*
X018363Y002680D03*
X020363Y002680D03*
X020363Y001680D03*
X009363Y008160D03*
X008363Y008700D03*
X009363Y009250D03*
X008363Y009790D03*
X009363Y010330D03*
X008363Y010880D03*
X009363Y011420D03*
X008363Y011960D03*
X009363Y012510D03*
X008363Y013050D03*
X009363Y013590D03*
X008363Y014140D03*
X009363Y014680D03*
X008363Y015220D03*
X009363Y015770D03*
X008363Y016310D03*
X009363Y016850D03*
X008363Y017400D03*
X009363Y017940D03*
X008363Y018480D03*
X009363Y019030D03*
X008363Y019570D03*
X009363Y020110D03*
X008363Y020660D03*
X009363Y021200D03*
D16*
X011363Y021680D03*
X011363Y022680D03*
X011363Y023680D03*
X011363Y024680D03*
X011363Y025680D03*
X014363Y025680D03*
X014363Y024680D03*
X014363Y023680D03*
X014363Y022680D03*
X014363Y021680D03*
X014363Y020680D03*
X014363Y019680D03*
X014363Y018680D03*
X014363Y017680D03*
X014363Y016680D03*
X014363Y015680D03*
X014363Y014680D03*
X014363Y013680D03*
X014363Y012680D03*
X011363Y012680D03*
X011363Y013680D03*
X011363Y014680D03*
X011363Y015680D03*
X011363Y016680D03*
X011363Y017680D03*
X011363Y018680D03*
X011363Y019680D03*
X011363Y020680D03*
D17*
X008863Y023940D03*
X006363Y019601D03*
X006363Y009759D03*
X008863Y005420D03*
D18*
X009084Y028180D03*
D19*
X007863Y026290D03*
X006682Y028180D03*
D20*
X021033Y028180D02*
X021693Y028180D01*
X021693Y026180D02*
X021033Y026180D01*
X026033Y026180D02*
X026693Y026180D01*
X026693Y028180D02*
X026033Y028180D01*
D21*
X011863Y010680D03*
X010863Y010680D03*
X010863Y009680D03*
X011863Y009680D03*
D22*
X018083Y007180D02*
X018643Y007180D01*
X018643Y006180D02*
X018083Y006180D01*
X018083Y005180D02*
X018643Y005180D01*
X016363Y001960D02*
X016363Y001400D01*
X015363Y001400D02*
X015363Y001960D01*
X037583Y025180D02*
X038143Y025180D01*
X038143Y026180D02*
X037583Y026180D01*
X008143Y030680D02*
X007583Y030680D01*
X007583Y031680D02*
X008143Y031680D01*
X008143Y032680D02*
X007583Y032680D01*
D23*
X013363Y029680D03*
X021863Y030180D03*
X026363Y030680D03*
X034863Y024180D03*
D24*
X035863Y024180D03*
X025363Y030680D03*
X020863Y030180D03*
X013363Y028680D03*
D25*
X026963Y021180D03*
X033663Y028180D03*
X033663Y029180D03*
X033663Y030180D03*
X033663Y031180D03*
X036663Y031180D03*
X036663Y030180D03*
X036663Y029180D03*
X036663Y028180D03*
X035863Y014580D03*
D26*
X032863Y003798D03*
X031863Y003798D03*
X030863Y003798D03*
X029863Y003798D03*
X029863Y002798D03*
X030863Y002798D03*
X031863Y002798D03*
X032863Y002798D03*
D27*
X037143Y003270D03*
X037143Y004180D03*
X037143Y005090D03*
D28*
X039583Y004180D03*
D29*
X035163Y002731D03*
X035163Y001629D03*
D30*
X036312Y001680D03*
X037414Y001680D03*
D31*
X036198Y004180D03*
X035529Y004180D03*
X032698Y001480D03*
X032029Y001480D03*
X030698Y001480D03*
X030029Y001480D03*
D32*
X006922Y012499D03*
D33*
X005804Y013046D03*
X005804Y014137D03*
X005804Y015223D03*
X006922Y014680D03*
X006922Y013589D03*
X006922Y015771D03*
X006922Y016861D03*
X005804Y016314D03*
X020863Y006680D03*
X021363Y005930D03*
X021863Y006680D03*
X024863Y006680D03*
X025363Y005930D03*
X025863Y006680D03*
D34*
X011663Y003680D03*
X011063Y003680D03*
D35*
X012863Y004680D02*
X009363Y008180D01*
X009363Y008160D01*
X016063Y010980D02*
X016863Y010180D01*
X017863Y010180D01*
X017863Y011180D02*
X016863Y011180D01*
X016063Y011380D02*
X016863Y012180D01*
X016863Y012680D01*
X016063Y011380D02*
X016063Y010980D01*
X020413Y010180D02*
X020863Y010180D01*
X021613Y009430D01*
X022163Y009430D01*
X022313Y009380D01*
X022313Y008830D01*
X022813Y008330D01*
X022863Y008180D01*
X023863Y008180D01*
X024163Y007730D02*
X025813Y009380D01*
X023863Y009180D02*
X022863Y009180D01*
X022313Y009380D02*
X023363Y010430D01*
X023363Y010680D01*
X024163Y007730D02*
X024163Y007530D01*
X022563Y003580D02*
X022163Y003580D01*
X021263Y002680D01*
X020363Y002680D01*
X021113Y001630D02*
X020563Y001080D01*
X016963Y001080D01*
X016363Y001680D01*
X021113Y001630D02*
X022213Y001630D01*
X022363Y001680D01*
X022363Y002680D01*
X022563Y003580D02*
X023363Y002780D01*
X023363Y002680D01*
X023363Y001680D01*
X035163Y001630D02*
X035163Y001629D01*
X035163Y001630D02*
X036213Y001630D01*
X036263Y001680D01*
X036312Y001680D01*
X036413Y001780D01*
X037363Y002730D01*
X037663Y002730D01*
X037863Y002930D01*
X037863Y004530D01*
X037263Y005130D01*
X037143Y005090D01*
X037113Y005130D01*
X037113Y007930D01*
X037263Y007980D01*
X037913Y007980D01*
X038563Y008630D01*
X038713Y008630D01*
X038863Y008680D01*
X038863Y010190D01*
X039013Y010180D01*
X039863Y010180D01*
X037113Y007930D02*
X036363Y008680D01*
X035363Y008680D01*
X031813Y012780D02*
X035713Y016680D01*
X036213Y018180D02*
X033363Y021030D01*
X033363Y021180D01*
X034363Y021180D02*
X034363Y023830D01*
X031263Y026930D01*
X031263Y031380D01*
X030513Y032130D01*
X030363Y032180D01*
X030263Y032280D01*
X028363Y032280D01*
X028213Y032330D01*
X027913Y032630D01*
X024513Y032630D01*
X024363Y032680D01*
X023363Y032680D01*
X023313Y032530D01*
X023313Y028930D01*
X021363Y026980D01*
X021363Y026180D01*
X021363Y024980D02*
X018963Y027380D01*
X018963Y028680D01*
X016463Y031180D01*
X014363Y031180D01*
X014013Y032630D02*
X013863Y032680D01*
X012863Y032680D01*
X011363Y031180D01*
X010863Y030180D02*
X012863Y030180D01*
X013363Y029680D01*
X013513Y029630D01*
X016013Y029630D01*
X017313Y028330D01*
X017363Y028180D01*
X017363Y027180D01*
X018363Y027180D02*
X018363Y028180D01*
X020063Y028180D02*
X015613Y032630D01*
X014013Y032630D01*
X010863Y032680D02*
X010313Y032680D01*
X010313Y028830D01*
X010813Y028330D01*
X010863Y028180D01*
X012863Y028180D01*
X013363Y028680D01*
X013513Y028630D01*
X013963Y028180D01*
X016363Y028180D01*
X020063Y028180D02*
X021363Y028180D01*
X020863Y030180D02*
X020863Y032680D01*
X020363Y032680D01*
X020863Y032680D02*
X021363Y032680D01*
X023813Y031130D02*
X023813Y029530D01*
X025763Y027580D01*
X026163Y027580D01*
X028313Y025430D01*
X028313Y020980D01*
X027813Y020480D01*
X027813Y020280D01*
X025363Y018180D02*
X023913Y019630D01*
X023913Y023530D01*
X023863Y023680D01*
X026363Y026180D01*
X026363Y028180D02*
X026363Y030680D01*
X032863Y029180D02*
X032863Y028980D01*
X033663Y028180D01*
X033713Y028030D01*
X035763Y025980D01*
X035763Y025280D01*
X035813Y025130D01*
X034863Y024180D01*
X035813Y025130D02*
X037713Y025130D01*
X037863Y025180D01*
X037913Y025180D01*
X038713Y025980D01*
X038713Y027580D01*
X037863Y028430D01*
X037863Y028680D01*
X036363Y018180D02*
X036213Y018180D01*
X031813Y012780D02*
X029713Y012780D01*
X022863Y018280D02*
X022863Y021330D01*
X022363Y023680D02*
X023863Y023680D01*
X021363Y023680D02*
X021363Y024980D01*
X018363Y022530D02*
X018363Y019680D01*
X017263Y021230D02*
X016313Y020280D01*
X016313Y019380D01*
X015363Y018430D01*
X015363Y018180D01*
X014363Y017680D02*
X014213Y017680D01*
X012263Y019630D01*
X011513Y019630D01*
X011363Y019680D01*
X010363Y019680D01*
X010363Y018680D02*
X010313Y018530D01*
X010313Y015630D01*
X006963Y016880D02*
X006922Y016861D01*
X006963Y016880D02*
X006963Y018380D01*
X007663Y019080D01*
X007663Y023330D01*
X006713Y024280D01*
X006713Y028180D01*
X006682Y028180D01*
X009063Y028180D02*
X009084Y028180D01*
X009063Y028180D02*
X009063Y030530D01*
X008363Y031230D01*
X008313Y031230D01*
X007863Y031680D01*
X007863Y032680D02*
X009863Y032680D01*
X010313Y032680D01*
X015363Y023130D02*
X015363Y021680D01*
X015363Y021430D01*
X015913Y020880D01*
X015913Y020430D01*
X015713Y020230D01*
X015713Y019530D01*
X015363Y019180D01*
X011363Y018680D02*
X010363Y018680D01*
X036663Y002730D02*
X037163Y003230D01*
X037143Y003270D01*
X037913Y002280D02*
X037463Y001830D01*
X037463Y001680D01*
X037414Y001680D01*
D36*
X037913Y002280D03*
X036663Y002730D03*
X028963Y007730D03*
X025813Y009380D03*
X024163Y007530D03*
X021513Y004830D03*
X020213Y005130D03*
X023463Y004280D03*
X020563Y008730D03*
X020413Y010180D03*
X021363Y010630D03*
X020963Y011580D03*
X017663Y015280D03*
X019913Y018780D03*
X017663Y019280D03*
X017263Y021230D03*
X018363Y022530D03*
X015363Y023130D03*
X018813Y025680D03*
X024013Y024580D03*
X022863Y021330D03*
X022863Y018280D03*
X023363Y018280D03*
X027313Y016680D03*
X027813Y020280D03*
X035713Y016680D03*
X029713Y012780D03*
X016013Y010030D03*
X015863Y009530D03*
X010113Y010580D03*
X010663Y014180D03*
X010313Y015630D03*
X009813Y016430D03*
X008763Y015680D03*
X008913Y007030D03*
X010563Y004130D03*
X023813Y031130D03*
D37*
X005143Y007175D02*
X005143Y002240D01*
X005351Y002447D01*
X005683Y002585D01*
X006043Y002585D01*
X006376Y002447D01*
X006630Y002193D01*
X006768Y001860D01*
X006768Y001500D01*
X006630Y001167D01*
X006423Y000960D01*
X008130Y000960D01*
X008112Y000969D01*
X008051Y001014D01*
X007997Y001067D01*
X007953Y001128D01*
X007918Y001196D01*
X007895Y001268D01*
X007883Y001342D01*
X007883Y001660D01*
X008343Y001660D01*
X008343Y001700D01*
X007883Y001700D01*
X007883Y002018D01*
X007895Y002092D01*
X007918Y002164D01*
X007953Y002232D01*
X007997Y002293D01*
X008051Y002346D01*
X008112Y002391D01*
X008179Y002425D01*
X008251Y002448D01*
X008325Y002460D01*
X008343Y002460D01*
X008343Y001700D01*
X008383Y001700D01*
X008383Y002460D01*
X008401Y002460D01*
X008476Y002448D01*
X008547Y002425D01*
X008583Y002407D01*
X008583Y003735D01*
X005143Y007175D01*
X005143Y007020D02*
X005298Y007020D01*
X005143Y006862D02*
X005456Y006862D01*
X005615Y006703D02*
X005143Y006703D01*
X005143Y006545D02*
X005773Y006545D01*
X005932Y006386D02*
X005143Y006386D01*
X005143Y006228D02*
X006090Y006228D01*
X006249Y006069D02*
X005143Y006069D01*
X005143Y005911D02*
X006407Y005911D01*
X006566Y005752D02*
X005143Y005752D01*
X005143Y005594D02*
X006724Y005594D01*
X006883Y005435D02*
X005143Y005435D01*
X005143Y005277D02*
X007041Y005277D01*
X007200Y005118D02*
X005143Y005118D01*
X005143Y004960D02*
X007358Y004960D01*
X007517Y004801D02*
X005143Y004801D01*
X005143Y004643D02*
X007675Y004643D01*
X007834Y004484D02*
X005143Y004484D01*
X005143Y004326D02*
X007992Y004326D01*
X008151Y004167D02*
X005143Y004167D01*
X005143Y004009D02*
X008309Y004009D01*
X008468Y003850D02*
X005143Y003850D01*
X005143Y003692D02*
X008583Y003692D01*
X008583Y003533D02*
X005143Y003533D01*
X005143Y003375D02*
X008583Y003375D01*
X008583Y003216D02*
X005143Y003216D01*
X005143Y003058D02*
X008583Y003058D01*
X008583Y002899D02*
X005143Y002899D01*
X005143Y002741D02*
X008583Y002741D01*
X008583Y002582D02*
X006050Y002582D01*
X005676Y002582D02*
X005143Y002582D01*
X005143Y002424D02*
X005327Y002424D01*
X005168Y002265D02*
X005143Y002265D01*
X006400Y002424D02*
X008176Y002424D01*
X008343Y002424D02*
X008383Y002424D01*
X008383Y002265D02*
X008343Y002265D01*
X008343Y002107D02*
X008383Y002107D01*
X008383Y001948D02*
X008343Y001948D01*
X008343Y001790D02*
X008383Y001790D01*
X007883Y001790D02*
X006768Y001790D01*
X006768Y001631D02*
X007883Y001631D01*
X007883Y001473D02*
X006757Y001473D01*
X006691Y001314D02*
X007888Y001314D01*
X007939Y001156D02*
X006619Y001156D01*
X006460Y000997D02*
X008074Y000997D01*
X007883Y001948D02*
X006732Y001948D01*
X006666Y002107D02*
X007900Y002107D01*
X007977Y002265D02*
X006558Y002265D01*
X008550Y002424D02*
X008583Y002424D01*
X011892Y005277D02*
X012644Y005277D01*
X012681Y005240D02*
X013045Y005240D01*
X013227Y005422D01*
X013163Y005268D01*
X013163Y005092D01*
X013227Y004938D01*
X013045Y005120D01*
X012863Y005120D01*
X012681Y005120D01*
X012423Y004862D01*
X012423Y004745D01*
X009488Y007680D01*
X009562Y007680D01*
X009843Y007961D01*
X009843Y008140D01*
X009383Y008140D01*
X009383Y008180D01*
X009343Y008180D01*
X009343Y008640D01*
X009164Y008640D01*
X009043Y008519D01*
X009043Y008891D01*
X009164Y008770D01*
X009562Y008770D01*
X009843Y009051D01*
X009843Y009449D01*
X009562Y009730D01*
X009164Y009730D01*
X009043Y009609D01*
X009043Y009971D01*
X009164Y009850D01*
X009562Y009850D01*
X009712Y010000D01*
X010533Y010000D01*
X010403Y009871D01*
X010403Y009489D01*
X010673Y009220D01*
X010998Y009220D01*
X011718Y008500D01*
X012561Y008500D01*
X012423Y008362D01*
X012423Y007998D01*
X012681Y007740D01*
X013045Y007740D01*
X013233Y007928D01*
X013354Y007807D01*
X013516Y007740D01*
X014211Y007740D01*
X014372Y007807D01*
X014496Y007931D01*
X014563Y008092D01*
X014563Y008268D01*
X014496Y008429D01*
X014392Y008533D01*
X014493Y008635D01*
X014808Y008950D01*
X016222Y008950D01*
X016230Y008931D01*
X016334Y008827D01*
X016068Y008560D01*
X015933Y008425D01*
X015933Y006785D01*
X016259Y006458D01*
X016230Y006429D01*
X016163Y006268D01*
X016163Y006092D01*
X016230Y005931D01*
X016334Y005827D01*
X016068Y005560D01*
X015933Y005425D01*
X015933Y004935D01*
X016333Y004535D01*
X016334Y004533D01*
X016230Y004429D01*
X016163Y004268D01*
X016163Y004092D01*
X016230Y003931D01*
X016251Y003910D01*
X014475Y003910D01*
X014496Y003931D01*
X014563Y004092D01*
X014563Y004268D01*
X014496Y004429D01*
X014372Y004553D01*
X014211Y004620D01*
X013516Y004620D01*
X013354Y004553D01*
X013303Y004502D01*
X013303Y004680D01*
X013303Y004858D01*
X013354Y004807D01*
X013516Y004740D01*
X014211Y004740D01*
X014372Y004807D01*
X014496Y004931D01*
X014563Y005092D01*
X014563Y005268D01*
X014496Y005429D01*
X014372Y005553D01*
X014211Y005620D01*
X013628Y005620D01*
X013748Y005740D01*
X014211Y005740D01*
X014372Y005807D01*
X014496Y005931D01*
X014563Y006092D01*
X014563Y006268D01*
X014496Y006429D01*
X014372Y006553D01*
X014211Y006620D01*
X013516Y006620D01*
X013354Y006553D01*
X013230Y006429D01*
X013163Y006268D01*
X013163Y006092D01*
X013227Y005938D01*
X013045Y006120D01*
X012681Y006120D01*
X012423Y005862D01*
X012423Y005498D01*
X012681Y005240D01*
X012679Y005118D02*
X012050Y005118D01*
X012209Y004960D02*
X012520Y004960D01*
X012423Y004801D02*
X012367Y004801D01*
X012863Y004801D02*
X012863Y004801D01*
X012863Y004680D02*
X012863Y005120D01*
X012863Y004680D01*
X012863Y004680D01*
X013303Y004680D01*
X012863Y004680D01*
X012863Y004680D01*
X012863Y004960D02*
X012863Y004960D01*
X012863Y005118D02*
X012863Y005118D01*
X013047Y005118D02*
X013163Y005118D01*
X013167Y005277D02*
X013082Y005277D01*
X013206Y004960D02*
X013218Y004960D01*
X013303Y004801D02*
X013368Y004801D01*
X013303Y004643D02*
X016225Y004643D01*
X016285Y004484D02*
X014441Y004484D01*
X014539Y004326D02*
X016187Y004326D01*
X016163Y004167D02*
X014563Y004167D01*
X014528Y004009D02*
X016198Y004009D01*
X017074Y003216D02*
X019102Y003216D01*
X019133Y003185D02*
X019133Y003129D01*
X018883Y002879D01*
X018883Y002481D01*
X019164Y002200D01*
X019562Y002200D01*
X019843Y002481D01*
X019843Y002879D01*
X019593Y003129D01*
X019593Y003375D01*
X018248Y004720D01*
X018735Y004720D01*
X018904Y004790D01*
X019033Y004919D01*
X019103Y005088D01*
X019103Y005271D01*
X019033Y005441D01*
X018904Y005570D01*
X018735Y005640D01*
X017992Y005640D01*
X017843Y005578D01*
X017843Y005782D01*
X017992Y005720D01*
X018735Y005720D01*
X018904Y005790D01*
X019033Y005919D01*
X019046Y005950D01*
X019068Y005950D01*
X019833Y005185D01*
X019833Y005120D01*
X019681Y005120D01*
X019423Y004862D01*
X019423Y004498D01*
X019681Y004240D01*
X020045Y004240D01*
X020303Y004498D01*
X020303Y004756D01*
X020428Y004808D01*
X020535Y004915D01*
X020555Y004963D01*
X021683Y003835D01*
X021818Y003700D01*
X028668Y003700D01*
X029349Y003019D01*
X029303Y002910D01*
X029303Y002687D01*
X029388Y002481D01*
X029546Y002323D01*
X029752Y002238D01*
X029975Y002238D01*
X030180Y002323D01*
X030338Y002481D01*
X030363Y002542D01*
X030388Y002481D01*
X030483Y002386D01*
X030483Y001955D01*
X030367Y001955D01*
X030363Y001951D01*
X030359Y001955D01*
X029698Y001955D01*
X029643Y001900D01*
X026843Y001900D01*
X026843Y002075D01*
X026800Y002180D01*
X026843Y002285D01*
X026843Y003075D01*
X026770Y003252D01*
X026635Y003387D01*
X026459Y003460D01*
X026268Y003460D01*
X026091Y003387D01*
X025956Y003252D01*
X025883Y003075D01*
X025883Y002285D01*
X025927Y002180D01*
X025883Y002075D01*
X025883Y001285D01*
X025956Y001108D01*
X026091Y000973D01*
X026123Y000960D01*
X025604Y000960D01*
X025635Y000973D01*
X025770Y001108D01*
X025843Y001285D01*
X025843Y002075D01*
X025800Y002180D01*
X025843Y002285D01*
X025843Y003075D01*
X025770Y003252D01*
X025635Y003387D01*
X025459Y003460D01*
X025268Y003460D01*
X025091Y003387D01*
X024956Y003252D01*
X024883Y003075D01*
X024883Y002285D01*
X024927Y002180D01*
X024883Y002075D01*
X024883Y001285D01*
X024956Y001108D01*
X025091Y000973D01*
X025123Y000960D01*
X024604Y000960D01*
X024635Y000973D01*
X024770Y001108D01*
X024843Y001285D01*
X024843Y002075D01*
X024800Y002180D01*
X024843Y002285D01*
X024843Y003075D01*
X024770Y003252D01*
X024635Y003387D01*
X024459Y003460D01*
X024268Y003460D01*
X024091Y003387D01*
X023956Y003252D01*
X023883Y003075D01*
X023883Y002285D01*
X023927Y002180D01*
X023883Y002075D01*
X023883Y001285D01*
X023956Y001108D01*
X024091Y000973D01*
X024123Y000960D01*
X023596Y000960D01*
X023615Y000969D01*
X023676Y001014D01*
X023729Y001067D01*
X023774Y001128D01*
X023808Y001196D01*
X023831Y001268D01*
X023843Y001342D01*
X023843Y001660D01*
X023383Y001660D01*
X023383Y001700D01*
X023343Y001700D01*
X023343Y001660D01*
X022883Y001660D01*
X022883Y001342D01*
X022895Y001268D01*
X022918Y001196D01*
X022953Y001128D01*
X022997Y001067D01*
X023051Y001014D01*
X023112Y000969D01*
X023130Y000960D01*
X022604Y000960D01*
X022635Y000973D01*
X022770Y001108D01*
X022843Y001285D01*
X022843Y002075D01*
X022800Y002180D01*
X022843Y002285D01*
X022843Y003075D01*
X022770Y003252D01*
X022635Y003387D01*
X022459Y003460D01*
X022268Y003460D01*
X022091Y003387D01*
X021956Y003252D01*
X021883Y003075D01*
X021883Y002285D01*
X021927Y002180D01*
X021883Y002075D01*
X021883Y001970D01*
X021046Y001970D01*
X020921Y001918D01*
X020843Y001841D01*
X020843Y001879D01*
X020562Y002160D01*
X020164Y002160D01*
X019883Y001879D01*
X019883Y001481D01*
X019944Y001420D01*
X019782Y001420D01*
X019843Y001481D01*
X019843Y001879D01*
X019562Y002160D01*
X019164Y002160D01*
X018883Y001879D01*
X018883Y001481D01*
X018944Y001420D01*
X018775Y001420D01*
X018843Y001585D01*
X018843Y001775D01*
X018770Y001952D01*
X018635Y002087D01*
X018459Y002160D01*
X018268Y002160D01*
X018091Y002087D01*
X017956Y001952D01*
X017939Y001910D01*
X017358Y001910D01*
X016743Y002525D01*
X016608Y002660D01*
X016518Y002660D01*
X017793Y003935D01*
X017793Y004425D01*
X017658Y004560D01*
X017392Y004827D01*
X017442Y004876D01*
X017518Y004800D01*
X019133Y003185D01*
X019062Y003058D02*
X018665Y003058D01*
X018562Y003160D02*
X018164Y003160D01*
X017883Y002879D01*
X017883Y002481D01*
X018164Y002200D01*
X018562Y002200D01*
X018843Y002481D01*
X018843Y002879D01*
X018562Y003160D01*
X018823Y002899D02*
X018903Y002899D01*
X018883Y002741D02*
X018843Y002741D01*
X018843Y002582D02*
X018883Y002582D01*
X018941Y002424D02*
X018786Y002424D01*
X018627Y002265D02*
X019099Y002265D01*
X019111Y002107D02*
X018588Y002107D01*
X018772Y001948D02*
X018952Y001948D01*
X018883Y001790D02*
X018837Y001790D01*
X018843Y001631D02*
X018883Y001631D01*
X018892Y001473D02*
X018797Y001473D01*
X018139Y002107D02*
X017162Y002107D01*
X017003Y002265D02*
X018099Y002265D01*
X017941Y002424D02*
X016845Y002424D01*
X016686Y002582D02*
X017883Y002582D01*
X017883Y002741D02*
X016599Y002741D01*
X016757Y002899D02*
X017903Y002899D01*
X018062Y003058D02*
X016916Y003058D01*
X017233Y003375D02*
X018943Y003375D01*
X018785Y003533D02*
X017391Y003533D01*
X017550Y003692D02*
X018626Y003692D01*
X018468Y003850D02*
X017709Y003850D01*
X017793Y004009D02*
X018309Y004009D01*
X018151Y004167D02*
X017793Y004167D01*
X017793Y004326D02*
X017992Y004326D01*
X017834Y004484D02*
X017734Y004484D01*
X017675Y004643D02*
X017576Y004643D01*
X017517Y004801D02*
X017417Y004801D01*
X017843Y005594D02*
X017879Y005594D01*
X017914Y005752D02*
X017843Y005752D01*
X018812Y005752D02*
X019266Y005752D01*
X019424Y005594D02*
X018847Y005594D01*
X019036Y005435D02*
X019583Y005435D01*
X019741Y005277D02*
X019101Y005277D01*
X019103Y005118D02*
X019679Y005118D01*
X019520Y004960D02*
X019050Y004960D01*
X018915Y004801D02*
X019423Y004801D01*
X019423Y004643D02*
X018326Y004643D01*
X018484Y004484D02*
X019437Y004484D01*
X019595Y004326D02*
X018643Y004326D01*
X018801Y004167D02*
X021351Y004167D01*
X021509Y004009D02*
X018960Y004009D01*
X019118Y003850D02*
X021668Y003850D01*
X021192Y004326D02*
X020131Y004326D01*
X020289Y004484D02*
X021034Y004484D01*
X020875Y004643D02*
X020303Y004643D01*
X020412Y004801D02*
X020717Y004801D01*
X020558Y004960D02*
X020554Y004960D01*
X019107Y005911D02*
X019024Y005911D01*
X021647Y007971D02*
X022450Y007971D01*
X022423Y007998D02*
X022681Y007740D01*
X022863Y007740D01*
X022863Y008180D01*
X022423Y008180D01*
X022863Y008180D01*
X022863Y008180D01*
X022863Y008180D01*
X022863Y008620D01*
X022681Y008620D01*
X022423Y008362D01*
X022423Y008180D01*
X022423Y007998D01*
X022423Y008130D02*
X021489Y008130D01*
X021330Y008288D02*
X022423Y008288D01*
X022507Y008447D02*
X021172Y008447D01*
X021013Y008605D02*
X022666Y008605D01*
X022681Y008740D02*
X023045Y008740D01*
X023145Y008840D01*
X023581Y008840D01*
X023681Y008740D01*
X024045Y008740D01*
X024303Y008998D01*
X024303Y009362D01*
X024045Y009620D01*
X023681Y009620D01*
X023581Y009520D01*
X023145Y009520D01*
X023045Y009620D01*
X022681Y009620D01*
X022423Y009362D01*
X022423Y008998D01*
X022681Y008740D01*
X022657Y008764D02*
X020943Y008764D01*
X020943Y008806D02*
X020943Y008675D01*
X024093Y005525D01*
X024093Y005072D01*
X024303Y004862D01*
X024303Y004498D01*
X024265Y004460D01*
X026461Y004460D01*
X026423Y004498D01*
X026423Y004545D01*
X026383Y004585D01*
X026383Y004585D01*
X025554Y005414D01*
X025473Y005380D01*
X025254Y005380D01*
X025052Y005464D01*
X024897Y005618D01*
X024813Y005821D01*
X024813Y006039D01*
X024851Y006130D01*
X024754Y006130D01*
X024552Y006214D01*
X024397Y006368D01*
X024313Y006571D01*
X024313Y006789D01*
X024397Y006992D01*
X024552Y007146D01*
X024754Y007230D01*
X024973Y007230D01*
X025175Y007146D01*
X025215Y007107D01*
X026383Y008275D01*
X026423Y008315D01*
X026423Y008362D01*
X026633Y008572D01*
X026633Y008788D01*
X026423Y008998D01*
X026423Y009362D01*
X026633Y009572D01*
X026633Y011435D01*
X026038Y012030D01*
X025996Y011931D01*
X025872Y011807D01*
X025711Y011740D01*
X025016Y011740D01*
X024854Y011807D01*
X024730Y011931D01*
X024722Y011950D01*
X024358Y011950D01*
X023528Y011120D01*
X023545Y011120D01*
X023803Y010862D01*
X023803Y010680D01*
X023363Y010680D01*
X023363Y010680D01*
X023363Y010240D01*
X023181Y010240D01*
X023015Y010406D01*
X023008Y010400D01*
X022608Y010000D01*
X021168Y010000D01*
X021033Y010135D01*
X020783Y010385D01*
X020783Y010875D01*
X020918Y011010D01*
X021157Y011249D01*
X021039Y011200D01*
X020908Y011200D01*
X019643Y009935D01*
X019643Y009582D01*
X019681Y009620D01*
X020045Y009620D01*
X020303Y009362D01*
X020303Y009007D01*
X020348Y009052D01*
X020488Y009110D01*
X020639Y009110D01*
X020778Y009052D01*
X020885Y008945D01*
X020943Y008806D01*
X020895Y008922D02*
X022499Y008922D01*
X022423Y009081D02*
X020710Y009081D01*
X020416Y009081D02*
X020303Y009081D01*
X020303Y009239D02*
X022423Y009239D01*
X022458Y009398D02*
X020268Y009398D01*
X020109Y009556D02*
X022617Y009556D01*
X022640Y010032D02*
X026633Y010032D01*
X026633Y010190D02*
X022799Y010190D01*
X022957Y010349D02*
X023072Y010349D01*
X023363Y010349D02*
X023363Y010349D01*
X023363Y010240D02*
X023545Y010240D01*
X023803Y010498D01*
X023803Y010680D01*
X023363Y010680D01*
X023363Y010240D01*
X023363Y010507D02*
X023363Y010507D01*
X023363Y010666D02*
X023363Y010666D01*
X023363Y010680D02*
X023363Y010680D01*
X023683Y010983D02*
X026633Y010983D01*
X026633Y011141D02*
X023550Y011141D01*
X023708Y011300D02*
X026633Y011300D01*
X026610Y011458D02*
X023867Y011458D01*
X024025Y011617D02*
X026451Y011617D01*
X026293Y011775D02*
X025795Y011775D01*
X025997Y011934D02*
X026134Y011934D01*
X026468Y012251D02*
X027083Y012251D01*
X027083Y012409D02*
X026309Y012409D01*
X026151Y012568D02*
X027083Y012568D01*
X027083Y012726D02*
X025992Y012726D01*
X025892Y012827D02*
X025996Y012931D01*
X026063Y013092D01*
X026063Y013268D01*
X025996Y013429D01*
X025872Y013553D01*
X025711Y013620D01*
X025016Y013620D01*
X024854Y013553D01*
X024743Y013442D01*
X024743Y013918D01*
X024854Y013807D01*
X025016Y013740D01*
X025711Y013740D01*
X025872Y013807D01*
X025996Y013931D01*
X026063Y014092D01*
X026063Y014268D01*
X025996Y014429D01*
X025872Y014553D01*
X025749Y014604D01*
X025952Y014688D01*
X026115Y014851D01*
X026203Y015065D01*
X026203Y015295D01*
X026115Y015509D01*
X025952Y015672D01*
X025932Y015680D01*
X025952Y015688D01*
X026073Y015810D01*
X026137Y015810D01*
X026273Y015866D01*
X026423Y016017D01*
X026423Y015998D01*
X026681Y015740D01*
X026863Y015740D01*
X026863Y016180D01*
X026863Y016180D01*
X026863Y015740D01*
X027045Y015740D01*
X027083Y015778D01*
X027083Y011635D01*
X026958Y011760D01*
X025892Y012827D01*
X025950Y012885D02*
X027083Y012885D01*
X027083Y013043D02*
X026043Y013043D01*
X026063Y013202D02*
X027083Y013202D01*
X027083Y013360D02*
X026025Y013360D01*
X025907Y013519D02*
X027083Y013519D01*
X027083Y013677D02*
X024743Y013677D01*
X024743Y013519D02*
X024819Y013519D01*
X024825Y013836D02*
X024743Y013836D01*
X025901Y013836D02*
X027083Y013836D01*
X027083Y013994D02*
X026022Y013994D01*
X026063Y014153D02*
X027083Y014153D01*
X027083Y014311D02*
X026045Y014311D01*
X025956Y014470D02*
X027083Y014470D01*
X027083Y014628D02*
X025806Y014628D01*
X026050Y014787D02*
X027083Y014787D01*
X027083Y014945D02*
X026154Y014945D01*
X026203Y015104D02*
X027083Y015104D01*
X027083Y015262D02*
X026203Y015262D01*
X026151Y015421D02*
X027083Y015421D01*
X027083Y015579D02*
X026044Y015579D01*
X026001Y015738D02*
X027083Y015738D01*
X026863Y015896D02*
X026863Y015896D01*
X026863Y016055D02*
X026863Y016055D01*
X026525Y015896D02*
X026303Y015896D01*
X027543Y015896D02*
X034448Y015896D01*
X034290Y015738D02*
X027543Y015738D01*
X027543Y015579D02*
X034131Y015579D01*
X033973Y015421D02*
X027543Y015421D01*
X027543Y015262D02*
X033814Y015262D01*
X033656Y015104D02*
X027543Y015104D01*
X027543Y014945D02*
X033497Y014945D01*
X033339Y014787D02*
X027543Y014787D01*
X027543Y014628D02*
X033180Y014628D01*
X033022Y014470D02*
X027543Y014470D01*
X027543Y014311D02*
X032863Y014311D01*
X032705Y014153D02*
X027543Y014153D01*
X027543Y013994D02*
X032546Y013994D01*
X032388Y013836D02*
X027543Y013836D01*
X027543Y013677D02*
X032229Y013677D01*
X032071Y013519D02*
X027543Y013519D01*
X027543Y013360D02*
X031912Y013360D01*
X031754Y013202D02*
X027543Y013202D01*
X027543Y013043D02*
X029439Y013043D01*
X029391Y012995D02*
X029333Y012856D01*
X029333Y012704D01*
X029391Y012565D01*
X029498Y012458D01*
X029638Y012400D01*
X029789Y012400D01*
X029885Y012440D01*
X031881Y012440D01*
X032006Y012492D01*
X035832Y016318D01*
X035928Y016358D01*
X036035Y016465D01*
X036093Y016604D01*
X036093Y016630D01*
X036123Y016600D01*
X036603Y016600D01*
X036813Y016810D01*
X037413Y016810D01*
X037623Y016600D01*
X038103Y016600D01*
X038443Y016940D01*
X038443Y017187D01*
X038846Y017590D01*
X039096Y017590D01*
X039038Y017531D01*
X038943Y017303D01*
X038943Y017057D01*
X039038Y016829D01*
X039212Y016654D01*
X039333Y016604D01*
X039291Y016587D01*
X039190Y016486D01*
X039045Y016630D01*
X038681Y016630D01*
X038423Y016372D01*
X038423Y016008D01*
X038681Y015750D01*
X039045Y015750D01*
X039180Y015884D01*
X039291Y015773D01*
X039468Y015700D01*
X040259Y015700D01*
X040435Y015773D01*
X040543Y015881D01*
X040543Y014120D01*
X040181Y014120D01*
X039923Y013862D01*
X039923Y013498D01*
X040133Y013288D01*
X040133Y012775D01*
X040018Y012660D01*
X039468Y012660D01*
X039291Y012587D01*
X039180Y012476D01*
X039045Y012610D01*
X038681Y012610D01*
X038423Y012352D01*
X038423Y011988D01*
X038681Y011730D01*
X039045Y011730D01*
X039190Y011874D01*
X039291Y011773D01*
X039468Y011700D01*
X040259Y011700D01*
X040435Y011773D01*
X040543Y011881D01*
X040543Y011479D01*
X040435Y011587D01*
X040259Y011660D01*
X039468Y011660D01*
X039291Y011587D01*
X039156Y011452D01*
X039139Y011410D01*
X038255Y011410D01*
X038045Y011620D01*
X037681Y011620D01*
X037423Y011362D01*
X037423Y010998D01*
X037681Y010740D01*
X038045Y010740D01*
X038255Y010950D01*
X039139Y010950D01*
X039156Y010908D01*
X039291Y010773D01*
X039468Y010700D01*
X040259Y010700D01*
X040435Y010773D01*
X040543Y010881D01*
X040543Y010474D01*
X040529Y010493D01*
X040476Y010546D01*
X040415Y010591D01*
X040347Y010625D01*
X040276Y010648D01*
X040201Y010660D01*
X039883Y010660D01*
X039883Y010200D01*
X039843Y010200D01*
X039843Y010160D01*
X039303Y010160D01*
X039303Y010190D01*
X039843Y010190D01*
X039843Y010200D02*
X039303Y010200D01*
X039303Y010190D01*
X038863Y010190D01*
X038423Y010190D01*
X036778Y010190D01*
X036637Y010332D02*
X036803Y010498D01*
X036803Y010795D01*
X037593Y011585D01*
X037593Y013288D01*
X037803Y013498D01*
X037803Y013862D01*
X037545Y014120D01*
X037181Y014120D01*
X036923Y013862D01*
X036923Y013498D01*
X037133Y013288D01*
X037133Y011775D01*
X035803Y011775D01*
X035803Y011795D02*
X036093Y012085D01*
X036093Y013328D01*
X036181Y013240D01*
X036545Y013240D01*
X036803Y013498D01*
X036803Y013862D01*
X036545Y014120D01*
X036181Y014120D01*
X036093Y014032D01*
X036093Y014199D01*
X036112Y014207D01*
X036236Y014331D01*
X036303Y014492D01*
X036303Y014668D01*
X036236Y014829D01*
X036112Y014953D01*
X036074Y014969D01*
X036303Y015198D01*
X036303Y015562D01*
X036045Y015820D01*
X035681Y015820D01*
X035423Y015562D01*
X035423Y015198D01*
X035652Y014969D01*
X035614Y014953D01*
X035490Y014829D01*
X035423Y014668D01*
X035423Y014492D01*
X035490Y014331D01*
X035614Y014207D01*
X035633Y014199D01*
X035633Y012275D01*
X035478Y012120D01*
X035181Y012120D01*
X034923Y011862D01*
X034923Y011498D01*
X035133Y011288D01*
X035133Y010585D01*
X035268Y010450D01*
X035923Y009795D01*
X035923Y009498D01*
X036181Y009240D01*
X036545Y009240D01*
X036803Y009498D01*
X036803Y009515D01*
X037439Y008878D01*
X037423Y008862D01*
X037423Y008498D01*
X037681Y008240D01*
X038045Y008240D01*
X038303Y008498D01*
X038303Y008862D01*
X038045Y009120D01*
X037848Y009120D01*
X036637Y010332D01*
X036654Y010349D02*
X038423Y010349D01*
X038423Y010372D02*
X038423Y010190D01*
X038423Y010008D01*
X038681Y009750D01*
X038863Y009750D01*
X038863Y010190D01*
X038863Y010190D01*
X038423Y010190D01*
X038423Y010032D02*
X036937Y010032D01*
X037095Y009873D02*
X038558Y009873D01*
X038863Y009873D02*
X038863Y009873D01*
X038863Y009750D02*
X039045Y009750D01*
X039183Y009887D01*
X039197Y009867D01*
X039251Y009814D01*
X039312Y009769D01*
X039379Y009735D01*
X039451Y009712D01*
X039525Y009700D01*
X039843Y009700D01*
X039843Y010160D01*
X039883Y010160D01*
X039883Y009700D01*
X040201Y009700D01*
X040276Y009712D01*
X040347Y009735D01*
X040415Y009769D01*
X040476Y009814D01*
X040529Y009867D01*
X040543Y009886D01*
X040543Y005492D01*
X040105Y005054D01*
X040091Y005069D01*
X039076Y005069D01*
X038970Y004963D01*
X038970Y003397D01*
X039076Y003291D01*
X039243Y003291D01*
X039243Y002942D01*
X037909Y001608D01*
X037909Y001795D01*
X038032Y001918D01*
X038128Y001958D01*
X038235Y002065D01*
X038293Y002204D01*
X038293Y002356D01*
X038235Y002495D01*
X038128Y002602D01*
X037989Y002660D01*
X037838Y002660D01*
X037698Y002602D01*
X037591Y002495D01*
X037551Y002399D01*
X037367Y002214D01*
X037025Y002214D01*
X036919Y002109D01*
X036919Y001350D01*
X036807Y001350D01*
X036807Y001603D01*
X036390Y001603D01*
X036390Y001757D01*
X036807Y001757D01*
X036807Y002058D01*
X036795Y002104D01*
X036771Y002145D01*
X036738Y002178D01*
X036696Y002202D01*
X036651Y002214D01*
X036390Y002214D01*
X036390Y001757D01*
X036235Y001757D01*
X036235Y001603D01*
X035817Y001603D01*
X035817Y001350D01*
X035698Y001350D01*
X035698Y001551D01*
X035241Y001551D01*
X035241Y001706D01*
X035698Y001706D01*
X035698Y001967D01*
X035685Y002013D01*
X035662Y002054D01*
X035628Y002088D01*
X035587Y002112D01*
X035541Y002124D01*
X035241Y002124D01*
X035241Y001706D01*
X035086Y001706D01*
X035086Y001551D01*
X034629Y001551D01*
X034629Y001500D01*
X033134Y001500D01*
X033134Y001850D01*
X033033Y001950D01*
X033033Y002262D01*
X033180Y002323D01*
X033338Y002481D01*
X033423Y002687D01*
X033423Y002910D01*
X033394Y002979D01*
X034825Y004410D01*
X035093Y004410D01*
X035093Y003810D01*
X035198Y003705D01*
X035283Y003705D01*
X035283Y003226D01*
X034734Y003226D01*
X034629Y003121D01*
X034629Y002342D01*
X034734Y002236D01*
X035592Y002236D01*
X035698Y002342D01*
X035698Y002989D01*
X035743Y003035D01*
X035743Y003705D01*
X035859Y003705D01*
X035863Y003709D01*
X035867Y003705D01*
X036528Y003705D01*
X036606Y003783D01*
X036629Y003760D01*
X037658Y003760D01*
X037763Y003865D01*
X037763Y004495D01*
X037658Y004600D01*
X036629Y004600D01*
X036606Y004577D01*
X036528Y004655D01*
X036270Y004655D01*
X036092Y004833D01*
X036016Y004909D01*
X035917Y004950D01*
X034660Y004950D01*
X034560Y004909D01*
X033423Y003772D01*
X033423Y003910D01*
X033338Y004115D01*
X033180Y004273D01*
X032975Y004358D01*
X032752Y004358D01*
X032687Y004331D01*
X029343Y007675D01*
X029343Y007806D01*
X029285Y007945D01*
X029178Y008052D01*
X029039Y008110D01*
X028888Y008110D01*
X028748Y008052D01*
X028641Y007945D01*
X028583Y007806D01*
X028583Y007654D01*
X027543Y007654D01*
X027543Y007496D02*
X028660Y007496D01*
X028641Y007515D02*
X028748Y007408D01*
X028888Y007350D01*
X029018Y007350D01*
X032035Y004333D01*
X031975Y004358D01*
X031752Y004358D01*
X031546Y004273D01*
X031388Y004115D01*
X031363Y004054D01*
X031338Y004115D01*
X031180Y004273D01*
X030975Y004358D01*
X030752Y004358D01*
X030546Y004273D01*
X030388Y004115D01*
X030362Y004052D01*
X030342Y004092D01*
X030290Y004163D01*
X030228Y004225D01*
X030157Y004277D01*
X030078Y004317D01*
X029994Y004344D01*
X029907Y004358D01*
X029883Y004358D01*
X029883Y003818D01*
X029843Y003818D01*
X029843Y003778D01*
X029303Y003778D01*
X029303Y003754D01*
X029311Y003708D01*
X028858Y004160D01*
X027268Y004160D01*
X027408Y004300D01*
X027543Y004435D01*
X027543Y016373D01*
X027635Y016465D01*
X027693Y016604D01*
X027693Y016756D01*
X027671Y016810D01*
X035356Y016810D01*
X035351Y016799D01*
X031672Y013120D01*
X029885Y013120D01*
X029789Y013160D01*
X029638Y013160D01*
X029498Y013102D01*
X029391Y012995D01*
X029345Y012885D02*
X027543Y012885D01*
X027543Y012726D02*
X029333Y012726D01*
X029390Y012568D02*
X027543Y012568D01*
X027543Y012409D02*
X029616Y012409D01*
X029811Y012409D02*
X035633Y012409D01*
X035633Y012568D02*
X032082Y012568D01*
X032240Y012726D02*
X035633Y012726D01*
X035633Y012885D02*
X032399Y012885D01*
X032557Y013043D02*
X035633Y013043D01*
X035633Y013202D02*
X032716Y013202D01*
X032874Y013360D02*
X035633Y013360D01*
X035633Y013519D02*
X033033Y013519D01*
X033191Y013677D02*
X035633Y013677D01*
X035633Y013836D02*
X033350Y013836D01*
X033508Y013994D02*
X035633Y013994D01*
X035633Y014153D02*
X033667Y014153D01*
X033825Y014311D02*
X035510Y014311D01*
X035433Y014470D02*
X033984Y014470D01*
X034142Y014628D02*
X035423Y014628D01*
X035473Y014787D02*
X034301Y014787D01*
X034459Y014945D02*
X035606Y014945D01*
X035517Y015104D02*
X034618Y015104D01*
X034776Y015262D02*
X035423Y015262D01*
X035423Y015421D02*
X034935Y015421D01*
X035093Y015579D02*
X035440Y015579D01*
X035598Y015738D02*
X035252Y015738D01*
X035410Y015896D02*
X038535Y015896D01*
X038423Y016055D02*
X035569Y016055D01*
X035727Y016213D02*
X038423Y016213D01*
X038423Y016372D02*
X035942Y016372D01*
X036062Y016530D02*
X038581Y016530D01*
X038350Y016847D02*
X039030Y016847D01*
X038964Y017006D02*
X038443Y017006D01*
X038443Y017164D02*
X038943Y017164D01*
X038951Y017323D02*
X038579Y017323D01*
X038738Y017481D02*
X039017Y017481D01*
X039178Y016689D02*
X038192Y016689D01*
X037534Y016689D02*
X036692Y016689D01*
X036813Y017550D02*
X036603Y017760D01*
X036565Y017760D01*
X036803Y017998D01*
X036803Y018180D01*
X036803Y018362D01*
X036605Y018560D01*
X038433Y018560D01*
X038283Y018410D01*
X038283Y018073D01*
X037970Y017760D01*
X037623Y017760D01*
X037413Y017550D01*
X036813Y017550D01*
X036724Y017640D02*
X037503Y017640D01*
X038008Y017798D02*
X036604Y017798D01*
X036762Y017957D02*
X038166Y017957D01*
X038283Y018115D02*
X036803Y018115D01*
X036803Y018180D02*
X036363Y018180D01*
X035923Y018180D01*
X035923Y017998D01*
X036161Y017760D01*
X036123Y017760D01*
X035913Y017550D01*
X026990Y017550D01*
X026854Y017494D01*
X026750Y017390D01*
X025992Y016632D01*
X025952Y016672D01*
X025749Y016756D01*
X025872Y016807D01*
X025996Y016931D01*
X026063Y017092D01*
X026063Y017268D01*
X025996Y017429D01*
X025872Y017553D01*
X025711Y017620D01*
X025016Y017620D01*
X024854Y017553D01*
X024730Y017429D01*
X024663Y017268D01*
X024663Y017092D01*
X024730Y016931D01*
X024854Y016807D01*
X024978Y016756D01*
X024775Y016672D01*
X024612Y016509D01*
X024523Y016295D01*
X024523Y016065D01*
X024612Y015851D01*
X024775Y015688D01*
X024795Y015680D01*
X024775Y015672D01*
X024711Y015608D01*
X024608Y015710D01*
X022743Y017575D01*
X022743Y017918D01*
X022788Y017900D01*
X022939Y017900D01*
X023078Y017958D01*
X023113Y017993D01*
X023148Y017958D01*
X023288Y017900D01*
X023439Y017900D01*
X023578Y017958D01*
X023685Y018065D01*
X023743Y018204D01*
X023743Y018356D01*
X023685Y018495D01*
X023593Y018587D01*
X023593Y021425D01*
X021893Y023125D01*
X021813Y023205D01*
X022015Y023406D01*
X022181Y023240D01*
X022363Y023240D01*
X022363Y023680D01*
X022363Y023680D01*
X022363Y023240D01*
X022545Y023240D01*
X022803Y023498D01*
X022803Y023680D01*
X022803Y023862D01*
X022545Y024120D01*
X022528Y024120D01*
X022758Y024350D01*
X023706Y024350D01*
X023798Y024258D01*
X023938Y024200D01*
X024089Y024200D01*
X024228Y024258D01*
X024335Y024365D01*
X024393Y024504D01*
X024393Y024656D01*
X024335Y024795D01*
X024228Y024902D01*
X024089Y024960D01*
X023938Y024960D01*
X023798Y024902D01*
X023706Y024810D01*
X022568Y024810D01*
X021718Y023960D01*
X021712Y023954D01*
X021703Y023962D01*
X021703Y025048D01*
X021651Y025173D01*
X021556Y025268D01*
X021556Y025268D01*
X021154Y025670D01*
X021795Y025670D01*
X021982Y025748D01*
X022126Y025891D01*
X022203Y026079D01*
X022203Y026281D01*
X022126Y026469D01*
X021982Y026612D01*
X021795Y026690D01*
X021703Y026690D01*
X021703Y026839D01*
X023506Y028642D01*
X023601Y028737D01*
X023653Y028862D01*
X023653Y029209D01*
X025571Y027292D01*
X025696Y027240D01*
X026022Y027240D01*
X026572Y026690D01*
X026393Y026690D01*
X026393Y026210D01*
X026333Y026210D01*
X026333Y026150D01*
X025523Y026150D01*
X025523Y026140D01*
X025536Y026061D01*
X025561Y025984D01*
X025597Y025913D01*
X025644Y025848D01*
X025701Y025791D01*
X025766Y025744D01*
X025837Y025707D01*
X025914Y025683D01*
X025993Y025670D01*
X026333Y025670D01*
X026333Y026150D01*
X026393Y026150D01*
X026393Y025670D01*
X026733Y025670D01*
X026813Y025683D01*
X026889Y025707D01*
X026961Y025744D01*
X027025Y025791D01*
X027082Y025848D01*
X027129Y025913D01*
X027166Y025984D01*
X027191Y026061D01*
X027192Y026070D01*
X027973Y025289D01*
X027973Y021592D01*
X027945Y021620D01*
X027581Y021620D01*
X027459Y021498D01*
X027455Y021509D01*
X027292Y021672D01*
X027079Y021760D01*
X026848Y021760D01*
X026635Y021672D01*
X026513Y021550D01*
X026073Y021550D01*
X025952Y021672D01*
X025932Y021680D01*
X025952Y021688D01*
X026115Y021851D01*
X026203Y022065D01*
X026203Y022295D01*
X026115Y022509D01*
X025952Y022672D01*
X025739Y022760D01*
X024988Y022760D01*
X024775Y022672D01*
X024612Y022509D01*
X024523Y022295D01*
X024523Y022065D01*
X024612Y021851D01*
X024775Y021688D01*
X024795Y021680D01*
X024775Y021672D01*
X024612Y021509D01*
X024523Y021295D01*
X024523Y021065D01*
X024612Y020851D01*
X024775Y020688D01*
X024978Y020604D01*
X024854Y020553D01*
X024730Y020429D01*
X024663Y020268D01*
X024663Y020092D01*
X024730Y019931D01*
X024854Y019807D01*
X025016Y019740D01*
X025711Y019740D01*
X025872Y019807D01*
X025996Y019931D01*
X026063Y020092D01*
X026063Y020268D01*
X025996Y020429D01*
X025872Y020553D01*
X025749Y020604D01*
X025952Y020688D01*
X026073Y020810D01*
X026493Y020810D01*
X026493Y019630D01*
X026283Y019420D01*
X026283Y018940D01*
X026623Y018600D01*
X027103Y018600D01*
X027443Y018940D01*
X027443Y019420D01*
X027233Y019630D01*
X027233Y020664D01*
X027292Y020688D01*
X027455Y020851D01*
X027459Y020862D01*
X027581Y020740D01*
X027592Y020740D01*
X027525Y020673D01*
X027473Y020548D01*
X027473Y020452D01*
X027433Y020356D01*
X027433Y020204D01*
X027491Y020065D01*
X027598Y019958D01*
X027738Y019900D01*
X027889Y019900D01*
X028028Y019958D01*
X028135Y020065D01*
X028193Y020204D01*
X028193Y020356D01*
X028186Y020372D01*
X028506Y020692D01*
X028601Y020787D01*
X028653Y020912D01*
X028653Y025208D01*
X029093Y024768D01*
X029093Y023126D01*
X029134Y023027D01*
X030684Y021477D01*
X030760Y021401D01*
X030860Y021360D01*
X032923Y021360D01*
X032923Y021180D01*
X033363Y021180D01*
X032923Y021180D01*
X032923Y020998D01*
X033181Y020740D01*
X033363Y020740D01*
X033363Y021180D01*
X033363Y021180D01*
X033363Y021180D01*
X033363Y020740D01*
X033545Y020740D01*
X033669Y020864D01*
X033684Y020827D01*
X033760Y020751D01*
X033760Y020751D01*
X035834Y018677D01*
X035910Y018601D01*
X036010Y018560D01*
X036121Y018560D01*
X035923Y018362D01*
X035923Y018180D01*
X036363Y018180D01*
X036363Y018180D01*
X036803Y018180D01*
X036803Y018274D02*
X038283Y018274D01*
X038305Y018432D02*
X036733Y018432D01*
X036363Y018180D02*
X036363Y018180D01*
X035923Y018115D02*
X026058Y018115D01*
X026063Y018145D02*
X026052Y018077D01*
X026031Y018011D01*
X026000Y017949D01*
X025959Y017893D01*
X025910Y017844D01*
X025854Y017804D01*
X025792Y017772D01*
X025726Y017751D01*
X025658Y017740D01*
X025363Y017740D01*
X025363Y018180D01*
X024663Y018180D01*
X024663Y018145D01*
X024674Y018077D01*
X024695Y018011D01*
X024727Y017949D01*
X024768Y017893D01*
X024817Y017844D01*
X024873Y017804D01*
X024934Y017772D01*
X025000Y017751D01*
X025069Y017740D01*
X025363Y017740D01*
X025363Y018180D01*
X025363Y018180D01*
X024663Y018180D01*
X024663Y018215D01*
X024674Y018283D01*
X024695Y018349D01*
X024727Y018411D01*
X024768Y018467D01*
X024817Y018516D01*
X024873Y018556D01*
X024934Y018588D01*
X025000Y018609D01*
X025069Y018620D01*
X025363Y018620D01*
X025363Y018180D01*
X025363Y018180D01*
X025363Y018180D01*
X025363Y018620D01*
X025658Y018620D01*
X025726Y018609D01*
X025792Y018588D01*
X025854Y018556D01*
X025910Y018516D01*
X025959Y018467D01*
X026000Y018411D01*
X026031Y018349D01*
X026052Y018283D01*
X026063Y018215D01*
X026063Y018180D01*
X025363Y018180D01*
X025363Y018180D01*
X026063Y018180D01*
X026063Y018145D01*
X026054Y018274D02*
X035923Y018274D01*
X035993Y018432D02*
X025984Y018432D01*
X025784Y018591D02*
X035936Y018591D01*
X035834Y018677D02*
X035834Y018677D01*
X035762Y018749D02*
X027252Y018749D01*
X027411Y018908D02*
X035604Y018908D01*
X035445Y019066D02*
X027443Y019066D01*
X027443Y019225D02*
X035287Y019225D01*
X035128Y019383D02*
X027443Y019383D01*
X027322Y019542D02*
X034970Y019542D01*
X034811Y019700D02*
X027233Y019700D01*
X027233Y019859D02*
X034653Y019859D01*
X034494Y020017D02*
X028088Y020017D01*
X028181Y020176D02*
X034336Y020176D01*
X034177Y020334D02*
X028193Y020334D01*
X028307Y020493D02*
X034019Y020493D01*
X033860Y020651D02*
X028465Y020651D01*
X028506Y020692D02*
X028506Y020692D01*
X028611Y020810D02*
X033111Y020810D01*
X032953Y020968D02*
X028653Y020968D01*
X028653Y021127D02*
X032923Y021127D01*
X032923Y021285D02*
X028653Y021285D01*
X028653Y021444D02*
X030718Y021444D01*
X030559Y021602D02*
X028653Y021602D01*
X028653Y021761D02*
X030401Y021761D01*
X030242Y021919D02*
X028653Y021919D01*
X028653Y022078D02*
X030084Y022078D01*
X029925Y022236D02*
X028653Y022236D01*
X028653Y022395D02*
X029767Y022395D01*
X029608Y022553D02*
X028653Y022553D01*
X028653Y022712D02*
X029450Y022712D01*
X029291Y022870D02*
X028653Y022870D01*
X028653Y023029D02*
X029134Y023029D01*
X029093Y023187D02*
X028653Y023187D01*
X028653Y023346D02*
X029093Y023346D01*
X029093Y023504D02*
X028653Y023504D01*
X028653Y023663D02*
X029093Y023663D01*
X029093Y023821D02*
X028653Y023821D01*
X028653Y023980D02*
X029093Y023980D01*
X029093Y024138D02*
X028653Y024138D01*
X028653Y024297D02*
X029093Y024297D01*
X029093Y024455D02*
X028653Y024455D01*
X028653Y024614D02*
X029093Y024614D01*
X029089Y024772D02*
X028653Y024772D01*
X028653Y024931D02*
X028931Y024931D01*
X028772Y025089D02*
X028653Y025089D01*
X027973Y025089D02*
X021686Y025089D01*
X021703Y024931D02*
X023867Y024931D01*
X024160Y024931D02*
X027973Y024931D01*
X027973Y024772D02*
X024345Y024772D01*
X024393Y024614D02*
X027973Y024614D01*
X027973Y024455D02*
X024373Y024455D01*
X024267Y024297D02*
X027973Y024297D01*
X027973Y024138D02*
X022547Y024138D01*
X022686Y023980D02*
X027973Y023980D01*
X027973Y023821D02*
X022803Y023821D01*
X022803Y023680D02*
X022363Y023680D01*
X022363Y023680D01*
X022803Y023680D01*
X022803Y023663D02*
X027973Y023663D01*
X027973Y023504D02*
X022803Y023504D01*
X022651Y023346D02*
X027973Y023346D01*
X027973Y023187D02*
X021831Y023187D01*
X021954Y023346D02*
X022075Y023346D01*
X022363Y023346D02*
X022363Y023346D01*
X022363Y023504D02*
X022363Y023504D01*
X022363Y023663D02*
X022363Y023663D01*
X021737Y023980D02*
X021703Y023980D01*
X021703Y024138D02*
X021896Y024138D01*
X022054Y024297D02*
X021703Y024297D01*
X021703Y024455D02*
X022213Y024455D01*
X022371Y024614D02*
X021703Y024614D01*
X021703Y024772D02*
X022530Y024772D01*
X022705Y024297D02*
X023759Y024297D01*
X024871Y022712D02*
X022307Y022712D01*
X022148Y022870D02*
X027973Y022870D01*
X027973Y022712D02*
X025856Y022712D01*
X026070Y022553D02*
X027973Y022553D01*
X027973Y022395D02*
X026162Y022395D01*
X026203Y022236D02*
X027973Y022236D01*
X027973Y022078D02*
X026203Y022078D01*
X026143Y021919D02*
X027973Y021919D01*
X027973Y021761D02*
X026024Y021761D01*
X026021Y021602D02*
X026565Y021602D01*
X026493Y020810D02*
X026073Y020810D01*
X025862Y020651D02*
X026493Y020651D01*
X026493Y020493D02*
X025933Y020493D01*
X026036Y020334D02*
X026493Y020334D01*
X026493Y020176D02*
X026063Y020176D01*
X026032Y020017D02*
X026493Y020017D01*
X026493Y019859D02*
X025924Y019859D01*
X025872Y019553D02*
X025711Y019620D01*
X025016Y019620D01*
X024854Y019553D01*
X024730Y019429D01*
X024663Y019268D01*
X024663Y019092D01*
X024730Y018931D01*
X024854Y018807D01*
X025016Y018740D01*
X025711Y018740D01*
X025872Y018807D01*
X025996Y018931D01*
X026063Y019092D01*
X026063Y019268D01*
X025996Y019429D01*
X025872Y019553D01*
X025884Y019542D02*
X026405Y019542D01*
X026493Y019700D02*
X023593Y019700D01*
X023593Y019542D02*
X024843Y019542D01*
X024711Y019383D02*
X023593Y019383D01*
X023593Y019225D02*
X024663Y019225D01*
X024674Y019066D02*
X023593Y019066D01*
X023593Y018908D02*
X024753Y018908D01*
X024994Y018749D02*
X023593Y018749D01*
X023593Y018591D02*
X024943Y018591D01*
X024742Y018432D02*
X023712Y018432D01*
X023743Y018274D02*
X024673Y018274D01*
X024668Y018115D02*
X023706Y018115D01*
X023575Y017957D02*
X024723Y017957D01*
X024884Y017798D02*
X022743Y017798D01*
X022743Y017640D02*
X036003Y017640D01*
X036123Y017798D02*
X025843Y017798D01*
X026003Y017957D02*
X035964Y017957D01*
X036175Y019100D02*
X036035Y019240D01*
X036045Y019240D01*
X036303Y019498D01*
X036303Y019862D01*
X036045Y020120D01*
X035681Y020120D01*
X035423Y019862D01*
X035423Y019852D01*
X034535Y020740D01*
X034545Y020740D01*
X034803Y020998D01*
X034803Y021362D01*
X034703Y021462D01*
X034703Y023685D01*
X034863Y023685D01*
X034863Y024180D01*
X034863Y024675D01*
X034658Y024675D01*
X034368Y024385D01*
X034368Y024306D01*
X031603Y027071D01*
X031603Y031448D01*
X031551Y031573D01*
X031113Y032011D01*
X031143Y032085D01*
X031143Y032275D01*
X031070Y032452D01*
X030935Y032587D01*
X030759Y032660D01*
X029968Y032660D01*
X029871Y032620D01*
X028823Y032620D01*
X028753Y032690D01*
X028334Y032690D01*
X028106Y032918D01*
X027981Y032970D01*
X024803Y032970D01*
X024803Y033028D01*
X024736Y033189D01*
X024612Y033313D01*
X024451Y033380D01*
X024276Y033380D01*
X024114Y033313D01*
X023990Y033189D01*
X023923Y033028D01*
X023923Y033020D01*
X023803Y033020D01*
X023803Y033028D01*
X023736Y033189D01*
X023612Y033313D01*
X023451Y033380D01*
X023276Y033380D01*
X023114Y033313D01*
X022990Y033189D01*
X022923Y033028D01*
X022923Y032332D01*
X022973Y032212D01*
X022973Y029071D01*
X022198Y028295D01*
X022126Y028469D01*
X021982Y028612D01*
X021795Y028690D01*
X020932Y028690D01*
X020744Y028612D01*
X020652Y028520D01*
X020204Y028520D01*
X015901Y032823D01*
X015806Y032918D01*
X015681Y032970D01*
X014303Y032970D01*
X014303Y033028D01*
X014236Y033189D01*
X014112Y033313D01*
X013951Y033380D01*
X013776Y033380D01*
X013614Y033313D01*
X013490Y033189D01*
X013423Y033028D01*
X013423Y033020D01*
X013303Y033020D01*
X013303Y033028D01*
X013236Y033189D01*
X013112Y033313D01*
X012951Y033380D01*
X012776Y033380D01*
X012614Y033313D01*
X012490Y033189D01*
X012423Y033028D01*
X012423Y032721D01*
X011322Y031620D01*
X011181Y031620D01*
X010923Y031362D01*
X010923Y030998D01*
X011181Y030740D01*
X011545Y030740D01*
X011803Y030998D01*
X011803Y031139D01*
X012683Y032019D01*
X012776Y031980D01*
X012951Y031980D01*
X013112Y032047D01*
X013236Y032171D01*
X013303Y032332D01*
X013303Y032340D01*
X013423Y032340D01*
X013423Y032332D01*
X013490Y032171D01*
X013614Y032047D01*
X013776Y031980D01*
X013951Y031980D01*
X014112Y032047D01*
X014236Y032171D01*
X014286Y032290D01*
X015472Y032290D01*
X016242Y031520D01*
X014645Y031520D01*
X014545Y031620D01*
X014181Y031620D01*
X013923Y031362D01*
X013923Y030998D01*
X014181Y030740D01*
X014545Y030740D01*
X014645Y030840D01*
X016322Y030840D01*
X018222Y028941D01*
X018091Y028887D01*
X017956Y028752D01*
X017883Y028575D01*
X017883Y027785D01*
X017956Y027608D01*
X018023Y027541D01*
X018023Y027462D01*
X017923Y027362D01*
X017923Y026998D01*
X018181Y026740D01*
X018545Y026740D01*
X018803Y026998D01*
X018803Y027059D01*
X021023Y024839D01*
X021023Y023962D01*
X020923Y023862D01*
X020923Y023498D01*
X020961Y023460D01*
X018858Y023460D01*
X017543Y024775D01*
X017408Y024910D01*
X014809Y024910D01*
X014787Y024963D01*
X014646Y025104D01*
X014463Y025180D01*
X014646Y025256D01*
X014787Y025397D01*
X014809Y025450D01*
X018506Y025450D01*
X018598Y025358D01*
X018738Y025300D01*
X018889Y025300D01*
X019028Y025358D01*
X019135Y025465D01*
X019193Y025604D01*
X019193Y025756D01*
X019135Y025895D01*
X019028Y026002D01*
X018889Y026060D01*
X018738Y026060D01*
X018598Y026002D01*
X018506Y025910D01*
X014809Y025910D01*
X014787Y025963D01*
X014646Y026104D01*
X014463Y026180D01*
X014264Y026180D01*
X014080Y026104D01*
X013939Y025963D01*
X013863Y025779D01*
X013863Y025581D01*
X013939Y025397D01*
X014080Y025256D01*
X014264Y025180D01*
X014463Y025180D01*
X014264Y025180D01*
X014080Y025104D01*
X013939Y024963D01*
X013863Y024779D01*
X013863Y024581D01*
X013934Y024410D01*
X011958Y024410D01*
X011841Y024527D01*
X011863Y024581D01*
X011863Y024779D01*
X011787Y024963D01*
X011646Y025104D01*
X011463Y025180D01*
X011646Y025256D01*
X011787Y025397D01*
X011863Y025581D01*
X011863Y025779D01*
X011787Y025963D01*
X011646Y026104D01*
X011463Y026180D01*
X011264Y026180D01*
X011080Y026104D01*
X010939Y025963D01*
X010863Y025779D01*
X010863Y025581D01*
X010939Y025397D01*
X011080Y025256D01*
X011264Y025180D01*
X011463Y025180D01*
X011264Y025180D01*
X011080Y025104D01*
X010939Y024963D01*
X010863Y024779D01*
X010863Y024581D01*
X010939Y024397D01*
X011080Y024256D01*
X011264Y024180D01*
X011080Y024104D01*
X010939Y023963D01*
X010863Y023779D01*
X010863Y023705D01*
X008718Y021560D01*
X008583Y021425D01*
X008583Y021119D01*
X008562Y021140D01*
X008164Y021140D01*
X007883Y020859D01*
X007883Y020461D01*
X008164Y020180D01*
X008562Y020180D01*
X008583Y020201D01*
X008583Y020029D01*
X008562Y020050D01*
X008164Y020050D01*
X007883Y019769D01*
X007883Y019371D01*
X008164Y019090D01*
X008562Y019090D01*
X008583Y019111D01*
X008583Y018939D01*
X008562Y018960D01*
X008164Y018960D01*
X007883Y018679D01*
X007883Y018281D01*
X008164Y018000D01*
X008562Y018000D01*
X008583Y018021D01*
X008583Y017859D01*
X008562Y017880D01*
X008164Y017880D01*
X007883Y017599D01*
X007883Y017201D01*
X008164Y016920D01*
X008562Y016920D01*
X008583Y016941D01*
X008583Y016769D01*
X008562Y016790D01*
X008164Y016790D01*
X007883Y016509D01*
X007883Y016111D01*
X008164Y015830D01*
X008414Y015830D01*
X008383Y015756D01*
X008383Y015700D01*
X008164Y015700D01*
X007883Y015419D01*
X007883Y015385D01*
X007808Y015460D01*
X007389Y015460D01*
X007472Y015661D01*
X007472Y015880D01*
X007389Y016082D01*
X007234Y016237D01*
X007032Y016321D01*
X007025Y016321D01*
X007051Y016325D01*
X007133Y016351D01*
X007211Y016391D01*
X007281Y016442D01*
X007342Y016503D01*
X007393Y016573D01*
X007432Y016650D01*
X007459Y016732D01*
X007472Y016818D01*
X007472Y016841D01*
X006942Y016841D01*
X006942Y016881D01*
X006902Y016881D01*
X006902Y016841D01*
X006372Y016841D01*
X006372Y016818D01*
X006386Y016732D01*
X006413Y016650D01*
X006452Y016573D01*
X006503Y016503D01*
X006564Y016442D01*
X006634Y016391D01*
X006711Y016351D01*
X006793Y016325D01*
X006819Y016321D01*
X006813Y016321D01*
X006611Y016237D01*
X006456Y016082D01*
X006372Y015880D01*
X006372Y015661D01*
X006456Y015459D01*
X006536Y015379D01*
X006483Y015325D01*
X006354Y015196D01*
X006354Y015333D01*
X006270Y015535D01*
X006116Y015690D01*
X005925Y015769D01*
X006116Y015848D01*
X006270Y016002D01*
X006354Y016204D01*
X006354Y016423D01*
X006270Y016625D01*
X006116Y016780D01*
X005914Y016864D01*
X005695Y016864D01*
X005493Y016780D01*
X005338Y016625D01*
X005254Y016423D01*
X005254Y016204D01*
X005338Y016002D01*
X005493Y015848D01*
X005683Y015769D01*
X005493Y015690D01*
X005338Y015535D01*
X005254Y015333D01*
X005254Y015114D01*
X005338Y014912D01*
X005404Y014846D01*
X005333Y014775D01*
X005143Y014585D01*
X005143Y032120D01*
X005351Y031913D01*
X005683Y031775D01*
X006043Y031775D01*
X006376Y031913D01*
X006630Y032167D01*
X006768Y032500D01*
X006768Y032860D01*
X006630Y033193D01*
X006423Y033400D01*
X039803Y033400D01*
X039596Y033193D01*
X039458Y032860D01*
X039458Y032500D01*
X039596Y032167D01*
X039851Y031913D01*
X040183Y031775D01*
X040543Y031775D01*
X040876Y031913D01*
X041083Y032120D01*
X041083Y002240D01*
X040876Y002447D01*
X040543Y002585D01*
X040183Y002585D01*
X039851Y002447D01*
X039596Y002193D01*
X039458Y001860D01*
X039458Y001500D01*
X039596Y001167D01*
X039803Y000960D01*
X038025Y000960D01*
X039666Y002601D01*
X039742Y002677D01*
X039783Y002776D01*
X039783Y003291D01*
X040091Y003291D01*
X040196Y003397D01*
X040196Y004381D01*
X041042Y005227D01*
X041083Y005326D01*
X041083Y018484D01*
X041042Y018583D01*
X040966Y018659D01*
X040566Y019059D01*
X040467Y019100D01*
X036175Y019100D01*
X036051Y019225D02*
X041083Y019225D01*
X041083Y019383D02*
X039189Y019383D01*
X039303Y019498D02*
X039045Y019240D01*
X038681Y019240D01*
X038423Y019498D01*
X038423Y019862D01*
X038681Y020120D01*
X039045Y020120D01*
X039303Y019862D01*
X039303Y019498D01*
X039303Y019542D02*
X041083Y019542D01*
X041083Y019700D02*
X039303Y019700D01*
X039303Y019859D02*
X041083Y019859D01*
X041083Y020017D02*
X039148Y020017D01*
X038578Y020017D02*
X036148Y020017D01*
X036303Y019859D02*
X038423Y019859D01*
X038423Y019700D02*
X036303Y019700D01*
X036303Y019542D02*
X038423Y019542D01*
X038538Y019383D02*
X036189Y019383D01*
X035578Y020017D02*
X035258Y020017D01*
X035100Y020176D02*
X041083Y020176D01*
X041083Y020334D02*
X034941Y020334D01*
X034783Y020493D02*
X041083Y020493D01*
X041083Y020651D02*
X034624Y020651D01*
X034615Y020810D02*
X041083Y020810D01*
X041083Y020968D02*
X034774Y020968D01*
X034803Y021127D02*
X041083Y021127D01*
X041083Y021285D02*
X034803Y021285D01*
X034722Y021444D02*
X041083Y021444D01*
X041083Y021602D02*
X034703Y021602D01*
X034703Y021761D02*
X041083Y021761D01*
X041083Y021919D02*
X034703Y021919D01*
X034703Y022078D02*
X041083Y022078D01*
X041083Y022236D02*
X034703Y022236D01*
X034703Y022395D02*
X036795Y022395D01*
X036751Y022413D02*
X037083Y022275D01*
X037443Y022275D01*
X037776Y022413D01*
X038030Y022667D01*
X038168Y023000D01*
X038168Y023360D01*
X038030Y023693D01*
X037776Y023947D01*
X037443Y024085D01*
X037083Y024085D01*
X036751Y023947D01*
X036496Y023693D01*
X036358Y023360D01*
X036358Y023000D01*
X036496Y022667D01*
X036751Y022413D01*
X036610Y022553D02*
X034703Y022553D01*
X034703Y022712D02*
X036478Y022712D01*
X036412Y022870D02*
X034703Y022870D01*
X034703Y023029D02*
X036358Y023029D01*
X036358Y023187D02*
X034703Y023187D01*
X034703Y023346D02*
X036358Y023346D01*
X036418Y023504D02*
X034703Y023504D01*
X034703Y023663D02*
X036484Y023663D01*
X036624Y023821D02*
X036204Y023821D01*
X036144Y023760D02*
X036283Y023900D01*
X036358Y024082D01*
X036358Y024278D01*
X036283Y024460D01*
X036144Y024600D01*
X035962Y024675D01*
X035765Y024675D01*
X035583Y024600D01*
X035444Y024460D01*
X035368Y024278D01*
X035368Y024082D01*
X035444Y023900D01*
X035583Y023760D01*
X035765Y023685D01*
X035962Y023685D01*
X036144Y023760D01*
X036316Y023980D02*
X036829Y023980D01*
X036358Y024138D02*
X041083Y024138D01*
X041083Y023980D02*
X037698Y023980D01*
X037902Y023821D02*
X041083Y023821D01*
X041083Y023663D02*
X038043Y023663D01*
X038109Y023504D02*
X041083Y023504D01*
X041083Y023346D02*
X038168Y023346D01*
X038168Y023187D02*
X041083Y023187D01*
X041083Y023029D02*
X038168Y023029D01*
X038114Y022870D02*
X041083Y022870D01*
X041083Y022712D02*
X038049Y022712D01*
X037916Y022553D02*
X041083Y022553D01*
X041083Y022395D02*
X037732Y022395D01*
X036351Y024297D02*
X041083Y024297D01*
X041083Y024455D02*
X036285Y024455D01*
X036110Y024614D02*
X041083Y024614D01*
X041083Y024772D02*
X038356Y024772D01*
X038384Y024787D02*
X038443Y024829D01*
X038494Y024880D01*
X038537Y024939D01*
X038570Y025003D01*
X038592Y025072D01*
X038603Y025144D01*
X038603Y025170D01*
X037873Y025170D01*
X037873Y024720D01*
X038179Y024720D01*
X038251Y024731D01*
X038320Y024754D01*
X038384Y024787D01*
X038531Y024931D02*
X041083Y024931D01*
X041083Y025089D02*
X038595Y025089D01*
X038603Y025190D02*
X038603Y025216D01*
X038592Y025288D01*
X038570Y025357D01*
X038537Y025421D01*
X038494Y025480D01*
X038443Y025531D01*
X038384Y025573D01*
X038320Y025606D01*
X038251Y025629D01*
X038179Y025640D01*
X037873Y025640D01*
X037873Y025190D01*
X037853Y025190D01*
X037853Y025170D01*
X037123Y025170D01*
X037123Y025144D01*
X037135Y025072D01*
X037157Y025003D01*
X037190Y024939D01*
X037232Y024880D01*
X037284Y024829D01*
X037342Y024787D01*
X037407Y024754D01*
X037476Y024731D01*
X037547Y024720D01*
X037853Y024720D01*
X037853Y025170D01*
X037873Y025170D01*
X037873Y025190D01*
X038603Y025190D01*
X038598Y025248D02*
X041083Y025248D01*
X041083Y025406D02*
X038544Y025406D01*
X038397Y025565D02*
X041083Y025565D01*
X041083Y025723D02*
X038242Y025723D01*
X038235Y025720D02*
X038404Y025790D01*
X038533Y025919D01*
X038603Y026088D01*
X038603Y026271D01*
X038533Y026441D01*
X038404Y026570D01*
X038235Y026640D01*
X037492Y026640D01*
X037323Y026570D01*
X037193Y026441D01*
X037181Y026410D01*
X036893Y026410D01*
X036893Y027799D01*
X036912Y027807D01*
X037036Y027931D01*
X037103Y028092D01*
X037103Y028268D01*
X037036Y028429D01*
X036912Y028553D01*
X036751Y028620D01*
X036576Y028620D01*
X036414Y028553D01*
X036290Y028429D01*
X036223Y028268D01*
X036223Y028092D01*
X036290Y027931D01*
X036414Y027807D01*
X036433Y027799D01*
X036433Y026620D01*
X036181Y026620D01*
X035923Y026362D01*
X035923Y025998D01*
X036181Y025740D01*
X036545Y025740D01*
X036755Y025950D01*
X037181Y025950D01*
X037193Y025919D01*
X037323Y025790D01*
X037492Y025720D01*
X038235Y025720D01*
X038495Y025882D02*
X041083Y025882D01*
X041083Y026040D02*
X038583Y026040D01*
X038603Y026199D02*
X041083Y026199D01*
X041083Y026357D02*
X038568Y026357D01*
X038458Y026516D02*
X041083Y026516D01*
X041083Y026674D02*
X036893Y026674D01*
X036893Y026516D02*
X037268Y026516D01*
X036893Y026833D02*
X041083Y026833D01*
X041083Y026991D02*
X036893Y026991D01*
X036893Y027150D02*
X041083Y027150D01*
X041083Y027308D02*
X038114Y027308D01*
X038045Y027240D02*
X038303Y027498D01*
X038303Y027862D01*
X038045Y028120D01*
X037681Y028120D01*
X037423Y027862D01*
X037423Y027498D01*
X037681Y027240D01*
X038045Y027240D01*
X038272Y027467D02*
X041083Y027467D01*
X041083Y027625D02*
X038303Y027625D01*
X038303Y027784D02*
X041083Y027784D01*
X041083Y027942D02*
X038223Y027942D01*
X038065Y028101D02*
X041083Y028101D01*
X041083Y028259D02*
X038065Y028259D01*
X038045Y028240D02*
X038303Y028498D01*
X038303Y028680D01*
X038303Y028862D01*
X038045Y029120D01*
X037863Y029120D01*
X037681Y029120D01*
X037423Y028862D01*
X037423Y028680D01*
X037423Y028498D01*
X037681Y028240D01*
X037863Y028240D01*
X037863Y028680D01*
X037423Y028680D01*
X037863Y028680D01*
X037863Y028680D01*
X037863Y029120D01*
X037863Y028680D01*
X037863Y028680D01*
X037863Y028680D01*
X037863Y028240D01*
X038045Y028240D01*
X037863Y028259D02*
X037863Y028259D01*
X037863Y028418D02*
X037863Y028418D01*
X037863Y028576D02*
X037863Y028576D01*
X037863Y028680D02*
X037863Y028680D01*
X038303Y028680D01*
X037863Y028680D01*
X037863Y028735D02*
X037863Y028735D01*
X037863Y028893D02*
X037863Y028893D01*
X037863Y029052D02*
X037863Y029052D01*
X037613Y029052D02*
X037086Y029052D01*
X037103Y029092D02*
X037036Y028931D01*
X036912Y028807D01*
X036751Y028740D01*
X036576Y028740D01*
X036414Y028807D01*
X036290Y028931D01*
X036223Y029092D01*
X036223Y029268D01*
X036290Y029429D01*
X036414Y029553D01*
X036576Y029620D01*
X036751Y029620D01*
X036912Y029553D01*
X037036Y029429D01*
X037103Y029268D01*
X037103Y029092D01*
X037103Y029210D02*
X041083Y029210D01*
X041083Y029052D02*
X038114Y029052D01*
X038272Y028893D02*
X041083Y028893D01*
X041083Y028735D02*
X038303Y028735D01*
X038303Y028576D02*
X041083Y028576D01*
X041083Y028418D02*
X038223Y028418D01*
X037662Y028259D02*
X037103Y028259D01*
X037103Y028101D02*
X037662Y028101D01*
X037503Y027942D02*
X037041Y027942D01*
X036893Y027784D02*
X037423Y027784D01*
X037423Y027625D02*
X036893Y027625D01*
X036893Y027467D02*
X037454Y027467D01*
X037613Y027308D02*
X036893Y027308D01*
X036433Y027308D02*
X033593Y027308D01*
X033593Y027375D02*
X033458Y027510D01*
X033137Y027832D01*
X033276Y027971D01*
X033287Y027949D01*
X033328Y027893D01*
X033377Y027844D01*
X033433Y027804D01*
X033494Y027772D01*
X033560Y027751D01*
X033629Y027740D01*
X033663Y027740D01*
X033663Y028180D01*
X033663Y028620D01*
X033629Y028620D01*
X033560Y028609D01*
X033494Y028588D01*
X033433Y028556D01*
X033377Y028516D01*
X033328Y028467D01*
X033287Y028411D01*
X033276Y028389D01*
X033045Y028620D01*
X032681Y028620D01*
X032423Y028362D01*
X032423Y027998D01*
X032633Y027788D01*
X032633Y027685D01*
X032698Y027620D01*
X032681Y027620D01*
X032423Y027362D01*
X032423Y027180D01*
X032423Y026998D01*
X032681Y026740D01*
X032863Y026740D01*
X032863Y027180D01*
X032423Y027180D01*
X032863Y027180D01*
X032863Y027180D01*
X032863Y027180D01*
X032863Y026740D01*
X033045Y026740D01*
X033133Y026828D01*
X033133Y026572D01*
X032923Y026362D01*
X032923Y025998D01*
X033181Y025740D01*
X033545Y025740D01*
X033803Y025998D01*
X033803Y026362D01*
X033593Y026572D01*
X033593Y027375D01*
X033502Y027467D02*
X036433Y027467D01*
X036433Y027625D02*
X033343Y027625D01*
X033472Y027784D02*
X033185Y027784D01*
X033248Y027942D02*
X033292Y027942D01*
X033663Y027942D02*
X033663Y027942D01*
X033663Y027784D02*
X033663Y027784D01*
X033663Y027740D02*
X033698Y027740D01*
X033766Y027751D01*
X033832Y027772D01*
X033894Y027804D01*
X033950Y027844D01*
X033999Y027893D01*
X034040Y027949D01*
X034071Y028011D01*
X034092Y028077D01*
X034103Y028145D01*
X034103Y028180D01*
X034103Y028215D01*
X034092Y028283D01*
X034071Y028349D01*
X034040Y028411D01*
X033999Y028467D01*
X033950Y028516D01*
X033894Y028556D01*
X033832Y028588D01*
X033766Y028609D01*
X033698Y028620D01*
X033663Y028620D01*
X033663Y028180D01*
X033663Y028180D01*
X033663Y028180D01*
X033663Y027740D01*
X033854Y027784D02*
X036433Y027784D01*
X036286Y027942D02*
X034034Y027942D01*
X034096Y028101D02*
X036223Y028101D01*
X036223Y028259D02*
X034096Y028259D01*
X034103Y028180D02*
X033663Y028180D01*
X033663Y028180D01*
X034103Y028180D01*
X034035Y028418D02*
X036285Y028418D01*
X036470Y028576D02*
X033855Y028576D01*
X033663Y028576D02*
X033663Y028576D01*
X033663Y028418D02*
X033663Y028418D01*
X033663Y028259D02*
X033663Y028259D01*
X033663Y028101D02*
X033663Y028101D01*
X033292Y028418D02*
X033248Y028418D01*
X033089Y028576D02*
X033471Y028576D01*
X033576Y028740D02*
X033414Y028807D01*
X033290Y028931D01*
X033274Y028969D01*
X033045Y028740D01*
X032863Y028740D01*
X032863Y029180D01*
X032423Y029180D01*
X032423Y028998D01*
X032681Y028740D01*
X032863Y028740D01*
X032863Y029180D01*
X032863Y029180D01*
X032423Y029180D01*
X032423Y029362D01*
X032681Y029620D01*
X032863Y029620D01*
X032863Y029180D01*
X032863Y029180D01*
X032863Y029180D01*
X032863Y029620D01*
X033045Y029620D01*
X033274Y029391D01*
X033290Y029429D01*
X033414Y029553D01*
X033576Y029620D01*
X033751Y029620D01*
X033912Y029553D01*
X034036Y029429D01*
X034103Y029268D01*
X034103Y029092D01*
X034036Y028931D01*
X033912Y028807D01*
X033751Y028740D01*
X033576Y028740D01*
X033328Y028893D02*
X033199Y028893D01*
X032863Y028893D02*
X032863Y028893D01*
X032863Y029052D02*
X032863Y029052D01*
X032863Y029210D02*
X032863Y029210D01*
X032863Y029369D02*
X032863Y029369D01*
X032863Y029527D02*
X032863Y029527D01*
X032588Y029527D02*
X031603Y029527D01*
X031603Y029369D02*
X032430Y029369D01*
X032423Y029210D02*
X031603Y029210D01*
X031603Y029052D02*
X032423Y029052D01*
X032528Y028893D02*
X031603Y028893D01*
X031603Y028735D02*
X037423Y028735D01*
X037423Y028576D02*
X036857Y028576D01*
X037041Y028418D02*
X037503Y028418D01*
X037454Y028893D02*
X036999Y028893D01*
X037061Y029369D02*
X041083Y029369D01*
X041083Y029527D02*
X036938Y029527D01*
X036912Y029807D02*
X036751Y029740D01*
X036576Y029740D01*
X036414Y029807D01*
X036290Y029931D01*
X036223Y030092D01*
X036223Y030268D01*
X036290Y030429D01*
X036414Y030553D01*
X036576Y030620D01*
X036751Y030620D01*
X036912Y030553D01*
X037036Y030429D01*
X037103Y030268D01*
X037103Y030092D01*
X037036Y029931D01*
X036912Y029807D01*
X036950Y029844D02*
X041083Y029844D01*
X041083Y029686D02*
X031603Y029686D01*
X031603Y029844D02*
X032577Y029844D01*
X032681Y029740D02*
X032423Y029998D01*
X032423Y030362D01*
X032681Y030620D01*
X033045Y030620D01*
X033255Y030410D01*
X033282Y030410D01*
X033290Y030429D01*
X033414Y030553D01*
X033576Y030620D01*
X033751Y030620D01*
X033912Y030553D01*
X034036Y030429D01*
X034103Y030268D01*
X034103Y030092D01*
X034036Y029931D01*
X033912Y029807D01*
X033751Y029740D01*
X033576Y029740D01*
X033414Y029807D01*
X033290Y029931D01*
X033282Y029950D01*
X033255Y029950D01*
X033045Y029740D01*
X032681Y029740D01*
X032423Y030003D02*
X031603Y030003D01*
X031603Y030161D02*
X032423Y030161D01*
X032423Y030320D02*
X031603Y030320D01*
X031603Y030478D02*
X032539Y030478D01*
X033187Y030478D02*
X033339Y030478D01*
X033443Y030795D02*
X031603Y030795D01*
X031603Y030637D02*
X041083Y030637D01*
X041083Y030795D02*
X036884Y030795D01*
X036912Y030807D02*
X037036Y030931D01*
X037103Y031092D01*
X037103Y031268D01*
X037100Y031275D01*
X037443Y031275D01*
X037776Y031413D01*
X038030Y031667D01*
X038168Y032000D01*
X038168Y032360D01*
X038030Y032693D01*
X037776Y032947D01*
X037443Y033085D01*
X037083Y033085D01*
X036751Y032947D01*
X036496Y032693D01*
X036358Y032360D01*
X036358Y032000D01*
X036496Y031667D01*
X036553Y031611D01*
X036414Y031553D01*
X036290Y031429D01*
X034036Y031429D01*
X033912Y031553D01*
X033751Y031620D01*
X033576Y031620D01*
X033414Y031553D01*
X033290Y031429D01*
X031603Y031429D01*
X031603Y031271D02*
X033224Y031271D01*
X033223Y031268D02*
X033223Y031092D01*
X033290Y030931D01*
X033414Y030807D01*
X033576Y030740D01*
X033751Y030740D01*
X033912Y030807D01*
X034036Y030931D01*
X034103Y031092D01*
X034103Y031268D01*
X034036Y031429D01*
X034102Y031271D02*
X036224Y031271D01*
X036223Y031268D02*
X036223Y031092D01*
X036290Y030931D01*
X036414Y030807D01*
X036576Y030740D01*
X036751Y030740D01*
X036912Y030807D01*
X037046Y030954D02*
X041083Y030954D01*
X041083Y031112D02*
X037103Y031112D01*
X037102Y031271D02*
X041083Y031271D01*
X041083Y031429D02*
X037792Y031429D01*
X037951Y031588D02*
X041083Y031588D01*
X041083Y031746D02*
X038063Y031746D01*
X038129Y031905D02*
X039870Y031905D01*
X039700Y032063D02*
X038168Y032063D01*
X038168Y032222D02*
X039574Y032222D01*
X039508Y032380D02*
X038160Y032380D01*
X038094Y032539D02*
X039458Y032539D01*
X039458Y032697D02*
X038026Y032697D01*
X037868Y032856D02*
X039458Y032856D01*
X039522Y033014D02*
X037615Y033014D01*
X036912Y033014D02*
X024803Y033014D01*
X024743Y033173D02*
X039588Y033173D01*
X039734Y033331D02*
X024569Y033331D01*
X024158Y033331D02*
X023569Y033331D01*
X023743Y033173D02*
X023983Y033173D01*
X023923Y032340D02*
X023923Y032332D01*
X023990Y032171D01*
X024114Y032047D01*
X024276Y031980D01*
X024451Y031980D01*
X024612Y032047D01*
X024736Y032171D01*
X024786Y032290D01*
X027772Y032290D01*
X027868Y032194D01*
X027868Y030775D01*
X027974Y030670D01*
X028093Y030670D01*
X028093Y026131D01*
X026554Y027670D01*
X026733Y027670D01*
X026813Y027683D01*
X026889Y027707D01*
X026961Y027744D01*
X027025Y027791D01*
X027082Y027848D01*
X027129Y027913D01*
X027166Y027984D01*
X027191Y028061D01*
X027203Y028140D01*
X027203Y028150D01*
X026393Y028150D01*
X026393Y028210D01*
X026333Y028210D01*
X026333Y028690D01*
X025993Y028690D01*
X025914Y028677D01*
X025837Y028653D01*
X025766Y028616D01*
X025701Y028569D01*
X025644Y028512D01*
X025597Y028447D01*
X025561Y028376D01*
X025536Y028299D01*
X025534Y028290D01*
X024153Y029671D01*
X024153Y030958D01*
X024193Y031054D01*
X024193Y031206D01*
X024135Y031345D01*
X024028Y031452D01*
X023889Y031510D01*
X023738Y031510D01*
X023653Y031475D01*
X023653Y032088D01*
X023736Y032171D01*
X023803Y032332D01*
X023803Y032340D01*
X023923Y032340D01*
X023969Y032222D02*
X023757Y032222D01*
X023653Y032063D02*
X024098Y032063D01*
X023653Y031905D02*
X027868Y031905D01*
X027868Y032063D02*
X024629Y032063D01*
X024757Y032222D02*
X027841Y032222D01*
X028327Y032697D02*
X036500Y032697D01*
X036432Y032539D02*
X030983Y032539D01*
X031100Y032380D02*
X036367Y032380D01*
X036358Y032222D02*
X031143Y032222D01*
X031134Y032063D02*
X036358Y032063D01*
X036398Y031905D02*
X031220Y031905D01*
X031378Y031746D02*
X036463Y031746D01*
X036497Y031588D02*
X033829Y031588D01*
X033497Y031588D02*
X031537Y031588D01*
X031603Y031112D02*
X033223Y031112D01*
X033223Y031268D02*
X033290Y031429D01*
X033281Y030954D02*
X031603Y030954D01*
X030923Y030776D02*
X030923Y030592D01*
X030759Y030660D01*
X029968Y030660D01*
X029843Y030608D01*
X029843Y030725D01*
X029765Y030803D01*
X029812Y030769D01*
X029879Y030735D01*
X029951Y030712D01*
X030025Y030700D01*
X030343Y030700D01*
X030343Y031160D01*
X029583Y031160D01*
X029583Y031142D01*
X029595Y031068D01*
X029618Y030996D01*
X029653Y030928D01*
X029686Y030882D01*
X028858Y031710D01*
X028858Y031940D01*
X029643Y031940D01*
X029656Y031908D01*
X029791Y031773D01*
X029968Y031700D01*
X030462Y031700D01*
X030502Y031660D01*
X030383Y031660D01*
X030383Y031200D01*
X030343Y031200D01*
X030343Y031160D01*
X030383Y031160D01*
X030383Y030700D01*
X030701Y030700D01*
X030776Y030712D01*
X030847Y030735D01*
X030915Y030769D01*
X030923Y030776D01*
X030923Y030637D02*
X030815Y030637D01*
X030383Y030795D02*
X030343Y030795D01*
X030343Y030954D02*
X030383Y030954D01*
X030383Y031112D02*
X030343Y031112D01*
X030343Y031200D02*
X029583Y031200D01*
X029583Y031218D01*
X029595Y031292D01*
X029618Y031364D01*
X029653Y031432D01*
X029697Y031493D01*
X029751Y031546D01*
X029812Y031591D01*
X029879Y031625D01*
X029951Y031648D01*
X030025Y031660D01*
X030343Y031660D01*
X030343Y031200D01*
X030343Y031271D02*
X030383Y031271D01*
X030383Y031429D02*
X030343Y031429D01*
X030343Y031588D02*
X030383Y031588D01*
X029857Y031746D02*
X028858Y031746D01*
X028858Y031905D02*
X029660Y031905D01*
X029808Y031588D02*
X028981Y031588D01*
X029139Y031429D02*
X029651Y031429D01*
X029592Y031271D02*
X029298Y031271D01*
X029456Y031112D02*
X029588Y031112D01*
X029615Y030954D02*
X029640Y030954D01*
X029773Y030795D02*
X029776Y030795D01*
X029843Y030637D02*
X029911Y030637D01*
X029843Y029752D02*
X029968Y029700D01*
X030759Y029700D01*
X030923Y029768D01*
X030923Y029584D01*
X030915Y029591D01*
X030847Y029625D01*
X030776Y029648D01*
X030701Y029660D01*
X030383Y029660D01*
X030383Y029200D01*
X030343Y029200D01*
X030343Y029660D01*
X030025Y029660D01*
X029951Y029648D01*
X029879Y029625D01*
X029843Y029607D01*
X029843Y029752D01*
X029843Y029686D02*
X030923Y029686D01*
X030383Y029527D02*
X030343Y029527D01*
X030343Y029369D02*
X030383Y029369D01*
X030383Y029210D02*
X030343Y029210D01*
X030343Y029160D02*
X030383Y029160D01*
X030383Y028700D01*
X030701Y028700D01*
X030776Y028712D01*
X030847Y028735D01*
X030915Y028769D01*
X030923Y028776D01*
X030923Y028592D01*
X030759Y028660D01*
X029968Y028660D01*
X029843Y028608D01*
X029843Y028753D01*
X029879Y028735D01*
X029951Y028712D01*
X030025Y028700D01*
X030343Y028700D01*
X030343Y029160D01*
X030343Y029052D02*
X030383Y029052D01*
X030383Y028893D02*
X030343Y028893D01*
X030343Y028735D02*
X030383Y028735D01*
X030846Y028735D02*
X030923Y028735D01*
X031603Y028576D02*
X032637Y028576D01*
X032479Y028418D02*
X031603Y028418D01*
X031603Y028259D02*
X032423Y028259D01*
X032423Y028101D02*
X031603Y028101D01*
X031603Y027942D02*
X032479Y027942D01*
X032633Y027784D02*
X031603Y027784D01*
X031603Y027625D02*
X032693Y027625D01*
X032528Y027467D02*
X031603Y027467D01*
X031603Y027308D02*
X032423Y027308D01*
X032423Y027150D02*
X031603Y027150D01*
X031683Y026991D02*
X032430Y026991D01*
X032588Y026833D02*
X031842Y026833D01*
X032000Y026674D02*
X033133Y026674D01*
X033077Y026516D02*
X032159Y026516D01*
X032317Y026357D02*
X032923Y026357D01*
X032923Y026199D02*
X032476Y026199D01*
X032634Y026040D02*
X032923Y026040D01*
X033039Y025882D02*
X032793Y025882D01*
X032951Y025723D02*
X037484Y025723D01*
X037476Y025629D02*
X037407Y025606D01*
X037342Y025573D01*
X037284Y025531D01*
X037232Y025480D01*
X037190Y025421D01*
X037157Y025357D01*
X037135Y025288D01*
X037123Y025216D01*
X037123Y025190D01*
X037853Y025190D01*
X037853Y025640D01*
X037547Y025640D01*
X037476Y025629D01*
X037330Y025565D02*
X033110Y025565D01*
X033268Y025406D02*
X037182Y025406D01*
X037128Y025248D02*
X033427Y025248D01*
X033585Y025089D02*
X037132Y025089D01*
X037196Y024931D02*
X033744Y024931D01*
X033902Y024772D02*
X037371Y024772D01*
X037853Y024772D02*
X037873Y024772D01*
X037873Y024931D02*
X037853Y024931D01*
X037853Y025089D02*
X037873Y025089D01*
X037873Y025248D02*
X037853Y025248D01*
X037853Y025406D02*
X037873Y025406D01*
X037873Y025565D02*
X037853Y025565D01*
X037231Y025882D02*
X036687Y025882D01*
X036039Y025882D02*
X033687Y025882D01*
X033803Y026040D02*
X035923Y026040D01*
X035923Y026199D02*
X033803Y026199D01*
X033803Y026357D02*
X035923Y026357D01*
X036077Y026516D02*
X033650Y026516D01*
X033593Y026674D02*
X036433Y026674D01*
X036433Y026833D02*
X033593Y026833D01*
X033593Y026991D02*
X036433Y026991D01*
X036433Y027150D02*
X033593Y027150D01*
X032863Y027150D02*
X032863Y027150D01*
X032863Y026991D02*
X032863Y026991D01*
X032863Y026833D02*
X032863Y026833D01*
X031831Y025882D02*
X031040Y025882D01*
X031029Y025867D02*
X031074Y025928D01*
X031108Y025996D01*
X031131Y026068D01*
X031143Y026142D01*
X031143Y026160D01*
X030383Y026160D01*
X030383Y025700D01*
X030701Y025700D01*
X030776Y025712D01*
X030847Y025735D01*
X030915Y025769D01*
X030976Y025814D01*
X031029Y025867D01*
X031122Y026040D02*
X031672Y026040D01*
X031514Y026199D02*
X030383Y026199D01*
X030383Y026200D02*
X031143Y026200D01*
X031143Y026218D01*
X031131Y026292D01*
X031108Y026364D01*
X031074Y026432D01*
X031029Y026493D01*
X030976Y026546D01*
X030915Y026591D01*
X030847Y026625D01*
X030776Y026648D01*
X030701Y026660D01*
X030383Y026660D01*
X030383Y026200D01*
X030343Y026200D01*
X030343Y026660D01*
X030025Y026660D01*
X029951Y026648D01*
X029879Y026625D01*
X029843Y026607D01*
X029843Y026752D01*
X029968Y026700D01*
X030759Y026700D01*
X030935Y026773D01*
X030953Y026791D01*
X030975Y026737D01*
X031071Y026642D01*
X034023Y023689D01*
X034023Y021552D01*
X033716Y021859D01*
X033617Y021900D01*
X031025Y021900D01*
X030225Y022700D01*
X030759Y022700D01*
X030935Y022773D01*
X031070Y022908D01*
X031143Y023085D01*
X031143Y023275D01*
X031070Y023452D01*
X030935Y023587D01*
X030759Y023660D01*
X030208Y023660D01*
X030168Y023700D01*
X030759Y023700D01*
X030935Y023773D01*
X031070Y023908D01*
X031143Y024085D01*
X031143Y024275D01*
X031070Y024452D01*
X030935Y024587D01*
X030759Y024660D01*
X029968Y024660D01*
X029843Y024608D01*
X029843Y024752D01*
X029968Y024700D01*
X030759Y024700D01*
X030935Y024773D01*
X031070Y024908D01*
X031143Y025085D01*
X031143Y025275D01*
X031070Y025452D01*
X030935Y025587D01*
X030759Y025660D01*
X029968Y025660D01*
X029843Y025608D01*
X029843Y025753D01*
X029879Y025735D01*
X029951Y025712D01*
X030025Y025700D01*
X030343Y025700D01*
X030343Y026160D01*
X030383Y026160D01*
X030383Y026200D01*
X030383Y026357D02*
X030343Y026357D01*
X030343Y026516D02*
X030383Y026516D01*
X029843Y026674D02*
X031038Y026674D01*
X031071Y026642D02*
X031071Y026642D01*
X031007Y026516D02*
X031197Y026516D01*
X031110Y026357D02*
X031355Y026357D01*
X030810Y025723D02*
X031989Y025723D01*
X032148Y025565D02*
X030958Y025565D01*
X031089Y025406D02*
X032306Y025406D01*
X032465Y025248D02*
X031143Y025248D01*
X031143Y025089D02*
X032623Y025089D01*
X032782Y024931D02*
X031079Y024931D01*
X030933Y024772D02*
X032940Y024772D01*
X033099Y024614D02*
X030871Y024614D01*
X031067Y024455D02*
X033257Y024455D01*
X033416Y024297D02*
X031135Y024297D01*
X031143Y024138D02*
X033574Y024138D01*
X033733Y023980D02*
X031100Y023980D01*
X030983Y023821D02*
X033891Y023821D01*
X034023Y023663D02*
X030206Y023663D01*
X031018Y023504D02*
X034023Y023504D01*
X034023Y023346D02*
X031114Y023346D01*
X031143Y023187D02*
X034023Y023187D01*
X034023Y023029D02*
X031120Y023029D01*
X031032Y022870D02*
X034023Y022870D01*
X034023Y022712D02*
X030787Y022712D01*
X030531Y022395D02*
X034023Y022395D01*
X034023Y022553D02*
X030372Y022553D01*
X030689Y022236D02*
X034023Y022236D01*
X034023Y022078D02*
X030848Y022078D01*
X031006Y021919D02*
X034023Y021919D01*
X034023Y021761D02*
X033815Y021761D01*
X033973Y021602D02*
X034023Y021602D01*
X033363Y021127D02*
X033363Y021127D01*
X033363Y020968D02*
X033363Y020968D01*
X033363Y020810D02*
X033363Y020810D01*
X033615Y020810D02*
X033702Y020810D01*
X035417Y019859D02*
X035423Y019859D01*
X035241Y016689D02*
X027693Y016689D01*
X027662Y016530D02*
X035082Y016530D01*
X034924Y016372D02*
X027543Y016372D01*
X027543Y016213D02*
X034765Y016213D01*
X034607Y016055D02*
X027543Y016055D01*
X026524Y017164D02*
X026063Y017164D01*
X026040Y017323D02*
X026682Y017323D01*
X026841Y017481D02*
X025944Y017481D01*
X026027Y017006D02*
X026365Y017006D01*
X026207Y016847D02*
X025913Y016847D01*
X025911Y016689D02*
X026048Y016689D01*
X024815Y016689D02*
X023630Y016689D01*
X023471Y016847D02*
X024814Y016847D01*
X024699Y017006D02*
X023313Y017006D01*
X023154Y017164D02*
X024663Y017164D01*
X024686Y017323D02*
X022996Y017323D01*
X022837Y017481D02*
X024782Y017481D01*
X025363Y017798D02*
X025363Y017798D01*
X025363Y017957D02*
X025363Y017957D01*
X025363Y018115D02*
X025363Y018115D01*
X025363Y018274D02*
X025363Y018274D01*
X025363Y018432D02*
X025363Y018432D01*
X025363Y018591D02*
X025363Y018591D01*
X025733Y018749D02*
X026474Y018749D01*
X026315Y018908D02*
X025973Y018908D01*
X026052Y019066D02*
X026283Y019066D01*
X026283Y019225D02*
X026063Y019225D01*
X026015Y019383D02*
X026283Y019383D01*
X027233Y020017D02*
X027539Y020017D01*
X027445Y020176D02*
X027233Y020176D01*
X027233Y020334D02*
X027433Y020334D01*
X027473Y020493D02*
X027233Y020493D01*
X027233Y020651D02*
X027516Y020651D01*
X027511Y020810D02*
X027413Y020810D01*
X027361Y021602D02*
X027563Y021602D01*
X027963Y021602D02*
X027973Y021602D01*
X027973Y023029D02*
X021990Y023029D01*
X022465Y022553D02*
X024656Y022553D01*
X024564Y022395D02*
X022624Y022395D01*
X022782Y022236D02*
X024523Y022236D01*
X024523Y022078D02*
X022941Y022078D01*
X023099Y021919D02*
X024584Y021919D01*
X024702Y021761D02*
X023258Y021761D01*
X023416Y021602D02*
X024705Y021602D01*
X024585Y021444D02*
X023575Y021444D01*
X023593Y021285D02*
X024523Y021285D01*
X024523Y021127D02*
X023593Y021127D01*
X023593Y020968D02*
X024563Y020968D01*
X024653Y020810D02*
X023593Y020810D01*
X023593Y020651D02*
X024865Y020651D01*
X024794Y020493D02*
X023593Y020493D01*
X023593Y020334D02*
X024691Y020334D01*
X024663Y020176D02*
X023593Y020176D01*
X023593Y020017D02*
X024694Y020017D01*
X024802Y019859D02*
X023593Y019859D01*
X023151Y017957D02*
X023075Y017957D01*
X023788Y016530D02*
X024633Y016530D01*
X024555Y016372D02*
X023947Y016372D01*
X024105Y016213D02*
X024523Y016213D01*
X024527Y016055D02*
X024264Y016055D01*
X024422Y015896D02*
X024593Y015896D01*
X024581Y015738D02*
X024725Y015738D01*
X027543Y012251D02*
X035608Y012251D01*
X035942Y011934D02*
X037133Y011934D01*
X037133Y012092D02*
X036093Y012092D01*
X036093Y012251D02*
X037133Y012251D01*
X037133Y012409D02*
X036093Y012409D01*
X036093Y012568D02*
X037133Y012568D01*
X037133Y012726D02*
X036093Y012726D01*
X036093Y012885D02*
X037133Y012885D01*
X037133Y013043D02*
X036093Y013043D01*
X036093Y013202D02*
X037133Y013202D01*
X037061Y013360D02*
X036666Y013360D01*
X036803Y013519D02*
X036923Y013519D01*
X036923Y013677D02*
X036803Y013677D01*
X036803Y013836D02*
X036923Y013836D01*
X037055Y013994D02*
X036671Y013994D01*
X036217Y014311D02*
X040543Y014311D01*
X040543Y014153D02*
X036093Y014153D01*
X036294Y014470D02*
X040543Y014470D01*
X040543Y014628D02*
X036303Y014628D01*
X036254Y014787D02*
X040543Y014787D01*
X040543Y014945D02*
X036120Y014945D01*
X036209Y015104D02*
X040543Y015104D01*
X040543Y015262D02*
X036303Y015262D01*
X036303Y015421D02*
X040543Y015421D01*
X040543Y015579D02*
X036286Y015579D01*
X036128Y015738D02*
X039377Y015738D01*
X039234Y016530D02*
X039145Y016530D01*
X040349Y015738D02*
X040543Y015738D01*
X041083Y015738D02*
X041083Y015738D01*
X041083Y015896D02*
X041083Y015896D01*
X041083Y016055D02*
X041083Y016055D01*
X041083Y016213D02*
X041083Y016213D01*
X041083Y016372D02*
X041083Y016372D01*
X041083Y016530D02*
X041083Y016530D01*
X041083Y016689D02*
X041083Y016689D01*
X041083Y016847D02*
X041083Y016847D01*
X041083Y017006D02*
X041083Y017006D01*
X041083Y017164D02*
X041083Y017164D01*
X041083Y017323D02*
X041083Y017323D01*
X041083Y017481D02*
X041083Y017481D01*
X041083Y017640D02*
X041083Y017640D01*
X041083Y017798D02*
X041083Y017798D01*
X041083Y017957D02*
X041083Y017957D01*
X041083Y018115D02*
X041083Y018115D01*
X041083Y018274D02*
X041083Y018274D01*
X041083Y018432D02*
X041083Y018432D01*
X041083Y018591D02*
X041035Y018591D01*
X040966Y018659D02*
X040966Y018659D01*
X040876Y018749D02*
X041083Y018749D01*
X041083Y018908D02*
X040718Y018908D01*
X040549Y019066D02*
X041083Y019066D01*
X041083Y015579D02*
X041083Y015579D01*
X041083Y015421D02*
X041083Y015421D01*
X041083Y015262D02*
X041083Y015262D01*
X041083Y015104D02*
X041083Y015104D01*
X041083Y014945D02*
X041083Y014945D01*
X041083Y014787D02*
X041083Y014787D01*
X041083Y014628D02*
X041083Y014628D01*
X041083Y014470D02*
X041083Y014470D01*
X041083Y014311D02*
X041083Y014311D01*
X041083Y014153D02*
X041083Y014153D01*
X041083Y013994D02*
X041083Y013994D01*
X041083Y013836D02*
X041083Y013836D01*
X041083Y013677D02*
X041083Y013677D01*
X041083Y013519D02*
X041083Y013519D01*
X041083Y013360D02*
X041083Y013360D01*
X041083Y013202D02*
X041083Y013202D01*
X041083Y013043D02*
X041083Y013043D01*
X041083Y012885D02*
X041083Y012885D01*
X041083Y012726D02*
X041083Y012726D01*
X041083Y012568D02*
X041083Y012568D01*
X041083Y012409D02*
X041083Y012409D01*
X041083Y012251D02*
X041083Y012251D01*
X041083Y012092D02*
X041083Y012092D01*
X041083Y011934D02*
X041083Y011934D01*
X041083Y011775D02*
X041083Y011775D01*
X041083Y011617D02*
X041083Y011617D01*
X041083Y011458D02*
X041083Y011458D01*
X041083Y011300D02*
X041083Y011300D01*
X041083Y011141D02*
X041083Y011141D01*
X041083Y010983D02*
X041083Y010983D01*
X041083Y010824D02*
X041083Y010824D01*
X041083Y010666D02*
X041083Y010666D01*
X041083Y010507D02*
X041083Y010507D01*
X041083Y010349D02*
X041083Y010349D01*
X041083Y010190D02*
X041083Y010190D01*
X041083Y010032D02*
X041083Y010032D01*
X041083Y009873D02*
X041083Y009873D01*
X041083Y009715D02*
X041083Y009715D01*
X041083Y009556D02*
X041083Y009556D01*
X041083Y009398D02*
X041083Y009398D01*
X041083Y009239D02*
X041083Y009239D01*
X041083Y009081D02*
X041083Y009081D01*
X041083Y008922D02*
X041083Y008922D01*
X041083Y008764D02*
X041083Y008764D01*
X041083Y008605D02*
X041083Y008605D01*
X041083Y008447D02*
X041083Y008447D01*
X041083Y008288D02*
X041083Y008288D01*
X041083Y008130D02*
X041083Y008130D01*
X041083Y007971D02*
X041083Y007971D01*
X041083Y007813D02*
X041083Y007813D01*
X041083Y007654D02*
X041083Y007654D01*
X041083Y007496D02*
X041083Y007496D01*
X041083Y007337D02*
X041083Y007337D01*
X041083Y007179D02*
X041083Y007179D01*
X041083Y007020D02*
X041083Y007020D01*
X041083Y006862D02*
X041083Y006862D01*
X041083Y006703D02*
X041083Y006703D01*
X041083Y006545D02*
X041083Y006545D01*
X041083Y006386D02*
X041083Y006386D01*
X041083Y006228D02*
X041083Y006228D01*
X041083Y006069D02*
X041083Y006069D01*
X041083Y005911D02*
X041083Y005911D01*
X041083Y005752D02*
X041083Y005752D01*
X041083Y005594D02*
X041083Y005594D01*
X041083Y005435D02*
X041083Y005435D01*
X041083Y005277D02*
X041063Y005277D01*
X041083Y005118D02*
X040933Y005118D01*
X041083Y004960D02*
X040775Y004960D01*
X040616Y004801D02*
X041083Y004801D01*
X041083Y004643D02*
X040458Y004643D01*
X040299Y004484D02*
X041083Y004484D01*
X041083Y004326D02*
X040196Y004326D01*
X040196Y004167D02*
X041083Y004167D01*
X041083Y004009D02*
X040196Y004009D01*
X040196Y003850D02*
X041083Y003850D01*
X041083Y003692D02*
X040196Y003692D01*
X040196Y003533D02*
X041083Y003533D01*
X041083Y003375D02*
X040174Y003375D01*
X039783Y003216D02*
X041083Y003216D01*
X041083Y003058D02*
X039783Y003058D01*
X039783Y002899D02*
X041083Y002899D01*
X041083Y002741D02*
X039768Y002741D01*
X039647Y002582D02*
X040176Y002582D01*
X040550Y002582D02*
X041083Y002582D01*
X041083Y002424D02*
X040900Y002424D01*
X041058Y002265D02*
X041083Y002265D01*
X039827Y002424D02*
X039489Y002424D01*
X039330Y002265D02*
X039668Y002265D01*
X039560Y002107D02*
X039172Y002107D01*
X039013Y001948D02*
X039495Y001948D01*
X039458Y001790D02*
X038855Y001790D01*
X038696Y001631D02*
X039458Y001631D01*
X039470Y001473D02*
X038538Y001473D01*
X038379Y001314D02*
X039535Y001314D01*
X039608Y001156D02*
X038221Y001156D01*
X038062Y000997D02*
X039766Y000997D01*
X038566Y002265D02*
X038293Y002265D01*
X038265Y002424D02*
X038725Y002424D01*
X038883Y002582D02*
X038149Y002582D01*
X037678Y002582D02*
X037013Y002582D01*
X037025Y002611D02*
X036985Y002515D01*
X036878Y002408D01*
X036739Y002350D01*
X036588Y002350D01*
X036448Y002408D01*
X036341Y002515D01*
X036283Y002654D01*
X036283Y002806D01*
X036341Y002945D01*
X036448Y003052D01*
X036523Y003083D01*
X036523Y003585D01*
X036629Y003690D01*
X037658Y003690D01*
X037763Y003585D01*
X037763Y002955D01*
X037658Y002850D01*
X037264Y002850D01*
X037025Y002611D01*
X037155Y002741D02*
X039042Y002741D01*
X039200Y002899D02*
X037707Y002899D01*
X037763Y003058D02*
X039243Y003058D01*
X039243Y003216D02*
X037763Y003216D01*
X037763Y003375D02*
X038993Y003375D01*
X038970Y003533D02*
X037763Y003533D01*
X037748Y003850D02*
X038970Y003850D01*
X038970Y003692D02*
X035743Y003692D01*
X035743Y003533D02*
X036523Y003533D01*
X036523Y003375D02*
X035743Y003375D01*
X035743Y003216D02*
X036523Y003216D01*
X036461Y003058D02*
X035743Y003058D01*
X035698Y002899D02*
X036322Y002899D01*
X036283Y002741D02*
X035698Y002741D01*
X035698Y002582D02*
X036313Y002582D01*
X036432Y002424D02*
X035698Y002424D01*
X035621Y002265D02*
X037417Y002265D01*
X037561Y002424D02*
X036894Y002424D01*
X036919Y002107D02*
X036793Y002107D01*
X036807Y001948D02*
X036919Y001948D01*
X036919Y001790D02*
X036807Y001790D01*
X036919Y001631D02*
X036390Y001631D01*
X036235Y001631D02*
X035241Y001631D01*
X035086Y001631D02*
X033134Y001631D01*
X033134Y001790D02*
X034629Y001790D01*
X034629Y001706D02*
X035086Y001706D01*
X035086Y002124D01*
X034785Y002124D01*
X034739Y002112D01*
X034698Y002088D01*
X034665Y002054D01*
X034641Y002013D01*
X034629Y001967D01*
X034629Y001706D01*
X034629Y001948D02*
X033036Y001948D01*
X033033Y002107D02*
X034731Y002107D01*
X034706Y002265D02*
X033040Y002265D01*
X033281Y002424D02*
X034629Y002424D01*
X034629Y002582D02*
X033380Y002582D01*
X033423Y002741D02*
X034629Y002741D01*
X034629Y002899D02*
X033423Y002899D01*
X033473Y003058D02*
X034629Y003058D01*
X034724Y003216D02*
X033631Y003216D01*
X033790Y003375D02*
X035283Y003375D01*
X035283Y003533D02*
X033948Y003533D01*
X034107Y003692D02*
X035283Y003692D01*
X035093Y003850D02*
X034265Y003850D01*
X034424Y004009D02*
X035093Y004009D01*
X035093Y004167D02*
X034582Y004167D01*
X034741Y004326D02*
X035093Y004326D01*
X034452Y004801D02*
X032217Y004801D01*
X032059Y004960D02*
X036523Y004960D01*
X036523Y005050D02*
X036523Y004826D01*
X036535Y004781D01*
X036559Y004739D01*
X036593Y004706D01*
X036634Y004682D01*
X036680Y004670D01*
X037103Y004670D01*
X037103Y005050D01*
X036523Y005050D01*
X036523Y005130D02*
X037103Y005130D01*
X037103Y005050D01*
X037183Y005050D01*
X037183Y004670D01*
X037607Y004670D01*
X037653Y004682D01*
X037694Y004706D01*
X037727Y004739D01*
X037751Y004781D01*
X037763Y004826D01*
X037763Y005050D01*
X037183Y005050D01*
X037183Y005130D01*
X037103Y005130D01*
X037103Y005510D01*
X036680Y005510D01*
X036634Y005498D01*
X036593Y005474D01*
X036559Y005441D01*
X036535Y005399D01*
X036523Y005354D01*
X036523Y005130D01*
X036523Y005277D02*
X031742Y005277D01*
X031583Y005435D02*
X036556Y005435D01*
X037103Y005435D02*
X037183Y005435D01*
X037183Y005510D02*
X037183Y005130D01*
X037763Y005130D01*
X037763Y005354D01*
X037751Y005399D01*
X037727Y005441D01*
X037694Y005474D01*
X037653Y005498D01*
X037607Y005510D01*
X037183Y005510D01*
X037183Y005277D02*
X037103Y005277D01*
X037103Y005118D02*
X031900Y005118D01*
X031567Y004801D02*
X027543Y004801D01*
X027543Y004643D02*
X031725Y004643D01*
X031884Y004484D02*
X027543Y004484D01*
X027434Y004326D02*
X029674Y004326D01*
X029648Y004317D02*
X029570Y004277D01*
X029498Y004225D01*
X029436Y004163D01*
X029384Y004092D01*
X029344Y004013D01*
X029317Y003929D01*
X029303Y003842D01*
X029303Y003818D01*
X029843Y003818D01*
X029843Y004358D01*
X029819Y004358D01*
X029732Y004344D01*
X029648Y004317D01*
X029843Y004326D02*
X029883Y004326D01*
X029883Y004167D02*
X029843Y004167D01*
X029843Y004009D02*
X029883Y004009D01*
X029883Y003850D02*
X029843Y003850D01*
X029440Y004167D02*
X027276Y004167D01*
X027543Y004960D02*
X031408Y004960D01*
X031250Y005118D02*
X027543Y005118D01*
X027543Y005277D02*
X031091Y005277D01*
X030933Y005435D02*
X027543Y005435D01*
X027543Y005594D02*
X030774Y005594D01*
X030616Y005752D02*
X027543Y005752D01*
X027543Y005911D02*
X030457Y005911D01*
X030299Y006069D02*
X027543Y006069D01*
X027543Y006228D02*
X030140Y006228D01*
X029982Y006386D02*
X027543Y006386D01*
X027543Y006545D02*
X029823Y006545D01*
X029665Y006703D02*
X027543Y006703D01*
X027543Y006862D02*
X029506Y006862D01*
X029348Y007020D02*
X027543Y007020D01*
X027543Y007179D02*
X029189Y007179D01*
X029031Y007337D02*
X027543Y007337D01*
X027083Y007337D02*
X026096Y007337D01*
X026074Y007190D02*
X025992Y007216D01*
X025977Y007219D01*
X026590Y007831D01*
X026681Y007740D01*
X027045Y007740D01*
X027083Y007778D01*
X027083Y005082D01*
X027045Y005120D01*
X026681Y005120D01*
X026590Y005029D01*
X025879Y005739D01*
X025913Y005821D01*
X025913Y006039D01*
X025876Y006130D01*
X025907Y006130D01*
X025992Y006144D01*
X026074Y006170D01*
X026151Y006210D01*
X026222Y006260D01*
X026283Y006322D01*
X026334Y006392D01*
X026373Y006469D01*
X026400Y006551D01*
X026413Y006637D01*
X026413Y006680D01*
X026413Y006723D01*
X026400Y006809D01*
X026373Y006891D01*
X026334Y006968D01*
X026283Y007038D01*
X026222Y007100D01*
X026151Y007150D01*
X026074Y007190D01*
X026096Y007179D02*
X027083Y007179D01*
X027083Y007020D02*
X026296Y007020D01*
X026383Y006862D02*
X027083Y006862D01*
X027083Y006703D02*
X026413Y006703D01*
X026413Y006680D02*
X025863Y006680D01*
X025863Y006680D01*
X026413Y006680D01*
X026398Y006545D02*
X027083Y006545D01*
X027083Y006386D02*
X026329Y006386D01*
X026176Y006228D02*
X027083Y006228D01*
X027083Y006069D02*
X025901Y006069D01*
X025913Y005911D02*
X027083Y005911D01*
X027083Y005752D02*
X025885Y005752D01*
X026025Y005594D02*
X027083Y005594D01*
X027083Y005435D02*
X026183Y005435D01*
X026342Y005277D02*
X027083Y005277D01*
X027083Y005118D02*
X027047Y005118D01*
X026679Y005118D02*
X026500Y005118D01*
X026167Y004801D02*
X024303Y004801D01*
X024303Y004643D02*
X026325Y004643D01*
X026437Y004484D02*
X024289Y004484D01*
X024206Y004960D02*
X026008Y004960D01*
X025850Y005118D02*
X024093Y005118D01*
X024093Y005277D02*
X025691Y005277D01*
X025121Y005435D02*
X024093Y005435D01*
X024025Y005594D02*
X024922Y005594D01*
X024842Y005752D02*
X023866Y005752D01*
X023708Y005911D02*
X024813Y005911D01*
X024825Y006069D02*
X023549Y006069D01*
X023391Y006228D02*
X024538Y006228D01*
X024390Y006386D02*
X023232Y006386D01*
X023074Y006545D02*
X024324Y006545D01*
X024313Y006703D02*
X022915Y006703D01*
X022757Y006862D02*
X024343Y006862D01*
X024425Y007020D02*
X022598Y007020D01*
X022440Y007179D02*
X024019Y007179D01*
X024088Y007150D02*
X024239Y007150D01*
X024378Y007208D01*
X024485Y007315D01*
X024543Y007454D01*
X024543Y007606D01*
X024536Y007622D01*
X025932Y009018D01*
X026028Y009058D01*
X026135Y009165D01*
X026193Y009304D01*
X026193Y009456D01*
X026135Y009595D01*
X026028Y009702D01*
X025889Y009760D01*
X025738Y009760D01*
X025598Y009702D01*
X025491Y009595D01*
X025451Y009499D01*
X024303Y008351D01*
X024303Y008362D01*
X024045Y008620D01*
X023863Y008620D01*
X023681Y008620D01*
X023423Y008362D01*
X023423Y008180D01*
X023863Y008180D01*
X023423Y008180D01*
X023423Y007998D01*
X023681Y007740D01*
X023823Y007740D01*
X023823Y007702D01*
X023783Y007606D01*
X023783Y007454D01*
X023841Y007315D01*
X023948Y007208D01*
X024088Y007150D01*
X024308Y007179D02*
X024630Y007179D01*
X024495Y007337D02*
X025445Y007337D01*
X025603Y007496D02*
X024543Y007496D01*
X024568Y007654D02*
X025762Y007654D01*
X025920Y007813D02*
X024727Y007813D01*
X024885Y007971D02*
X026079Y007971D01*
X026237Y008130D02*
X025044Y008130D01*
X025202Y008288D02*
X026396Y008288D01*
X026507Y008447D02*
X025361Y008447D01*
X025519Y008605D02*
X026633Y008605D01*
X026633Y008764D02*
X025678Y008764D01*
X025836Y008922D02*
X026499Y008922D01*
X026423Y009081D02*
X026051Y009081D01*
X026166Y009239D02*
X026423Y009239D01*
X026458Y009398D02*
X026193Y009398D01*
X026152Y009556D02*
X026617Y009556D01*
X026633Y009715D02*
X025999Y009715D01*
X025628Y009715D02*
X019643Y009715D01*
X019643Y009873D02*
X026633Y009873D01*
X026633Y010349D02*
X023654Y010349D01*
X023803Y010507D02*
X026633Y010507D01*
X026633Y010666D02*
X023803Y010666D01*
X023803Y010824D02*
X026633Y010824D01*
X027543Y010824D02*
X035133Y010824D01*
X035133Y010666D02*
X027543Y010666D01*
X027543Y010507D02*
X035211Y010507D01*
X035268Y010450D02*
X035268Y010450D01*
X035369Y010349D02*
X027543Y010349D01*
X027543Y010190D02*
X035528Y010190D01*
X035686Y010032D02*
X027543Y010032D01*
X027543Y009873D02*
X035845Y009873D01*
X035923Y009715D02*
X027543Y009715D01*
X027543Y009556D02*
X035923Y009556D01*
X036023Y009398D02*
X027543Y009398D01*
X027543Y009239D02*
X037079Y009239D01*
X037237Y009081D02*
X036585Y009081D01*
X036545Y009120D02*
X036363Y009120D01*
X036181Y009120D01*
X035923Y008862D01*
X035923Y008680D01*
X035923Y008498D01*
X036181Y008240D01*
X036363Y008240D01*
X036363Y008680D01*
X035923Y008680D01*
X036363Y008680D01*
X036363Y008680D01*
X036363Y009120D01*
X036363Y008680D01*
X036363Y008680D01*
X036363Y008680D01*
X036363Y008240D01*
X036545Y008240D01*
X036803Y008498D01*
X036803Y008680D01*
X036803Y008862D01*
X036545Y009120D01*
X036363Y009081D02*
X036363Y009081D01*
X036363Y008922D02*
X036363Y008922D01*
X036363Y008764D02*
X036363Y008764D01*
X036363Y008680D02*
X036803Y008680D01*
X036363Y008680D01*
X036363Y008680D01*
X036363Y008605D02*
X036363Y008605D01*
X036363Y008447D02*
X036363Y008447D01*
X036363Y008288D02*
X036363Y008288D01*
X036133Y008288D02*
X035593Y008288D01*
X035545Y008240D02*
X035803Y008498D01*
X035803Y008680D01*
X035803Y008862D01*
X035545Y009120D01*
X035363Y009120D01*
X035181Y009120D01*
X034923Y008862D01*
X034923Y008680D01*
X034923Y008498D01*
X035181Y008240D01*
X035363Y008240D01*
X035363Y008680D01*
X034923Y008680D01*
X035363Y008680D01*
X035363Y008680D01*
X035363Y009120D01*
X035363Y008680D01*
X035363Y008680D01*
X035363Y008680D01*
X035363Y008240D01*
X035545Y008240D01*
X035363Y008288D02*
X035363Y008288D01*
X035363Y008447D02*
X035363Y008447D01*
X035363Y008605D02*
X035363Y008605D01*
X035363Y008680D02*
X035363Y008680D01*
X035803Y008680D01*
X035363Y008680D01*
X035363Y008764D02*
X035363Y008764D01*
X035363Y008922D02*
X035363Y008922D01*
X035363Y009081D02*
X035363Y009081D01*
X035141Y009081D02*
X027543Y009081D01*
X027543Y008922D02*
X034983Y008922D01*
X034923Y008764D02*
X027543Y008764D01*
X027543Y008605D02*
X034923Y008605D01*
X034974Y008447D02*
X027543Y008447D01*
X027543Y008288D02*
X035133Y008288D01*
X035752Y008447D02*
X035974Y008447D01*
X035923Y008605D02*
X035803Y008605D01*
X035803Y008764D02*
X035923Y008764D01*
X035983Y008922D02*
X035743Y008922D01*
X035585Y009081D02*
X036141Y009081D01*
X036743Y008922D02*
X037396Y008922D01*
X037423Y008764D02*
X036803Y008764D01*
X036803Y008605D02*
X037423Y008605D01*
X037474Y008447D02*
X036752Y008447D01*
X036593Y008288D02*
X037633Y008288D01*
X038093Y008288D02*
X038633Y008288D01*
X038681Y008240D02*
X038863Y008240D01*
X038863Y008680D01*
X038423Y008680D01*
X038863Y008680D01*
X038863Y008680D01*
X038863Y008680D01*
X038863Y009120D01*
X038681Y009120D01*
X038423Y008862D01*
X038423Y008680D01*
X038423Y008498D01*
X038681Y008240D01*
X038863Y008240D02*
X038863Y008680D01*
X038863Y008680D01*
X038863Y009120D01*
X039045Y009120D01*
X039303Y008862D01*
X039303Y008680D01*
X038863Y008680D01*
X038863Y008680D01*
X039303Y008680D01*
X039303Y008498D01*
X039045Y008240D01*
X038863Y008240D01*
X038863Y008288D02*
X038863Y008288D01*
X038863Y008447D02*
X038863Y008447D01*
X038863Y008605D02*
X038863Y008605D01*
X038863Y008764D02*
X038863Y008764D01*
X038863Y008922D02*
X038863Y008922D01*
X038863Y009081D02*
X038863Y009081D01*
X038641Y009081D02*
X038085Y009081D01*
X038243Y008922D02*
X038483Y008922D01*
X038423Y008764D02*
X038303Y008764D01*
X038303Y008605D02*
X038423Y008605D01*
X038474Y008447D02*
X038252Y008447D01*
X039093Y008288D02*
X040543Y008288D01*
X040543Y008130D02*
X027543Y008130D01*
X027543Y007971D02*
X028667Y007971D01*
X028586Y007813D02*
X027543Y007813D01*
X027083Y007654D02*
X026413Y007654D01*
X026571Y007813D02*
X026608Y007813D01*
X026254Y007496D02*
X027083Y007496D01*
X028583Y007654D02*
X028641Y007515D01*
X029260Y007971D02*
X040543Y007971D01*
X040543Y007813D02*
X029340Y007813D01*
X029364Y007654D02*
X040543Y007654D01*
X040543Y007496D02*
X029523Y007496D01*
X029681Y007337D02*
X040543Y007337D01*
X040543Y007179D02*
X029840Y007179D01*
X029998Y007020D02*
X040543Y007020D01*
X040543Y006862D02*
X030157Y006862D01*
X030315Y006703D02*
X040543Y006703D01*
X040543Y006545D02*
X030474Y006545D01*
X030632Y006386D02*
X040543Y006386D01*
X040543Y006228D02*
X030791Y006228D01*
X030949Y006069D02*
X040543Y006069D01*
X040543Y005911D02*
X031108Y005911D01*
X031266Y005752D02*
X040543Y005752D01*
X040543Y005594D02*
X031425Y005594D01*
X032376Y004643D02*
X034294Y004643D01*
X034135Y004484D02*
X032534Y004484D01*
X033053Y004326D02*
X033977Y004326D01*
X033818Y004167D02*
X033286Y004167D01*
X033382Y004009D02*
X033660Y004009D01*
X033501Y003850D02*
X033423Y003850D01*
X031673Y004326D02*
X031053Y004326D01*
X031286Y004167D02*
X031440Y004167D01*
X030673Y004326D02*
X030052Y004326D01*
X030286Y004167D02*
X030440Y004167D01*
X029343Y004009D02*
X029010Y004009D01*
X029168Y003850D02*
X029304Y003850D01*
X028835Y003533D02*
X019435Y003533D01*
X019277Y003692D02*
X028676Y003692D01*
X028993Y003375D02*
X026648Y003375D01*
X026785Y003216D02*
X029152Y003216D01*
X029310Y003058D02*
X026843Y003058D01*
X026843Y002899D02*
X029303Y002899D01*
X029303Y002741D02*
X026843Y002741D01*
X026843Y002582D02*
X029347Y002582D01*
X029446Y002424D02*
X026843Y002424D01*
X026835Y002265D02*
X029687Y002265D01*
X029691Y001948D02*
X026843Y001948D01*
X026830Y002107D02*
X030483Y002107D01*
X030483Y002265D02*
X030040Y002265D01*
X030281Y002424D02*
X030446Y002424D01*
X026079Y003375D02*
X025648Y003375D01*
X025785Y003216D02*
X025941Y003216D01*
X025883Y003058D02*
X025843Y003058D01*
X025843Y002899D02*
X025883Y002899D01*
X025883Y002741D02*
X025843Y002741D01*
X025843Y002582D02*
X025883Y002582D01*
X025883Y002424D02*
X025843Y002424D01*
X025835Y002265D02*
X025891Y002265D01*
X025896Y002107D02*
X025830Y002107D01*
X025843Y001948D02*
X025883Y001948D01*
X025883Y001790D02*
X025843Y001790D01*
X025843Y001631D02*
X025883Y001631D01*
X025883Y001473D02*
X025843Y001473D01*
X025843Y001314D02*
X025883Y001314D01*
X025937Y001156D02*
X025790Y001156D01*
X025659Y000997D02*
X026067Y000997D01*
X025067Y000997D02*
X024659Y000997D01*
X024790Y001156D02*
X024937Y001156D01*
X024883Y001314D02*
X024843Y001314D01*
X024843Y001473D02*
X024883Y001473D01*
X024883Y001631D02*
X024843Y001631D01*
X024843Y001790D02*
X024883Y001790D01*
X024883Y001948D02*
X024843Y001948D01*
X024830Y002107D02*
X024896Y002107D01*
X024891Y002265D02*
X024835Y002265D01*
X024843Y002424D02*
X024883Y002424D01*
X024883Y002582D02*
X024843Y002582D01*
X024843Y002741D02*
X024883Y002741D01*
X024883Y002899D02*
X024843Y002899D01*
X024843Y003058D02*
X024883Y003058D01*
X024941Y003216D02*
X024785Y003216D01*
X024648Y003375D02*
X025079Y003375D01*
X024079Y003375D02*
X023637Y003375D01*
X023615Y003391D02*
X023547Y003425D01*
X023476Y003448D01*
X023401Y003460D01*
X023383Y003460D01*
X023383Y002700D01*
X023343Y002700D01*
X023343Y002660D01*
X022883Y002660D01*
X022883Y002342D01*
X022895Y002268D01*
X022918Y002196D01*
X022926Y002180D01*
X022918Y002164D01*
X022895Y002092D01*
X022883Y002018D01*
X022883Y001700D01*
X023343Y001700D01*
X023343Y002660D01*
X023383Y002660D01*
X023383Y001900D01*
X023383Y001700D01*
X023843Y001700D01*
X023843Y002018D01*
X023831Y002092D01*
X023808Y002164D01*
X023800Y002180D01*
X023808Y002196D01*
X023831Y002268D01*
X023843Y002342D01*
X023843Y002660D01*
X023383Y002660D01*
X023383Y002700D01*
X023843Y002700D01*
X023843Y003018D01*
X023831Y003092D01*
X023808Y003164D01*
X023774Y003232D01*
X023729Y003293D01*
X023676Y003346D01*
X023615Y003391D01*
X023383Y003375D02*
X023343Y003375D01*
X023343Y003460D02*
X023325Y003460D01*
X023251Y003448D01*
X023179Y003425D01*
X023112Y003391D01*
X023051Y003346D01*
X022997Y003293D01*
X022953Y003232D01*
X022918Y003164D01*
X022895Y003092D01*
X022883Y003018D01*
X022883Y002700D01*
X023343Y002700D01*
X023343Y003460D01*
X023343Y003216D02*
X023383Y003216D01*
X023383Y003058D02*
X023343Y003058D01*
X023343Y002899D02*
X023383Y002899D01*
X023383Y002741D02*
X023343Y002741D01*
X023343Y002582D02*
X023383Y002582D01*
X023383Y002424D02*
X023343Y002424D01*
X023343Y002265D02*
X023383Y002265D01*
X023383Y002107D02*
X023343Y002107D01*
X023343Y001948D02*
X023383Y001948D01*
X023383Y001790D02*
X023343Y001790D01*
X022883Y001790D02*
X022843Y001790D01*
X022843Y001948D02*
X022883Y001948D01*
X022900Y002107D02*
X022830Y002107D01*
X022835Y002265D02*
X022896Y002265D01*
X022883Y002424D02*
X022843Y002424D01*
X022843Y002582D02*
X022883Y002582D01*
X022883Y002741D02*
X022843Y002741D01*
X022843Y002899D02*
X022883Y002899D01*
X022890Y003058D02*
X022843Y003058D01*
X022785Y003216D02*
X022945Y003216D01*
X023090Y003375D02*
X022648Y003375D01*
X022079Y003375D02*
X019593Y003375D01*
X019593Y003216D02*
X021941Y003216D01*
X021883Y003058D02*
X020665Y003058D01*
X020562Y003160D02*
X020843Y002879D01*
X020843Y002700D01*
X020383Y002700D01*
X020343Y002700D01*
X020343Y002660D01*
X019883Y002660D01*
X019883Y002481D01*
X020164Y002200D01*
X020343Y002200D01*
X020343Y002660D01*
X020383Y002660D01*
X020383Y002200D01*
X020562Y002200D01*
X020843Y002481D01*
X020843Y002660D01*
X020383Y002660D01*
X020383Y002700D01*
X020383Y003160D01*
X020562Y003160D01*
X020383Y003058D02*
X020343Y003058D01*
X020343Y003160D02*
X020164Y003160D01*
X019883Y002879D01*
X019883Y002700D01*
X020343Y002700D01*
X020343Y003160D01*
X020343Y002899D02*
X020383Y002899D01*
X020383Y002741D02*
X020343Y002741D01*
X020343Y002582D02*
X020383Y002582D01*
X020383Y002424D02*
X020343Y002424D01*
X020343Y002265D02*
X020383Y002265D01*
X020627Y002265D02*
X021891Y002265D01*
X021896Y002107D02*
X020616Y002107D01*
X020774Y001948D02*
X020992Y001948D01*
X020786Y002424D02*
X021883Y002424D01*
X021883Y002582D02*
X020843Y002582D01*
X020843Y002741D02*
X021883Y002741D01*
X021883Y002899D02*
X020823Y002899D01*
X020062Y003058D02*
X019665Y003058D01*
X019823Y002899D02*
X019903Y002899D01*
X019883Y002741D02*
X019843Y002741D01*
X019843Y002582D02*
X019883Y002582D01*
X019941Y002424D02*
X019786Y002424D01*
X019627Y002265D02*
X020099Y002265D01*
X020111Y002107D02*
X019616Y002107D01*
X019774Y001948D02*
X019952Y001948D01*
X019883Y001790D02*
X019843Y001790D01*
X019843Y001631D02*
X019883Y001631D01*
X019892Y001473D02*
X019835Y001473D01*
X017955Y001948D02*
X017320Y001948D01*
X016067Y004801D02*
X014358Y004801D01*
X014508Y004960D02*
X015933Y004960D01*
X015933Y005118D02*
X014563Y005118D01*
X014560Y005277D02*
X015933Y005277D01*
X015943Y005435D02*
X014490Y005435D01*
X014275Y005594D02*
X016101Y005594D01*
X016260Y005752D02*
X014240Y005752D01*
X014476Y005911D02*
X016250Y005911D01*
X016173Y006069D02*
X014554Y006069D01*
X014563Y006228D02*
X016163Y006228D01*
X016212Y006386D02*
X014514Y006386D01*
X014381Y006545D02*
X016173Y006545D01*
X016015Y006703D02*
X010465Y006703D01*
X010307Y006862D02*
X012559Y006862D01*
X012681Y006740D02*
X013045Y006740D01*
X013233Y006928D01*
X013354Y006807D01*
X013516Y006740D01*
X014211Y006740D01*
X014372Y006807D01*
X014496Y006931D01*
X014563Y007092D01*
X014563Y007268D01*
X014496Y007429D01*
X014372Y007553D01*
X014211Y007620D01*
X013516Y007620D01*
X013354Y007553D01*
X013233Y007432D01*
X013045Y007620D01*
X012681Y007620D01*
X012423Y007362D01*
X012423Y006998D01*
X012681Y006740D01*
X012423Y007020D02*
X010148Y007020D01*
X009990Y007179D02*
X012423Y007179D01*
X012423Y007337D02*
X009831Y007337D01*
X009673Y007496D02*
X012556Y007496D01*
X012608Y007813D02*
X009695Y007813D01*
X009843Y007971D02*
X012450Y007971D01*
X012423Y008130D02*
X009843Y008130D01*
X009843Y008180D02*
X009843Y008359D01*
X009562Y008640D01*
X009383Y008640D01*
X009383Y008180D01*
X009843Y008180D01*
X009843Y008288D02*
X012423Y008288D01*
X012507Y008447D02*
X009756Y008447D01*
X009597Y008605D02*
X011613Y008605D01*
X011454Y008764D02*
X009043Y008764D01*
X009043Y008605D02*
X009129Y008605D01*
X009343Y008605D02*
X009383Y008605D01*
X009383Y008447D02*
X009343Y008447D01*
X009343Y008288D02*
X009383Y008288D01*
X009514Y007654D02*
X015933Y007654D01*
X015933Y007496D02*
X014430Y007496D01*
X014534Y007337D02*
X015933Y007337D01*
X015933Y007179D02*
X014563Y007179D01*
X014533Y007020D02*
X015933Y007020D01*
X015933Y006862D02*
X014427Y006862D01*
X013345Y006545D02*
X010624Y006545D01*
X010782Y006386D02*
X013212Y006386D01*
X013163Y006228D02*
X010941Y006228D01*
X011099Y006069D02*
X012630Y006069D01*
X012471Y005911D02*
X011258Y005911D01*
X011416Y005752D02*
X012423Y005752D01*
X012423Y005594D02*
X011575Y005594D01*
X011733Y005435D02*
X012486Y005435D01*
X013096Y006069D02*
X013173Y006069D01*
X013167Y006862D02*
X013299Y006862D01*
X013296Y007496D02*
X013170Y007496D01*
X013118Y007813D02*
X013348Y007813D01*
X014378Y007813D02*
X015933Y007813D01*
X015933Y007971D02*
X014513Y007971D01*
X014563Y008130D02*
X015933Y008130D01*
X015933Y008288D02*
X014555Y008288D01*
X014479Y008447D02*
X015954Y008447D01*
X016113Y008605D02*
X014464Y008605D01*
X014622Y008764D02*
X016271Y008764D01*
X016239Y008922D02*
X014781Y008922D01*
X014458Y009760D02*
X014393Y009825D01*
X014392Y009827D01*
X014496Y009931D01*
X014563Y010092D01*
X014563Y010268D01*
X014496Y010429D01*
X014392Y010533D01*
X015958Y012100D01*
X016093Y012235D01*
X016093Y012288D01*
X016303Y012498D01*
X016303Y012862D01*
X016215Y012950D01*
X016511Y012950D01*
X016423Y012862D01*
X016423Y012680D01*
X016863Y012680D01*
X016423Y012680D01*
X016423Y012498D01*
X016681Y012240D01*
X016863Y012240D01*
X016863Y012680D01*
X016863Y012680D01*
X016863Y012680D01*
X016863Y012240D01*
X017045Y012240D01*
X017303Y012498D01*
X017303Y012515D01*
X018083Y011735D01*
X018083Y011582D01*
X018045Y011620D01*
X017681Y011620D01*
X017581Y011520D01*
X017405Y011520D01*
X017372Y011553D01*
X017211Y011620D01*
X016516Y011620D01*
X016354Y011553D01*
X016230Y011429D01*
X016163Y011268D01*
X016163Y011092D01*
X016230Y010931D01*
X016354Y010807D01*
X016516Y010740D01*
X017211Y010740D01*
X017372Y010807D01*
X017405Y010840D01*
X017581Y010840D01*
X017681Y010740D01*
X018045Y010740D01*
X018083Y010778D01*
X018083Y010582D01*
X018045Y010620D01*
X017863Y010620D01*
X017681Y010620D01*
X017488Y010427D01*
X017459Y010467D01*
X017410Y010516D01*
X017354Y010556D01*
X017292Y010588D01*
X017226Y010609D01*
X017158Y010620D01*
X016863Y010620D01*
X016569Y010620D01*
X016500Y010609D01*
X016434Y010588D01*
X016373Y010556D01*
X016317Y010516D01*
X016268Y010467D01*
X016227Y010411D01*
X016203Y010363D01*
X016089Y010410D01*
X015938Y010410D01*
X015798Y010352D01*
X015691Y010245D01*
X015633Y010106D01*
X015633Y009954D01*
X015672Y009862D01*
X015648Y009852D01*
X015556Y009760D01*
X014458Y009760D01*
X014438Y009873D02*
X015667Y009873D01*
X015633Y010032D02*
X014538Y010032D01*
X014563Y010190D02*
X015668Y010190D01*
X015794Y010349D02*
X014530Y010349D01*
X014418Y010507D02*
X016308Y010507D01*
X016337Y010824D02*
X014683Y010824D01*
X014841Y010983D02*
X016209Y010983D01*
X016163Y011141D02*
X015000Y011141D01*
X015158Y011300D02*
X016176Y011300D01*
X016259Y011458D02*
X015317Y011458D01*
X015475Y011617D02*
X016507Y011617D01*
X015951Y012092D02*
X017726Y012092D01*
X017884Y011934D02*
X015792Y011934D01*
X015634Y011775D02*
X018043Y011775D01*
X018049Y011617D02*
X018083Y011617D01*
X017677Y011617D02*
X017219Y011617D01*
X017056Y012251D02*
X017567Y012251D01*
X017409Y012409D02*
X017214Y012409D01*
X016863Y012409D02*
X016863Y012409D01*
X016863Y012251D02*
X016863Y012251D01*
X016670Y012251D02*
X016093Y012251D01*
X016214Y012409D02*
X016512Y012409D01*
X016423Y012568D02*
X016303Y012568D01*
X016303Y012726D02*
X016423Y012726D01*
X016445Y012885D02*
X016281Y012885D01*
X016863Y012568D02*
X016863Y012568D01*
X017389Y010824D02*
X017597Y010824D01*
X017568Y010507D02*
X017418Y010507D01*
X017423Y010180D02*
X016863Y010180D01*
X016863Y010620D01*
X016863Y010180D01*
X016863Y010180D01*
X016863Y010180D01*
X017863Y010180D01*
X017863Y010180D01*
X017423Y010180D01*
X017488Y009933D02*
X017681Y009740D01*
X017863Y009740D01*
X017863Y010180D01*
X017863Y010620D01*
X017863Y010180D01*
X017863Y010180D01*
X017863Y010180D01*
X017863Y009740D01*
X018045Y009740D01*
X018083Y009778D01*
X018083Y009575D01*
X017793Y009285D01*
X017793Y009425D01*
X017658Y009560D01*
X017389Y009829D01*
X017410Y009844D01*
X017459Y009893D01*
X017488Y009933D01*
X017438Y009873D02*
X017548Y009873D01*
X017504Y009715D02*
X018083Y009715D01*
X018064Y009556D02*
X017662Y009556D01*
X017793Y009398D02*
X017905Y009398D01*
X017863Y009873D02*
X017863Y009873D01*
X017863Y010032D02*
X017863Y010032D01*
X017863Y010190D02*
X017863Y010190D01*
X017863Y010349D02*
X017863Y010349D01*
X017863Y010507D02*
X017863Y010507D01*
X018083Y010666D02*
X014524Y010666D01*
X016863Y010507D02*
X016863Y010507D01*
X016863Y010349D02*
X016863Y010349D01*
X016863Y010190D02*
X016863Y010190D01*
X019740Y010032D02*
X021136Y010032D01*
X020978Y010190D02*
X019899Y010190D01*
X020057Y010349D02*
X020819Y010349D01*
X020783Y010507D02*
X020216Y010507D01*
X020374Y010666D02*
X020783Y010666D01*
X020783Y010824D02*
X020533Y010824D01*
X020691Y010983D02*
X020890Y010983D01*
X020850Y011141D02*
X021049Y011141D01*
X023109Y009556D02*
X023617Y009556D01*
X024109Y009556D02*
X025475Y009556D01*
X025350Y009398D02*
X024268Y009398D01*
X024303Y009239D02*
X025191Y009239D01*
X025033Y009081D02*
X024303Y009081D01*
X024227Y008922D02*
X024874Y008922D01*
X024716Y008764D02*
X024069Y008764D01*
X024060Y008605D02*
X024557Y008605D01*
X024399Y008447D02*
X024219Y008447D01*
X023863Y008447D02*
X023863Y008447D01*
X023863Y008605D02*
X023863Y008605D01*
X023863Y008620D02*
X023863Y008180D01*
X023863Y008180D01*
X023863Y008180D01*
X023863Y008620D01*
X023666Y008605D02*
X023060Y008605D01*
X023045Y008620D02*
X022863Y008620D01*
X022863Y008180D01*
X022863Y008180D01*
X022863Y007740D01*
X023045Y007740D01*
X023303Y007998D01*
X023303Y008180D01*
X023303Y008362D01*
X023045Y008620D01*
X023069Y008764D02*
X023657Y008764D01*
X023507Y008447D02*
X023219Y008447D01*
X023303Y008288D02*
X023423Y008288D01*
X023423Y008130D02*
X023303Y008130D01*
X023303Y008180D02*
X022863Y008180D01*
X023303Y008180D01*
X023276Y007971D02*
X023450Y007971D01*
X023608Y007813D02*
X023118Y007813D01*
X022863Y007813D02*
X022863Y007813D01*
X022863Y007971D02*
X022863Y007971D01*
X022863Y008130D02*
X022863Y008130D01*
X022863Y008180D02*
X022863Y008180D01*
X022863Y008288D02*
X022863Y008288D01*
X022863Y008447D02*
X022863Y008447D01*
X022863Y008605D02*
X022863Y008605D01*
X022608Y007813D02*
X021806Y007813D01*
X021964Y007654D02*
X023803Y007654D01*
X023783Y007496D02*
X022123Y007496D01*
X022281Y007337D02*
X023832Y007337D01*
X023863Y008288D02*
X023863Y008288D01*
X025097Y007179D02*
X025286Y007179D01*
X027543Y010983D02*
X035133Y010983D01*
X035133Y011141D02*
X027543Y011141D01*
X027543Y011300D02*
X035121Y011300D01*
X034963Y011458D02*
X027543Y011458D01*
X027543Y011617D02*
X034923Y011617D01*
X034923Y011775D02*
X027543Y011775D01*
X027543Y011934D02*
X034994Y011934D01*
X035153Y012092D02*
X027543Y012092D01*
X027083Y012092D02*
X026626Y012092D01*
X026785Y011934D02*
X027083Y011934D01*
X027083Y011775D02*
X026943Y011775D01*
X024931Y011775D02*
X024184Y011775D01*
X024342Y011934D02*
X024729Y011934D01*
X017308Y017500D02*
X017268Y017460D01*
X016518Y017460D01*
X014856Y015798D01*
X014787Y015963D01*
X014646Y016104D01*
X014463Y016180D01*
X014646Y016256D01*
X014787Y016397D01*
X014863Y016581D01*
X014863Y016779D01*
X014787Y016963D01*
X014646Y017104D01*
X014463Y017180D01*
X014264Y017180D01*
X014080Y017104D01*
X013939Y016963D01*
X013863Y016779D01*
X013863Y016581D01*
X013939Y016397D01*
X014080Y016256D01*
X014264Y016180D01*
X014463Y016180D01*
X014264Y016180D01*
X014080Y016104D01*
X013939Y015963D01*
X013863Y015779D01*
X013863Y015581D01*
X013885Y015527D01*
X013768Y015410D01*
X011793Y015410D01*
X011863Y015581D01*
X011863Y015779D01*
X011787Y015963D01*
X011646Y016104D01*
X011463Y016180D01*
X011646Y016256D01*
X011787Y016397D01*
X011863Y016581D01*
X011863Y016779D01*
X011787Y016963D01*
X011646Y017104D01*
X011463Y017180D01*
X011264Y017180D01*
X011080Y017104D01*
X010939Y016963D01*
X010863Y016779D01*
X010863Y016581D01*
X010939Y016397D01*
X011080Y016256D01*
X011264Y016180D01*
X011463Y016180D01*
X011264Y016180D01*
X011080Y016104D01*
X010939Y015963D01*
X010863Y015779D01*
X010863Y015581D01*
X010934Y015410D01*
X009682Y015410D01*
X009843Y015571D01*
X009843Y015969D01*
X009762Y016050D01*
X009889Y016050D01*
X010028Y016108D01*
X010135Y016215D01*
X010193Y016354D01*
X010193Y016506D01*
X010135Y016645D01*
X010043Y016737D01*
X010043Y018378D01*
X010181Y018240D01*
X010363Y018240D01*
X010363Y018680D01*
X010363Y019120D01*
X010181Y019120D01*
X010043Y018982D01*
X010043Y019378D01*
X010181Y019240D01*
X010545Y019240D01*
X010645Y019340D01*
X010996Y019340D01*
X011080Y019256D01*
X011264Y019180D01*
X011463Y019180D01*
X011646Y019256D01*
X011680Y019290D01*
X012122Y019290D01*
X013885Y017527D01*
X013939Y017397D01*
X014080Y017256D01*
X014264Y017180D01*
X014463Y017180D01*
X014646Y017256D01*
X014787Y017397D01*
X014863Y017581D01*
X014863Y017755D01*
X014983Y017635D01*
X015118Y017500D01*
X017308Y017500D01*
X017289Y017481D02*
X014822Y017481D01*
X014863Y017640D02*
X014978Y017640D01*
X014713Y017323D02*
X016380Y017323D01*
X016222Y017164D02*
X014501Y017164D01*
X014225Y017164D02*
X011501Y017164D01*
X011463Y017180D02*
X011646Y017256D01*
X011787Y017397D01*
X011863Y017581D01*
X011863Y017779D01*
X011787Y017963D01*
X011646Y018104D01*
X011463Y018180D01*
X011264Y018180D01*
X011080Y018104D01*
X010939Y017963D01*
X010863Y017779D01*
X010863Y017581D01*
X010939Y017397D01*
X011080Y017256D01*
X011264Y017180D01*
X011463Y017180D01*
X011225Y017164D02*
X010043Y017164D01*
X010043Y017006D02*
X010982Y017006D01*
X010891Y016847D02*
X010043Y016847D01*
X010092Y016689D02*
X010863Y016689D01*
X010884Y016530D02*
X010183Y016530D01*
X010193Y016372D02*
X010965Y016372D01*
X011184Y016213D02*
X010134Y016213D01*
X009900Y016055D02*
X011031Y016055D01*
X010912Y015896D02*
X009843Y015896D01*
X009843Y015738D02*
X010863Y015738D01*
X010864Y015579D02*
X009843Y015579D01*
X009693Y015421D02*
X010930Y015421D01*
X010934Y014950D02*
X010863Y014779D01*
X010863Y014581D01*
X010908Y014473D01*
X010878Y014502D01*
X010739Y014560D01*
X010588Y014560D01*
X010448Y014502D01*
X010341Y014395D01*
X010283Y014256D01*
X010283Y014104D01*
X010341Y013965D01*
X010433Y013873D01*
X010433Y011225D01*
X010168Y010960D01*
X010038Y010960D01*
X009898Y010902D01*
X009791Y010795D01*
X009733Y010656D01*
X009733Y010639D01*
X009562Y010810D01*
X009408Y010810D01*
X009278Y010940D01*
X009562Y010940D01*
X009843Y011221D01*
X009843Y011619D01*
X009562Y011900D01*
X009418Y011900D01*
X009288Y012030D01*
X009562Y012030D01*
X009843Y012311D01*
X009843Y012709D01*
X009562Y012990D01*
X009164Y012990D01*
X008883Y012709D01*
X008883Y012435D01*
X008655Y012663D01*
X008843Y012851D01*
X008843Y013249D01*
X008562Y013530D01*
X008164Y013530D01*
X007883Y013249D01*
X007883Y013185D01*
X007693Y013375D01*
X007693Y013925D01*
X007393Y014225D01*
X007319Y014299D01*
X007389Y014368D01*
X007472Y014571D01*
X007472Y014789D01*
X007389Y014992D01*
X007380Y015000D01*
X007618Y015000D01*
X007983Y014635D01*
X008081Y014537D01*
X007883Y014339D01*
X007883Y013941D01*
X008164Y013660D01*
X008562Y013660D01*
X008843Y013941D01*
X008843Y014339D01*
X008682Y014500D01*
X008858Y014500D01*
X008883Y014525D01*
X008883Y014481D01*
X009164Y014200D01*
X009343Y014200D01*
X009343Y014660D01*
X009383Y014660D01*
X009383Y014200D01*
X009562Y014200D01*
X009843Y014481D01*
X009843Y014660D01*
X009383Y014660D01*
X009383Y014700D01*
X009843Y014700D01*
X009843Y014879D01*
X009772Y014950D01*
X010934Y014950D01*
X010932Y014945D02*
X009777Y014945D01*
X009843Y014787D02*
X010866Y014787D01*
X010863Y014628D02*
X009843Y014628D01*
X009832Y014470D02*
X010415Y014470D01*
X010306Y014311D02*
X009673Y014311D01*
X009562Y014070D02*
X009164Y014070D01*
X008883Y013789D01*
X008883Y013391D01*
X009164Y013110D01*
X009562Y013110D01*
X009843Y013391D01*
X009843Y013789D01*
X009562Y014070D01*
X009638Y013994D02*
X010329Y013994D01*
X010283Y014153D02*
X008843Y014153D01*
X008843Y014311D02*
X009053Y014311D01*
X008895Y014470D02*
X008713Y014470D01*
X008843Y013994D02*
X009088Y013994D01*
X008930Y013836D02*
X008738Y013836D01*
X008883Y013677D02*
X008579Y013677D01*
X008574Y013519D02*
X008883Y013519D01*
X008914Y013360D02*
X008732Y013360D01*
X008843Y013202D02*
X009073Y013202D01*
X008843Y013043D02*
X010433Y013043D01*
X010433Y012885D02*
X009668Y012885D01*
X009826Y012726D02*
X010433Y012726D01*
X010433Y012568D02*
X009843Y012568D01*
X009843Y012409D02*
X010433Y012409D01*
X010433Y012251D02*
X009783Y012251D01*
X009624Y012092D02*
X010433Y012092D01*
X010433Y011934D02*
X009385Y011934D01*
X009687Y011775D02*
X010433Y011775D01*
X010433Y011617D02*
X009843Y011617D01*
X009843Y011458D02*
X010433Y011458D01*
X010433Y011300D02*
X009843Y011300D01*
X009763Y011141D02*
X010349Y011141D01*
X010190Y010983D02*
X009605Y010983D01*
X009394Y010824D02*
X009820Y010824D01*
X009737Y010666D02*
X009707Y010666D01*
X009585Y009873D02*
X010406Y009873D01*
X010403Y009715D02*
X009578Y009715D01*
X009736Y009556D02*
X010403Y009556D01*
X010495Y009398D02*
X009843Y009398D01*
X009843Y009239D02*
X010654Y009239D01*
X011137Y009081D02*
X009843Y009081D01*
X009714Y008922D02*
X011296Y008922D01*
X009149Y009715D02*
X009043Y009715D01*
X009043Y009873D02*
X009141Y009873D01*
X008883Y012568D02*
X008751Y012568D01*
X008718Y012726D02*
X008900Y012726D01*
X008843Y012885D02*
X009059Y012885D01*
X009654Y013202D02*
X010433Y013202D01*
X010433Y013360D02*
X009812Y013360D01*
X009843Y013519D02*
X010433Y013519D01*
X010433Y013677D02*
X009843Y013677D01*
X009797Y013836D02*
X010433Y013836D01*
X009383Y014311D02*
X009343Y014311D01*
X009343Y014470D02*
X009383Y014470D01*
X009383Y014628D02*
X009343Y014628D01*
X008014Y014470D02*
X007430Y014470D01*
X007472Y014628D02*
X007990Y014628D01*
X007831Y014787D02*
X007472Y014787D01*
X007408Y014945D02*
X007673Y014945D01*
X007848Y015421D02*
X007885Y015421D01*
X008043Y015579D02*
X007438Y015579D01*
X007472Y015738D02*
X008383Y015738D01*
X008098Y015896D02*
X007466Y015896D01*
X007400Y016055D02*
X007940Y016055D01*
X007883Y016213D02*
X007258Y016213D01*
X007173Y016372D02*
X007883Y016372D01*
X007904Y016530D02*
X007362Y016530D01*
X007445Y016689D02*
X008063Y016689D01*
X008079Y017006D02*
X007454Y017006D01*
X007459Y016990D02*
X007432Y017072D01*
X007393Y017149D01*
X007342Y017219D01*
X007281Y017281D01*
X007211Y017332D01*
X007133Y017371D01*
X007051Y017398D01*
X006966Y017411D01*
X006942Y017411D01*
X006942Y016881D01*
X007472Y016881D01*
X007472Y016904D01*
X007459Y016990D01*
X007382Y017164D02*
X007920Y017164D01*
X007883Y017323D02*
X007223Y017323D01*
X006942Y017323D02*
X006902Y017323D01*
X006902Y017411D02*
X006879Y017411D01*
X006793Y017398D01*
X006711Y017371D01*
X006634Y017332D01*
X006564Y017281D01*
X006503Y017219D01*
X006452Y017149D01*
X006413Y017072D01*
X006386Y016990D01*
X006372Y016904D01*
X006372Y016881D01*
X006902Y016881D01*
X006902Y017411D01*
X006902Y017164D02*
X006942Y017164D01*
X006942Y017006D02*
X006902Y017006D01*
X006902Y016847D02*
X005954Y016847D01*
X006207Y016689D02*
X006400Y016689D01*
X006483Y016530D02*
X006310Y016530D01*
X006354Y016372D02*
X006672Y016372D01*
X006587Y016213D02*
X006354Y016213D01*
X006292Y016055D02*
X006445Y016055D01*
X006379Y015896D02*
X006164Y015896D01*
X006000Y015738D02*
X006372Y015738D01*
X006406Y015579D02*
X006226Y015579D01*
X006318Y015421D02*
X006494Y015421D01*
X006420Y015262D02*
X006354Y015262D01*
X005608Y015738D02*
X005143Y015738D01*
X005143Y015896D02*
X005444Y015896D01*
X005316Y016055D02*
X005143Y016055D01*
X005143Y016213D02*
X005254Y016213D01*
X005254Y016372D02*
X005143Y016372D01*
X005143Y016530D02*
X005298Y016530D01*
X005401Y016689D02*
X005143Y016689D01*
X005143Y016847D02*
X005654Y016847D01*
X005143Y017006D02*
X006391Y017006D01*
X006463Y017164D02*
X005143Y017164D01*
X005143Y017323D02*
X006622Y017323D01*
X006942Y016847D02*
X008583Y016847D01*
X007883Y017481D02*
X005143Y017481D01*
X005143Y017640D02*
X007924Y017640D01*
X008082Y017798D02*
X005143Y017798D01*
X005143Y017957D02*
X008583Y017957D01*
X008049Y018115D02*
X005143Y018115D01*
X005143Y018274D02*
X007891Y018274D01*
X007883Y018432D02*
X006559Y018432D01*
X006519Y018421D02*
X006819Y018502D01*
X007088Y018657D01*
X007307Y018877D01*
X007463Y019146D01*
X007543Y019446D01*
X007543Y019757D01*
X007463Y020057D01*
X007307Y020326D01*
X007088Y020545D01*
X006819Y020701D01*
X006519Y020781D01*
X006208Y020781D01*
X005908Y020701D01*
X005639Y020545D01*
X005419Y020326D01*
X005264Y020057D01*
X005183Y019757D01*
X005183Y019446D01*
X005264Y019146D01*
X005419Y018877D01*
X005639Y018657D01*
X005908Y018502D01*
X006208Y018421D01*
X006519Y018421D01*
X006168Y018432D02*
X005143Y018432D01*
X005143Y018591D02*
X005754Y018591D01*
X005547Y018749D02*
X005143Y018749D01*
X005143Y018908D02*
X005401Y018908D01*
X005310Y019066D02*
X005143Y019066D01*
X005143Y019225D02*
X005243Y019225D01*
X005200Y019383D02*
X005143Y019383D01*
X005143Y019542D02*
X005183Y019542D01*
X005183Y019700D02*
X005143Y019700D01*
X005143Y019859D02*
X005211Y019859D01*
X005253Y020017D02*
X005143Y020017D01*
X005143Y020176D02*
X005332Y020176D01*
X005427Y020334D02*
X005143Y020334D01*
X005143Y020493D02*
X005586Y020493D01*
X005821Y020651D02*
X005143Y020651D01*
X005143Y020810D02*
X007883Y020810D01*
X007883Y020651D02*
X006905Y020651D01*
X007141Y020493D02*
X007883Y020493D01*
X008010Y020334D02*
X007299Y020334D01*
X007394Y020176D02*
X008583Y020176D01*
X008131Y020017D02*
X007473Y020017D01*
X007516Y019859D02*
X007973Y019859D01*
X007883Y019700D02*
X007543Y019700D01*
X007543Y019542D02*
X007883Y019542D01*
X007883Y019383D02*
X007526Y019383D01*
X007484Y019225D02*
X008030Y019225D01*
X008112Y018908D02*
X007325Y018908D01*
X007417Y019066D02*
X008583Y019066D01*
X007953Y018749D02*
X007180Y018749D01*
X006973Y018591D02*
X007883Y018591D01*
X010043Y018274D02*
X010147Y018274D01*
X010043Y018115D02*
X011107Y018115D01*
X011171Y018217D02*
X011246Y018192D01*
X011324Y018180D01*
X011363Y018180D01*
X011363Y018680D01*
X010863Y018680D01*
X010863Y018641D01*
X010876Y018563D01*
X010900Y018488D01*
X010936Y018418D01*
X010982Y018354D01*
X011038Y018299D01*
X011101Y018252D01*
X011171Y018217D01*
X011072Y018274D02*
X010579Y018274D01*
X010545Y018240D02*
X010803Y018498D01*
X010803Y018680D01*
X010803Y018862D01*
X010545Y019120D01*
X010363Y019120D01*
X010363Y018680D01*
X010363Y018680D01*
X010363Y018680D01*
X010363Y018240D01*
X010545Y018240D01*
X010363Y018274D02*
X010363Y018274D01*
X010363Y018432D02*
X010363Y018432D01*
X010363Y018591D02*
X010363Y018591D01*
X010363Y018680D02*
X010363Y018680D01*
X010803Y018680D01*
X010363Y018680D01*
X010363Y018749D02*
X010363Y018749D01*
X010363Y018908D02*
X010363Y018908D01*
X010363Y019066D02*
X010363Y019066D01*
X010127Y019066D02*
X010043Y019066D01*
X010043Y019225D02*
X011156Y019225D01*
X011171Y019143D02*
X011101Y019108D01*
X011038Y019061D01*
X010982Y019006D01*
X010936Y018942D01*
X010900Y018872D01*
X010876Y018797D01*
X010863Y018719D01*
X010863Y018680D01*
X011363Y018680D01*
X011363Y018680D01*
X011363Y018680D01*
X011363Y019180D01*
X011324Y019180D01*
X011246Y019168D01*
X011171Y019143D01*
X011044Y019066D02*
X010599Y019066D01*
X010758Y018908D02*
X010918Y018908D01*
X010868Y018749D02*
X010803Y018749D01*
X010803Y018591D02*
X010871Y018591D01*
X010928Y018432D02*
X010738Y018432D01*
X010937Y017957D02*
X010043Y017957D01*
X010043Y017798D02*
X010871Y017798D01*
X010863Y017640D02*
X010043Y017640D01*
X010043Y017481D02*
X010904Y017481D01*
X011014Y017323D02*
X010043Y017323D01*
X011363Y018180D02*
X011403Y018180D01*
X011480Y018192D01*
X011555Y018217D01*
X011625Y018252D01*
X011689Y018299D01*
X011745Y018354D01*
X011791Y018418D01*
X011827Y018488D01*
X011851Y018563D01*
X011863Y018641D01*
X011863Y018680D01*
X011363Y018680D01*
X011363Y018680D01*
X011363Y018180D01*
X011363Y018274D02*
X011363Y018274D01*
X011363Y018432D02*
X011363Y018432D01*
X011363Y018591D02*
X011363Y018591D01*
X011363Y018680D02*
X011363Y018680D01*
X011363Y019180D01*
X011403Y019180D01*
X011480Y019168D01*
X011555Y019143D01*
X011625Y019108D01*
X011689Y019061D01*
X011745Y019006D01*
X011791Y018942D01*
X011827Y018872D01*
X011851Y018797D01*
X011863Y018719D01*
X011863Y018680D01*
X011363Y018680D01*
X011363Y018749D02*
X011363Y018749D01*
X011363Y018908D02*
X011363Y018908D01*
X011363Y019066D02*
X011363Y019066D01*
X011570Y019225D02*
X012188Y019225D01*
X012346Y019066D02*
X011683Y019066D01*
X011808Y018908D02*
X012505Y018908D01*
X012663Y018749D02*
X011859Y018749D01*
X011855Y018591D02*
X012822Y018591D01*
X012980Y018432D02*
X011798Y018432D01*
X011654Y018274D02*
X013139Y018274D01*
X013297Y018115D02*
X011620Y018115D01*
X011790Y017957D02*
X013456Y017957D01*
X013614Y017798D02*
X011856Y017798D01*
X011863Y017640D02*
X013773Y017640D01*
X013904Y017481D02*
X011822Y017481D01*
X011713Y017323D02*
X014014Y017323D01*
X013982Y017006D02*
X011745Y017006D01*
X011835Y016847D02*
X013891Y016847D01*
X013863Y016689D02*
X011863Y016689D01*
X011842Y016530D02*
X013884Y016530D01*
X013965Y016372D02*
X011762Y016372D01*
X011542Y016213D02*
X014184Y016213D01*
X014031Y016055D02*
X011696Y016055D01*
X011815Y015896D02*
X013912Y015896D01*
X013863Y015738D02*
X011863Y015738D01*
X011863Y015579D02*
X013864Y015579D01*
X013778Y015421D02*
X011797Y015421D01*
X014542Y016213D02*
X015271Y016213D01*
X015112Y016055D02*
X014696Y016055D01*
X014815Y015896D02*
X014954Y015896D01*
X014762Y016372D02*
X015429Y016372D01*
X015588Y016530D02*
X014842Y016530D01*
X014863Y016689D02*
X015746Y016689D01*
X015905Y016847D02*
X014835Y016847D01*
X014745Y017006D02*
X016063Y017006D01*
X013871Y018798D02*
X011845Y020824D01*
X011793Y020950D01*
X012558Y020950D01*
X012693Y021085D01*
X013972Y022364D01*
X014080Y022256D01*
X014264Y022180D01*
X014080Y022104D01*
X013939Y021963D01*
X013863Y021779D01*
X013863Y021581D01*
X013939Y021397D01*
X014080Y021256D01*
X014264Y021180D01*
X014080Y021104D01*
X013939Y020963D01*
X013863Y020779D01*
X013863Y020581D01*
X013939Y020397D01*
X014080Y020256D01*
X014264Y020180D01*
X014463Y020180D01*
X014646Y020256D01*
X014787Y020397D01*
X014863Y020581D01*
X014863Y020779D01*
X014787Y020963D01*
X014646Y021104D01*
X014463Y021180D01*
X014264Y021180D01*
X014463Y021180D01*
X014646Y021256D01*
X014787Y021397D01*
X014863Y021581D01*
X014863Y021779D01*
X014787Y021963D01*
X014646Y022104D01*
X014463Y022180D01*
X014264Y022180D01*
X014463Y022180D01*
X014646Y022256D01*
X014787Y022397D01*
X014863Y022581D01*
X014863Y022779D01*
X014793Y022950D01*
X015008Y022950D01*
X015308Y023250D01*
X015418Y023250D01*
X017096Y021572D01*
X017048Y021552D01*
X016941Y021445D01*
X016901Y021349D01*
X016025Y020473D01*
X015973Y020348D01*
X015973Y019521D01*
X015803Y019351D01*
X015803Y019362D01*
X015545Y019620D01*
X015528Y019620D01*
X015593Y019685D01*
X015593Y020288D01*
X015803Y020498D01*
X015803Y020862D01*
X015545Y021120D01*
X015181Y021120D01*
X014923Y020862D01*
X014923Y020498D01*
X015133Y020288D01*
X015133Y019875D01*
X014857Y019599D01*
X014863Y019641D01*
X014863Y019680D01*
X014363Y019680D01*
X013863Y019680D01*
X013863Y019641D01*
X013876Y019563D01*
X013900Y019488D01*
X013936Y019418D01*
X013982Y019354D01*
X014038Y019299D01*
X014101Y019252D01*
X014171Y019217D01*
X014246Y019192D01*
X014324Y019180D01*
X014363Y019180D01*
X014363Y019680D01*
X014363Y019680D01*
X013863Y019680D01*
X013863Y019719D01*
X013876Y019797D01*
X013900Y019872D01*
X013936Y019942D01*
X013982Y020006D01*
X014038Y020061D01*
X014101Y020108D01*
X014171Y020143D01*
X014246Y020168D01*
X014324Y020180D01*
X014363Y020180D01*
X014363Y019680D01*
X014363Y019680D01*
X014363Y019680D01*
X014363Y019180D01*
X014403Y019180D01*
X014445Y019187D01*
X014438Y019180D01*
X014264Y019180D01*
X014080Y019104D01*
X013939Y018963D01*
X013871Y018798D01*
X013916Y018908D02*
X013761Y018908D01*
X013602Y019066D02*
X014042Y019066D01*
X014156Y019225D02*
X013444Y019225D01*
X013285Y019383D02*
X013961Y019383D01*
X013882Y019542D02*
X013127Y019542D01*
X012968Y019700D02*
X013863Y019700D01*
X013896Y019859D02*
X012810Y019859D01*
X012651Y020017D02*
X013993Y020017D01*
X014002Y020334D02*
X012334Y020334D01*
X012176Y020493D02*
X013900Y020493D01*
X013863Y020651D02*
X012017Y020651D01*
X011859Y020810D02*
X013876Y020810D01*
X013944Y020968D02*
X012577Y020968D01*
X012735Y021127D02*
X014135Y021127D01*
X014051Y021285D02*
X012894Y021285D01*
X013052Y021444D02*
X013920Y021444D01*
X013863Y021602D02*
X013211Y021602D01*
X013369Y021761D02*
X013863Y021761D01*
X013921Y021919D02*
X013528Y021919D01*
X013686Y022078D02*
X014054Y022078D01*
X014128Y022236D02*
X013845Y022236D01*
X014598Y022236D02*
X016432Y022236D01*
X016590Y022078D02*
X015588Y022078D01*
X015545Y022120D02*
X015363Y022120D01*
X015181Y022120D01*
X014923Y021862D01*
X014923Y021680D01*
X014923Y021498D01*
X015181Y021240D01*
X015363Y021240D01*
X015363Y021680D01*
X014923Y021680D01*
X015363Y021680D01*
X015363Y021680D01*
X015363Y022120D01*
X015363Y021680D01*
X015363Y021680D01*
X015363Y021680D01*
X015363Y021240D01*
X015545Y021240D01*
X015803Y021498D01*
X015803Y021680D01*
X015803Y021862D01*
X015545Y022120D01*
X015363Y022078D02*
X015363Y022078D01*
X015363Y021919D02*
X015363Y021919D01*
X015363Y021761D02*
X015363Y021761D01*
X015363Y021680D02*
X015803Y021680D01*
X015363Y021680D01*
X015363Y021680D01*
X015363Y021602D02*
X015363Y021602D01*
X015363Y021444D02*
X015363Y021444D01*
X015363Y021285D02*
X015363Y021285D01*
X015136Y021285D02*
X014675Y021285D01*
X014592Y021127D02*
X016679Y021127D01*
X016837Y021285D02*
X015591Y021285D01*
X015749Y021444D02*
X016940Y021444D01*
X017066Y021602D02*
X015803Y021602D01*
X015803Y021761D02*
X016907Y021761D01*
X016749Y021919D02*
X015746Y021919D01*
X015139Y022078D02*
X014673Y022078D01*
X014805Y021919D02*
X014980Y021919D01*
X014923Y021761D02*
X014863Y021761D01*
X014863Y021602D02*
X014923Y021602D01*
X014977Y021444D02*
X014806Y021444D01*
X014782Y020968D02*
X015029Y020968D01*
X014923Y020810D02*
X014851Y020810D01*
X014863Y020651D02*
X014923Y020651D01*
X014928Y020493D02*
X014827Y020493D01*
X014724Y020334D02*
X015087Y020334D01*
X015133Y020176D02*
X014431Y020176D01*
X014403Y020180D02*
X014363Y020180D01*
X014363Y019680D01*
X014863Y019680D01*
X014863Y019719D01*
X014851Y019797D01*
X014827Y019872D01*
X014791Y019942D01*
X014745Y020006D01*
X014689Y020061D01*
X014625Y020108D01*
X014555Y020143D01*
X014480Y020168D01*
X014403Y020180D01*
X014363Y020176D02*
X014363Y020176D01*
X014296Y020176D02*
X012493Y020176D01*
X014363Y020017D02*
X014363Y020017D01*
X014363Y019859D02*
X014363Y019859D01*
X014363Y019700D02*
X014363Y019700D01*
X014363Y019680D02*
X014363Y019680D01*
X014363Y019542D02*
X014363Y019542D01*
X014363Y019383D02*
X014363Y019383D01*
X014363Y019225D02*
X014363Y019225D01*
X014863Y019700D02*
X014958Y019700D01*
X014831Y019859D02*
X015116Y019859D01*
X015133Y020017D02*
X014733Y020017D01*
X015593Y020017D02*
X015973Y020017D01*
X015973Y019859D02*
X015593Y019859D01*
X015593Y019700D02*
X015973Y019700D01*
X015973Y019542D02*
X015624Y019542D01*
X015782Y019383D02*
X015835Y019383D01*
X015973Y020176D02*
X015593Y020176D01*
X015640Y020334D02*
X015973Y020334D01*
X016045Y020493D02*
X015798Y020493D01*
X015803Y020651D02*
X016203Y020651D01*
X016362Y020810D02*
X015803Y020810D01*
X015697Y020968D02*
X016520Y020968D01*
X016273Y022395D02*
X014785Y022395D01*
X014852Y022553D02*
X016115Y022553D01*
X015956Y022712D02*
X014863Y022712D01*
X014826Y022870D02*
X015798Y022870D01*
X015639Y023029D02*
X015087Y023029D01*
X015246Y023187D02*
X015481Y023187D01*
X013915Y024455D02*
X011913Y024455D01*
X011863Y024614D02*
X013863Y024614D01*
X013863Y024772D02*
X011863Y024772D01*
X011801Y024931D02*
X013926Y024931D01*
X014065Y025089D02*
X011661Y025089D01*
X011626Y025248D02*
X014101Y025248D01*
X013936Y025406D02*
X011791Y025406D01*
X011857Y025565D02*
X013870Y025565D01*
X013863Y025723D02*
X011863Y025723D01*
X011821Y025882D02*
X013906Y025882D01*
X014016Y026040D02*
X011710Y026040D01*
X011016Y026040D02*
X008766Y026040D01*
X008793Y026105D02*
X008652Y025763D01*
X008390Y025502D01*
X008048Y025360D01*
X007678Y025360D01*
X007336Y025502D01*
X007075Y025763D01*
X006933Y026105D01*
X006933Y026475D01*
X007075Y026817D01*
X007336Y027079D01*
X007678Y027220D01*
X008048Y027220D01*
X008390Y027079D01*
X008652Y026817D01*
X008793Y026475D01*
X008793Y026105D01*
X008793Y026199D02*
X019664Y026199D01*
X019505Y026357D02*
X008793Y026357D01*
X008777Y026516D02*
X019347Y026516D01*
X019188Y026674D02*
X008711Y026674D01*
X008636Y026833D02*
X017088Y026833D01*
X017181Y026740D02*
X016923Y026998D01*
X016923Y027180D01*
X017363Y027180D01*
X016923Y027180D01*
X016923Y027362D01*
X017065Y027504D01*
X017051Y027514D01*
X016997Y027567D01*
X016953Y027628D01*
X016918Y027696D01*
X016895Y027768D01*
X016883Y027842D01*
X016883Y028160D01*
X017343Y028160D01*
X017343Y028200D01*
X016883Y028200D01*
X016883Y028518D01*
X016895Y028592D01*
X016918Y028664D01*
X016953Y028732D01*
X016997Y028793D01*
X017051Y028846D01*
X017112Y028891D01*
X017179Y028925D01*
X017251Y028948D01*
X017325Y028960D01*
X017343Y028960D01*
X017343Y028200D01*
X017383Y028200D01*
X017383Y028960D01*
X017401Y028960D01*
X017476Y028948D01*
X017547Y028925D01*
X017615Y028891D01*
X017676Y028846D01*
X017729Y028793D01*
X017774Y028732D01*
X017808Y028664D01*
X017831Y028592D01*
X017843Y028518D01*
X017843Y028200D01*
X017383Y028200D01*
X017383Y028160D01*
X017383Y027620D01*
X017363Y027620D01*
X017363Y027180D01*
X017363Y027180D01*
X017363Y027180D01*
X017363Y026740D01*
X017181Y026740D01*
X017363Y026740D02*
X017545Y026740D01*
X017803Y026998D01*
X017803Y027180D01*
X017803Y027362D01*
X017662Y027504D01*
X017676Y027514D01*
X017729Y027567D01*
X017774Y027628D01*
X017808Y027696D01*
X017831Y027768D01*
X017843Y027842D01*
X017843Y028160D01*
X017383Y028160D01*
X017343Y028160D01*
X017343Y027620D01*
X017363Y027620D01*
X017363Y027180D01*
X017363Y027180D01*
X017363Y026740D01*
X017363Y026833D02*
X017363Y026833D01*
X017363Y026991D02*
X017363Y026991D01*
X017363Y027150D02*
X017363Y027150D01*
X017363Y027180D02*
X017363Y027180D01*
X017803Y027180D01*
X017363Y027180D01*
X017363Y027308D02*
X017363Y027308D01*
X017363Y027467D02*
X017363Y027467D01*
X017343Y027625D02*
X017383Y027625D01*
X017383Y027784D02*
X017343Y027784D01*
X017343Y027942D02*
X017383Y027942D01*
X017383Y028101D02*
X017343Y028101D01*
X017343Y028259D02*
X017383Y028259D01*
X017383Y028418D02*
X017343Y028418D01*
X017343Y028576D02*
X017383Y028576D01*
X017383Y028735D02*
X017343Y028735D01*
X017343Y028893D02*
X017383Y028893D01*
X017610Y028893D02*
X018106Y028893D01*
X018111Y029052D02*
X013692Y029052D01*
X013644Y029100D02*
X013462Y029175D01*
X013265Y029175D01*
X013083Y029100D01*
X012944Y028960D01*
X012868Y028778D01*
X012868Y028666D01*
X012722Y028520D01*
X011145Y028520D01*
X011045Y028620D01*
X011004Y028620D01*
X010653Y028971D01*
X010653Y029768D01*
X010681Y029740D01*
X010863Y029740D01*
X010863Y030180D01*
X010863Y030620D01*
X010681Y030620D01*
X010653Y030592D01*
X010653Y032031D01*
X010776Y031980D01*
X010951Y031980D01*
X011112Y032047D01*
X011236Y032171D01*
X011303Y032332D01*
X011303Y033028D01*
X011236Y033189D01*
X011112Y033313D01*
X010951Y033380D01*
X010776Y033380D01*
X010614Y033313D01*
X010490Y033189D01*
X010423Y033028D01*
X010423Y033020D01*
X010303Y033020D01*
X010303Y033028D01*
X010236Y033189D01*
X010112Y033313D01*
X009951Y033380D01*
X009776Y033380D01*
X009614Y033313D01*
X009490Y033189D01*
X009423Y033028D01*
X009423Y033020D01*
X008454Y033020D01*
X008404Y033070D01*
X008235Y033140D01*
X007492Y033140D01*
X007323Y033070D01*
X007193Y032941D01*
X007123Y032771D01*
X007123Y032588D01*
X007193Y032419D01*
X007323Y032290D01*
X007492Y032220D01*
X008235Y032220D01*
X008404Y032290D01*
X008454Y032340D01*
X009423Y032340D01*
X009423Y032332D01*
X009490Y032171D01*
X009614Y032047D01*
X009776Y031980D01*
X009951Y031980D01*
X009973Y031989D01*
X009973Y028762D01*
X009992Y028716D01*
X009928Y028828D01*
X009731Y029024D01*
X009491Y029163D01*
X009403Y029187D01*
X009403Y030598D01*
X009351Y030723D01*
X009256Y030818D01*
X008569Y031505D01*
X008603Y031588D01*
X009973Y031588D01*
X009973Y031746D02*
X008603Y031746D01*
X008603Y031771D02*
X008533Y031941D01*
X008404Y032070D01*
X008235Y032140D01*
X007492Y032140D01*
X007323Y032070D01*
X007193Y031941D01*
X007123Y031771D01*
X007123Y031588D01*
X007193Y031419D01*
X007323Y031290D01*
X007492Y031220D01*
X007842Y031220D01*
X007922Y031140D01*
X007492Y031140D01*
X007323Y031070D01*
X007193Y030941D01*
X007123Y030771D01*
X007123Y030588D01*
X007193Y030419D01*
X007323Y030290D01*
X007492Y030220D01*
X008235Y030220D01*
X008404Y030290D01*
X008533Y030419D01*
X008580Y030532D01*
X008723Y030389D01*
X008723Y029176D01*
X008676Y029163D01*
X008436Y029024D01*
X008239Y028828D01*
X008101Y028587D01*
X008029Y028319D01*
X008029Y028041D01*
X008101Y027773D01*
X008239Y027532D01*
X008436Y027336D01*
X008676Y027197D01*
X008945Y027125D01*
X009223Y027125D01*
X009491Y027197D01*
X009731Y027336D01*
X009928Y027532D01*
X010067Y027773D01*
X010139Y028041D01*
X010139Y028319D01*
X010067Y028587D01*
X010055Y028607D01*
X010423Y028239D01*
X010423Y027998D01*
X010681Y027740D01*
X011045Y027740D01*
X011145Y027840D01*
X012931Y027840D01*
X013056Y027892D01*
X013349Y028185D01*
X013462Y028185D01*
X013473Y028190D01*
X013771Y027892D01*
X013896Y027840D01*
X015883Y027840D01*
X015883Y027785D01*
X015956Y027608D01*
X016091Y027473D01*
X016268Y027400D01*
X016459Y027400D01*
X016635Y027473D01*
X016770Y027608D01*
X016843Y027785D01*
X016843Y028575D01*
X016770Y028752D01*
X016635Y028887D01*
X016459Y028960D01*
X016268Y028960D01*
X016091Y028887D01*
X015956Y028752D01*
X015883Y028575D01*
X015883Y028520D01*
X014104Y028520D01*
X013858Y028766D01*
X013858Y028778D01*
X013783Y028960D01*
X013644Y029100D01*
X013568Y029185D02*
X013858Y029475D01*
X013858Y029680D01*
X013363Y029680D01*
X012868Y029680D01*
X012868Y029475D01*
X013158Y029185D01*
X013363Y029185D01*
X013363Y029680D01*
X013363Y029680D01*
X012868Y029680D01*
X012868Y029885D01*
X013158Y030175D01*
X013363Y030175D01*
X013363Y029680D01*
X013363Y029680D01*
X013363Y029680D01*
X013363Y030175D01*
X013568Y030175D01*
X013858Y029885D01*
X013858Y029680D01*
X013363Y029680D01*
X013363Y029185D01*
X013568Y029185D01*
X013593Y029210D02*
X017952Y029210D01*
X017794Y029369D02*
X013752Y029369D01*
X013858Y029527D02*
X017635Y029527D01*
X017477Y029686D02*
X013858Y029686D01*
X013858Y029844D02*
X017318Y029844D01*
X017160Y030003D02*
X013741Y030003D01*
X013582Y030161D02*
X017001Y030161D01*
X016843Y030320D02*
X011303Y030320D01*
X011303Y030362D02*
X011045Y030620D01*
X010863Y030620D01*
X010863Y030180D01*
X010863Y030180D01*
X010863Y030180D01*
X010863Y029740D01*
X011045Y029740D01*
X011303Y029998D01*
X011303Y030180D01*
X011303Y030362D01*
X011187Y030478D02*
X016684Y030478D01*
X016526Y030637D02*
X010653Y030637D01*
X010653Y030795D02*
X011126Y030795D01*
X010967Y030954D02*
X010653Y030954D01*
X010653Y031112D02*
X010923Y031112D01*
X010923Y031271D02*
X010653Y031271D01*
X010653Y031429D02*
X010990Y031429D01*
X011149Y031588D02*
X010653Y031588D01*
X010653Y031746D02*
X011448Y031746D01*
X011607Y031905D02*
X010653Y031905D01*
X011129Y032063D02*
X011765Y032063D01*
X011924Y032222D02*
X011257Y032222D01*
X011303Y032380D02*
X012082Y032380D01*
X012241Y032539D02*
X011303Y032539D01*
X011303Y032697D02*
X012399Y032697D01*
X012423Y032856D02*
X011303Y032856D01*
X011303Y033014D02*
X012423Y033014D01*
X012483Y033173D02*
X011243Y033173D01*
X011069Y033331D02*
X012658Y033331D01*
X013069Y033331D02*
X013658Y033331D01*
X013483Y033173D02*
X013243Y033173D01*
X014069Y033331D02*
X020158Y033331D01*
X020114Y033313D02*
X019990Y033189D01*
X019923Y033028D01*
X019923Y032332D01*
X019990Y032171D01*
X020114Y032047D01*
X020276Y031980D01*
X020451Y031980D01*
X020523Y032010D01*
X020523Y030540D01*
X020444Y030460D01*
X020368Y030278D01*
X020368Y030082D01*
X020444Y029900D01*
X020583Y029760D01*
X020765Y029685D01*
X020962Y029685D01*
X021144Y029760D01*
X021283Y029900D01*
X021358Y030082D01*
X021358Y030278D01*
X021283Y030460D01*
X021203Y030540D01*
X021203Y032010D01*
X021276Y031980D01*
X021451Y031980D01*
X021612Y032047D01*
X021736Y032171D01*
X021803Y032332D01*
X021803Y033028D01*
X021736Y033189D01*
X021612Y033313D01*
X021451Y033380D01*
X021276Y033380D01*
X021114Y033313D01*
X020990Y033189D01*
X020923Y033028D01*
X020923Y033020D01*
X020803Y033020D01*
X020803Y033028D01*
X020736Y033189D01*
X020612Y033313D01*
X020451Y033380D01*
X020276Y033380D01*
X020114Y033313D01*
X019983Y033173D02*
X014243Y033173D01*
X014303Y033014D02*
X019923Y033014D01*
X019923Y032856D02*
X015869Y032856D01*
X015901Y032823D02*
X015901Y032823D01*
X016027Y032697D02*
X019923Y032697D01*
X019923Y032539D02*
X016186Y032539D01*
X016344Y032380D02*
X019923Y032380D01*
X019969Y032222D02*
X016503Y032222D01*
X016661Y032063D02*
X020098Y032063D01*
X020523Y031905D02*
X016820Y031905D01*
X016978Y031746D02*
X020523Y031746D01*
X020523Y031588D02*
X017137Y031588D01*
X017295Y031429D02*
X020523Y031429D01*
X020523Y031271D02*
X017454Y031271D01*
X017612Y031112D02*
X020523Y031112D01*
X020523Y030954D02*
X017771Y030954D01*
X017929Y030795D02*
X020523Y030795D01*
X020523Y030637D02*
X018088Y030637D01*
X018246Y030478D02*
X020461Y030478D01*
X020385Y030320D02*
X018405Y030320D01*
X018563Y030161D02*
X020368Y030161D01*
X020401Y030003D02*
X018722Y030003D01*
X018880Y029844D02*
X020499Y029844D01*
X020763Y029686D02*
X019039Y029686D01*
X019197Y029527D02*
X022973Y029527D01*
X022973Y029369D02*
X019356Y029369D01*
X019514Y029210D02*
X022973Y029210D01*
X022954Y029052D02*
X019673Y029052D01*
X019831Y028893D02*
X022795Y028893D01*
X022637Y028735D02*
X019990Y028735D01*
X020148Y028576D02*
X020708Y028576D01*
X020963Y029686D02*
X021658Y029686D01*
X021658Y029685D02*
X021863Y029685D01*
X021863Y030180D01*
X021368Y030180D01*
X021368Y029975D01*
X021658Y029685D01*
X021863Y029686D02*
X021863Y029686D01*
X021863Y029685D02*
X022068Y029685D01*
X022358Y029975D01*
X022358Y030180D01*
X022358Y030385D01*
X022068Y030675D01*
X021863Y030675D01*
X021658Y030675D01*
X021368Y030385D01*
X021368Y030180D01*
X021863Y030180D01*
X021863Y030180D01*
X021863Y030180D01*
X021863Y030675D01*
X021863Y030180D01*
X021863Y030180D01*
X021863Y029685D01*
X021863Y029844D02*
X021863Y029844D01*
X021863Y030003D02*
X021863Y030003D01*
X021863Y030161D02*
X021863Y030161D01*
X021863Y030180D02*
X021863Y030180D01*
X022358Y030180D01*
X021863Y030180D01*
X021863Y030320D02*
X021863Y030320D01*
X021863Y030478D02*
X021863Y030478D01*
X021863Y030637D02*
X021863Y030637D01*
X021620Y030637D02*
X021203Y030637D01*
X021203Y030795D02*
X022973Y030795D01*
X022973Y030637D02*
X022107Y030637D01*
X022265Y030478D02*
X022973Y030478D01*
X022973Y030320D02*
X022358Y030320D01*
X022358Y030161D02*
X022973Y030161D01*
X022973Y030003D02*
X022358Y030003D01*
X022227Y029844D02*
X022973Y029844D01*
X022973Y029686D02*
X022069Y029686D01*
X021499Y029844D02*
X021227Y029844D01*
X021326Y030003D02*
X021368Y030003D01*
X021358Y030161D02*
X021368Y030161D01*
X021368Y030320D02*
X021341Y030320D01*
X021265Y030478D02*
X021461Y030478D01*
X021203Y030954D02*
X022973Y030954D01*
X022973Y031112D02*
X021203Y031112D01*
X021203Y031271D02*
X022973Y031271D01*
X022973Y031429D02*
X021203Y031429D01*
X021203Y031588D02*
X022973Y031588D01*
X022973Y031746D02*
X021203Y031746D01*
X021203Y031905D02*
X022973Y031905D01*
X022973Y032063D02*
X021629Y032063D01*
X021757Y032222D02*
X022969Y032222D01*
X022923Y032380D02*
X021803Y032380D01*
X021803Y032539D02*
X022923Y032539D01*
X022923Y032697D02*
X021803Y032697D01*
X021803Y032856D02*
X022923Y032856D01*
X022923Y033014D02*
X021803Y033014D01*
X021743Y033173D02*
X022983Y033173D01*
X023158Y033331D02*
X021569Y033331D01*
X021158Y033331D02*
X020569Y033331D01*
X020743Y033173D02*
X020983Y033173D01*
X023653Y031746D02*
X027868Y031746D01*
X027868Y031588D02*
X023653Y031588D01*
X024052Y031429D02*
X027868Y031429D01*
X027868Y031271D02*
X024166Y031271D01*
X024193Y031112D02*
X025113Y031112D01*
X025083Y031100D02*
X024944Y030960D01*
X024868Y030778D01*
X024868Y030582D01*
X024944Y030400D01*
X025083Y030260D01*
X025265Y030185D01*
X025462Y030185D01*
X025644Y030260D01*
X025783Y030400D01*
X025858Y030582D01*
X025858Y030778D01*
X025783Y030960D01*
X025644Y031100D01*
X025462Y031175D01*
X025265Y031175D01*
X025083Y031100D01*
X024941Y030954D02*
X024153Y030954D01*
X024153Y030795D02*
X024875Y030795D01*
X024868Y030637D02*
X024153Y030637D01*
X024153Y030478D02*
X024911Y030478D01*
X025024Y030320D02*
X024153Y030320D01*
X024153Y030161D02*
X028093Y030161D01*
X028093Y030003D02*
X024153Y030003D01*
X024153Y029844D02*
X028093Y029844D01*
X028093Y029686D02*
X024153Y029686D01*
X024297Y029527D02*
X028093Y029527D01*
X028093Y029369D02*
X024456Y029369D01*
X024614Y029210D02*
X028093Y029210D01*
X028093Y029052D02*
X024773Y029052D01*
X024931Y028893D02*
X028093Y028893D01*
X028093Y028735D02*
X025090Y028735D01*
X025248Y028576D02*
X025711Y028576D01*
X025582Y028418D02*
X025407Y028418D01*
X025079Y027784D02*
X022648Y027784D01*
X022806Y027942D02*
X024920Y027942D01*
X024762Y028101D02*
X022965Y028101D01*
X023123Y028259D02*
X024603Y028259D01*
X024445Y028418D02*
X023282Y028418D01*
X023440Y028576D02*
X024286Y028576D01*
X024128Y028735D02*
X023599Y028735D01*
X023653Y028893D02*
X023969Y028893D01*
X023811Y029052D02*
X023653Y029052D01*
X022478Y028576D02*
X022018Y028576D01*
X022147Y028418D02*
X022320Y028418D01*
X022489Y027625D02*
X025237Y027625D01*
X025396Y027467D02*
X022331Y027467D01*
X022172Y027308D02*
X025554Y027308D01*
X026113Y027150D02*
X022014Y027150D01*
X021855Y026991D02*
X026271Y026991D01*
X026430Y026833D02*
X021703Y026833D01*
X021833Y026674D02*
X025903Y026674D01*
X025914Y026677D02*
X025837Y026653D01*
X025766Y026616D01*
X025701Y026569D01*
X025644Y026512D01*
X025597Y026447D01*
X025561Y026376D01*
X025536Y026299D01*
X025523Y026220D01*
X025523Y026210D01*
X026333Y026210D01*
X026333Y026690D01*
X025993Y026690D01*
X025914Y026677D01*
X025648Y026516D02*
X022079Y026516D01*
X022172Y026357D02*
X025555Y026357D01*
X025542Y026040D02*
X022187Y026040D01*
X022203Y026199D02*
X026333Y026199D01*
X026333Y026357D02*
X026393Y026357D01*
X026393Y026516D02*
X026333Y026516D01*
X026333Y026674D02*
X026393Y026674D01*
X026393Y026040D02*
X026333Y026040D01*
X026333Y025882D02*
X026393Y025882D01*
X026393Y025723D02*
X026333Y025723D01*
X026920Y025723D02*
X027539Y025723D01*
X027381Y025882D02*
X027107Y025882D01*
X027184Y026040D02*
X027222Y026040D01*
X027698Y025565D02*
X021260Y025565D01*
X021418Y025406D02*
X027856Y025406D01*
X027973Y025248D02*
X021577Y025248D01*
X021923Y025723D02*
X025807Y025723D01*
X025620Y025882D02*
X022116Y025882D01*
X020932Y024931D02*
X014801Y024931D01*
X014661Y025089D02*
X020773Y025089D01*
X020615Y025248D02*
X014626Y025248D01*
X014791Y025406D02*
X018550Y025406D01*
X019077Y025406D02*
X020456Y025406D01*
X020298Y025565D02*
X019177Y025565D01*
X019193Y025723D02*
X020139Y025723D01*
X019981Y025882D02*
X019141Y025882D01*
X018937Y026040D02*
X019822Y026040D01*
X019030Y026833D02*
X018638Y026833D01*
X018797Y026991D02*
X018871Y026991D01*
X018088Y026833D02*
X017638Y026833D01*
X017797Y026991D02*
X017930Y026991D01*
X017923Y027150D02*
X017803Y027150D01*
X017803Y027308D02*
X017923Y027308D01*
X018023Y027467D02*
X017699Y027467D01*
X017771Y027625D02*
X017949Y027625D01*
X017884Y027784D02*
X017834Y027784D01*
X017843Y027942D02*
X017883Y027942D01*
X017883Y028101D02*
X017843Y028101D01*
X017843Y028259D02*
X017883Y028259D01*
X017883Y028418D02*
X017843Y028418D01*
X017834Y028576D02*
X017883Y028576D01*
X017949Y028735D02*
X017772Y028735D01*
X017117Y028893D02*
X016620Y028893D01*
X016777Y028735D02*
X016955Y028735D01*
X016892Y028576D02*
X016843Y028576D01*
X016843Y028418D02*
X016883Y028418D01*
X016883Y028259D02*
X016843Y028259D01*
X016843Y028101D02*
X016883Y028101D01*
X016883Y027942D02*
X016843Y027942D01*
X016843Y027784D02*
X016893Y027784D01*
X016955Y027625D02*
X016777Y027625D01*
X016619Y027467D02*
X017028Y027467D01*
X016923Y027308D02*
X009683Y027308D01*
X009862Y027467D02*
X016107Y027467D01*
X015949Y027625D02*
X009982Y027625D01*
X010070Y027784D02*
X010637Y027784D01*
X010479Y027942D02*
X010112Y027942D01*
X010139Y028101D02*
X010423Y028101D01*
X010403Y028259D02*
X010139Y028259D01*
X010112Y028418D02*
X010245Y028418D01*
X010086Y028576D02*
X010070Y028576D01*
X009985Y028735D02*
X009982Y028735D01*
X009973Y028893D02*
X009863Y028893D01*
X009973Y029052D02*
X009684Y029052D01*
X009403Y029210D02*
X009973Y029210D01*
X009973Y029369D02*
X009403Y029369D01*
X009403Y029527D02*
X009973Y029527D01*
X009973Y029686D02*
X009403Y029686D01*
X009403Y029844D02*
X009973Y029844D01*
X009973Y030003D02*
X009403Y030003D01*
X009403Y030161D02*
X009973Y030161D01*
X009973Y030320D02*
X009403Y030320D01*
X009403Y030478D02*
X009973Y030478D01*
X009973Y030637D02*
X009387Y030637D01*
X009279Y030795D02*
X009973Y030795D01*
X009973Y030954D02*
X009121Y030954D01*
X008962Y031112D02*
X009973Y031112D01*
X009973Y031271D02*
X008804Y031271D01*
X008645Y031429D02*
X009973Y031429D01*
X009973Y031905D02*
X008548Y031905D01*
X008603Y031771D02*
X008603Y031588D01*
X008411Y032063D02*
X009598Y032063D01*
X009469Y032222D02*
X008238Y032222D01*
X007488Y032222D02*
X006653Y032222D01*
X006719Y032380D02*
X007233Y032380D01*
X007144Y032539D02*
X006768Y032539D01*
X006768Y032697D02*
X007123Y032697D01*
X007158Y032856D02*
X006768Y032856D01*
X006704Y033014D02*
X007267Y033014D01*
X006639Y033173D02*
X009483Y033173D01*
X009658Y033331D02*
X006492Y033331D01*
X006526Y032063D02*
X007316Y032063D01*
X007178Y031905D02*
X006356Y031905D01*
X007123Y031746D02*
X005143Y031746D01*
X005143Y031588D02*
X007124Y031588D01*
X007189Y031429D02*
X005143Y031429D01*
X005143Y031271D02*
X007370Y031271D01*
X007424Y031112D02*
X005143Y031112D01*
X005143Y030954D02*
X007206Y030954D01*
X007133Y030795D02*
X005143Y030795D01*
X005143Y030637D02*
X007123Y030637D01*
X007169Y030478D02*
X005143Y030478D01*
X005143Y030320D02*
X007293Y030320D01*
X008433Y030320D02*
X008723Y030320D01*
X008723Y030161D02*
X005143Y030161D01*
X005143Y030003D02*
X008723Y030003D01*
X008723Y029844D02*
X005143Y029844D01*
X005143Y029686D02*
X008723Y029686D01*
X008723Y029527D02*
X005143Y029527D01*
X005143Y029369D02*
X008723Y029369D01*
X008723Y029210D02*
X005143Y029210D01*
X005143Y029052D02*
X006357Y029052D01*
X006326Y029041D02*
X006232Y028995D01*
X006143Y028940D01*
X006061Y028875D01*
X005988Y028801D01*
X005922Y028719D01*
X005867Y028631D01*
X005822Y028536D01*
X005787Y028438D01*
X005764Y028336D01*
X005755Y028260D01*
X006602Y028260D01*
X006602Y028100D01*
X005755Y028100D01*
X005764Y028024D01*
X005787Y027922D01*
X005822Y027824D01*
X005867Y027729D01*
X005922Y027641D01*
X005988Y027559D01*
X006061Y027485D01*
X006143Y027420D01*
X006232Y027365D01*
X006326Y027319D01*
X006424Y027285D01*
X006526Y027262D01*
X006602Y027253D01*
X006602Y028100D01*
X006762Y028100D01*
X006762Y027253D01*
X006838Y027262D01*
X006940Y027285D01*
X007039Y027319D01*
X007133Y027365D01*
X007221Y027420D01*
X007303Y027485D01*
X007377Y027559D01*
X007442Y027641D01*
X007497Y027729D01*
X007543Y027824D01*
X007577Y027922D01*
X007600Y028024D01*
X007609Y028100D01*
X006762Y028100D01*
X006762Y028260D01*
X006602Y028260D01*
X006602Y029107D01*
X006526Y029098D01*
X006424Y029075D01*
X006326Y029041D01*
X006602Y029052D02*
X006762Y029052D01*
X006762Y029107D02*
X006762Y028260D01*
X007609Y028260D01*
X007600Y028336D01*
X007577Y028438D01*
X007543Y028536D01*
X007497Y028631D01*
X007442Y028719D01*
X007377Y028801D01*
X007303Y028875D01*
X007221Y028940D01*
X007133Y028995D01*
X007039Y029041D01*
X006940Y029075D01*
X006838Y029098D01*
X006762Y029107D01*
X006762Y028893D02*
X006602Y028893D01*
X006602Y028735D02*
X006762Y028735D01*
X006762Y028576D02*
X006602Y028576D01*
X006602Y028418D02*
X006762Y028418D01*
X006762Y028259D02*
X008029Y028259D01*
X008029Y028101D02*
X006762Y028101D01*
X006762Y027942D02*
X006602Y027942D01*
X006602Y027784D02*
X006762Y027784D01*
X006762Y027625D02*
X006602Y027625D01*
X006602Y027467D02*
X006762Y027467D01*
X006762Y027308D02*
X006602Y027308D01*
X006358Y027308D02*
X005143Y027308D01*
X005143Y027150D02*
X007508Y027150D01*
X007249Y026991D02*
X005143Y026991D01*
X005143Y026833D02*
X007090Y026833D01*
X007016Y026674D02*
X005143Y026674D01*
X005143Y026516D02*
X006950Y026516D01*
X006933Y026357D02*
X005143Y026357D01*
X005143Y026199D02*
X006933Y026199D01*
X006960Y026040D02*
X005143Y026040D01*
X005143Y025882D02*
X007026Y025882D01*
X007115Y025723D02*
X005143Y025723D01*
X005143Y025565D02*
X007274Y025565D01*
X007568Y025406D02*
X005143Y025406D01*
X005143Y025248D02*
X011101Y025248D01*
X011065Y025089D02*
X009134Y025089D01*
X009019Y025120D02*
X009319Y025040D01*
X009588Y024884D01*
X009807Y024665D01*
X009963Y024395D01*
X010043Y024095D01*
X010043Y023785D01*
X009963Y023485D01*
X009807Y023215D01*
X009588Y022996D01*
X009319Y022840D01*
X009019Y022760D01*
X008708Y022760D01*
X008408Y022840D01*
X008139Y022996D01*
X007919Y023215D01*
X007764Y023485D01*
X007683Y023785D01*
X007683Y024095D01*
X007764Y024395D01*
X007919Y024665D01*
X008139Y024884D01*
X008408Y025040D01*
X008708Y025120D01*
X009019Y025120D01*
X008592Y025089D02*
X005143Y025089D01*
X005143Y024931D02*
X008219Y024931D01*
X008026Y024772D02*
X005143Y024772D01*
X005143Y024614D02*
X007890Y024614D01*
X007798Y024455D02*
X005143Y024455D01*
X005143Y024297D02*
X007737Y024297D01*
X007695Y024138D02*
X005143Y024138D01*
X005143Y023980D02*
X007683Y023980D01*
X007683Y023821D02*
X005143Y023821D01*
X005143Y023663D02*
X007716Y023663D01*
X007758Y023504D02*
X005143Y023504D01*
X005143Y023346D02*
X007844Y023346D01*
X007947Y023187D02*
X005143Y023187D01*
X005143Y023029D02*
X008106Y023029D01*
X008356Y022870D02*
X005143Y022870D01*
X005143Y022712D02*
X009869Y022712D01*
X009711Y022553D02*
X005143Y022553D01*
X005143Y022395D02*
X009552Y022395D01*
X009394Y022236D02*
X005143Y022236D01*
X005143Y022078D02*
X009235Y022078D01*
X009077Y021919D02*
X005143Y021919D01*
X005143Y021761D02*
X008918Y021761D01*
X008760Y021602D02*
X005143Y021602D01*
X005143Y021444D02*
X008601Y021444D01*
X008583Y021285D02*
X005143Y021285D01*
X005143Y021127D02*
X008151Y021127D01*
X007992Y020968D02*
X005143Y020968D01*
X008576Y021127D02*
X008583Y021127D01*
X009370Y022870D02*
X010028Y022870D01*
X010186Y023029D02*
X009621Y023029D01*
X009779Y023187D02*
X010345Y023187D01*
X010503Y023346D02*
X009883Y023346D01*
X009968Y023504D02*
X010662Y023504D01*
X010820Y023663D02*
X010011Y023663D01*
X010043Y023821D02*
X010880Y023821D01*
X010956Y023980D02*
X010043Y023980D01*
X010032Y024138D02*
X011162Y024138D01*
X011264Y024180D02*
X011463Y024180D01*
X011591Y024127D01*
X011516Y024202D01*
X011463Y024180D01*
X011264Y024180D01*
X011040Y024297D02*
X009989Y024297D01*
X009928Y024455D02*
X010915Y024455D01*
X010863Y024614D02*
X009837Y024614D01*
X009700Y024772D02*
X010863Y024772D01*
X010926Y024931D02*
X009508Y024931D01*
X008611Y025723D02*
X010863Y025723D01*
X010870Y025565D02*
X008453Y025565D01*
X008159Y025406D02*
X010936Y025406D01*
X010906Y025882D02*
X008701Y025882D01*
X008478Y026991D02*
X016930Y026991D01*
X016923Y027150D02*
X009314Y027150D01*
X008853Y027150D02*
X008219Y027150D01*
X008484Y027308D02*
X007006Y027308D01*
X007279Y027467D02*
X008305Y027467D01*
X008186Y027625D02*
X007429Y027625D01*
X007523Y027784D02*
X008098Y027784D01*
X008055Y027942D02*
X007582Y027942D01*
X007582Y028418D02*
X008055Y028418D01*
X008098Y028576D02*
X007524Y028576D01*
X007429Y028735D02*
X008186Y028735D01*
X008305Y028893D02*
X007280Y028893D01*
X007007Y029052D02*
X008483Y029052D01*
X006602Y028259D02*
X005143Y028259D01*
X005143Y028101D02*
X006602Y028101D01*
X006085Y027467D02*
X005143Y027467D01*
X005143Y027625D02*
X005935Y027625D01*
X005841Y027784D02*
X005143Y027784D01*
X005143Y027942D02*
X005783Y027942D01*
X005782Y028418D02*
X005143Y028418D01*
X005143Y028576D02*
X005841Y028576D01*
X005935Y028735D02*
X005143Y028735D01*
X005143Y028893D02*
X006085Y028893D01*
X008557Y030478D02*
X008634Y030478D01*
X010653Y029686D02*
X012868Y029686D01*
X012868Y029844D02*
X011150Y029844D01*
X011303Y030003D02*
X012986Y030003D01*
X013144Y030161D02*
X011303Y030161D01*
X011303Y030180D02*
X010863Y030180D01*
X011303Y030180D01*
X010863Y030180D02*
X010863Y030180D01*
X010863Y030161D02*
X010863Y030161D01*
X010863Y030003D02*
X010863Y030003D01*
X010863Y029844D02*
X010863Y029844D01*
X010653Y029527D02*
X012868Y029527D01*
X012975Y029369D02*
X010653Y029369D01*
X010653Y029210D02*
X013133Y029210D01*
X013035Y029052D02*
X010653Y029052D01*
X010731Y028893D02*
X012916Y028893D01*
X012868Y028735D02*
X010890Y028735D01*
X011089Y028576D02*
X012778Y028576D01*
X013265Y028101D02*
X013562Y028101D01*
X013720Y027942D02*
X013106Y027942D01*
X013890Y028735D02*
X015949Y028735D01*
X015883Y028576D02*
X014048Y028576D01*
X013811Y028893D02*
X016106Y028893D01*
X015884Y027784D02*
X011089Y027784D01*
X013363Y029210D02*
X013363Y029210D01*
X013363Y029369D02*
X013363Y029369D01*
X013363Y029527D02*
X013363Y029527D01*
X013363Y029680D02*
X013363Y029680D01*
X013363Y029686D02*
X013363Y029686D01*
X013363Y029844D02*
X013363Y029844D01*
X013363Y030003D02*
X013363Y030003D01*
X013363Y030161D02*
X013363Y030161D01*
X014126Y030795D02*
X011601Y030795D01*
X011759Y030954D02*
X013967Y030954D01*
X013923Y031112D02*
X011803Y031112D01*
X011935Y031271D02*
X013923Y031271D01*
X013990Y031429D02*
X012093Y031429D01*
X012252Y031588D02*
X014149Y031588D01*
X014578Y031588D02*
X016175Y031588D01*
X016016Y031746D02*
X012410Y031746D01*
X012569Y031905D02*
X015858Y031905D01*
X015699Y032063D02*
X014129Y032063D01*
X014257Y032222D02*
X015541Y032222D01*
X016367Y030795D02*
X014601Y030795D01*
X013598Y032063D02*
X013129Y032063D01*
X013257Y032222D02*
X013469Y032222D01*
X010863Y030478D02*
X010863Y030478D01*
X010863Y030320D02*
X010863Y030320D01*
X010483Y033173D02*
X010243Y033173D01*
X010069Y033331D02*
X010658Y033331D01*
X005370Y031905D02*
X005143Y031905D01*
X005143Y032063D02*
X005200Y032063D01*
X014710Y026040D02*
X018689Y026040D01*
X017546Y024772D02*
X021023Y024772D01*
X021023Y024614D02*
X017705Y024614D01*
X017863Y024455D02*
X021023Y024455D01*
X021023Y024297D02*
X018022Y024297D01*
X018180Y024138D02*
X021023Y024138D01*
X021023Y023980D02*
X018339Y023980D01*
X018497Y023821D02*
X020923Y023821D01*
X020923Y023663D02*
X018656Y023663D01*
X018814Y023504D02*
X020923Y023504D01*
X026599Y027625D02*
X028093Y027625D01*
X028093Y027467D02*
X026758Y027467D01*
X026916Y027308D02*
X028093Y027308D01*
X028093Y027150D02*
X027075Y027150D01*
X027233Y026991D02*
X028093Y026991D01*
X028093Y026833D02*
X027392Y026833D01*
X027550Y026674D02*
X028093Y026674D01*
X028093Y026516D02*
X027709Y026516D01*
X027867Y026357D02*
X028093Y026357D01*
X028093Y026199D02*
X028026Y026199D01*
X029843Y025723D02*
X029916Y025723D01*
X030343Y025723D02*
X030383Y025723D01*
X030383Y025882D02*
X030343Y025882D01*
X030343Y026040D02*
X030383Y026040D01*
X029856Y024614D02*
X029843Y024614D01*
X028093Y027784D02*
X027015Y027784D01*
X027144Y027942D02*
X028093Y027942D01*
X028093Y028101D02*
X027197Y028101D01*
X027203Y028210D02*
X027203Y028220D01*
X027191Y028299D01*
X027166Y028376D01*
X027129Y028447D01*
X027082Y028512D01*
X027025Y028569D01*
X026961Y028616D01*
X026889Y028653D01*
X026813Y028677D01*
X026733Y028690D01*
X026393Y028690D01*
X026393Y028210D01*
X027203Y028210D01*
X027197Y028259D02*
X028093Y028259D01*
X028093Y028418D02*
X027145Y028418D01*
X027016Y028576D02*
X028093Y028576D01*
X026393Y028576D02*
X026333Y028576D01*
X026333Y028418D02*
X026393Y028418D01*
X026393Y028259D02*
X026333Y028259D01*
X026363Y030185D02*
X026158Y030185D01*
X025868Y030475D01*
X025868Y030680D01*
X026363Y030680D01*
X026363Y030680D01*
X025868Y030680D01*
X025868Y030885D01*
X026158Y031175D01*
X026363Y031175D01*
X026363Y030680D01*
X026363Y030680D01*
X026363Y030185D01*
X026568Y030185D01*
X026858Y030475D01*
X026858Y030680D01*
X026858Y030885D01*
X026568Y031175D01*
X026363Y031175D01*
X026363Y030680D01*
X026363Y030680D01*
X026363Y030185D01*
X026363Y030320D02*
X026363Y030320D01*
X026363Y030478D02*
X026363Y030478D01*
X026363Y030637D02*
X026363Y030637D01*
X026363Y030680D02*
X026363Y030680D01*
X026858Y030680D01*
X026363Y030680D01*
X026363Y030795D02*
X026363Y030795D01*
X026363Y030954D02*
X026363Y030954D01*
X026363Y031112D02*
X026363Y031112D01*
X026095Y031112D02*
X025614Y031112D01*
X025786Y030954D02*
X025937Y030954D01*
X025868Y030795D02*
X025851Y030795D01*
X025858Y030637D02*
X025868Y030637D01*
X025868Y030478D02*
X025815Y030478D01*
X025703Y030320D02*
X026024Y030320D01*
X026703Y030320D02*
X028093Y030320D01*
X028093Y030478D02*
X026858Y030478D01*
X026858Y030637D02*
X028093Y030637D01*
X027868Y030795D02*
X026858Y030795D01*
X026790Y030954D02*
X027868Y030954D01*
X027868Y031112D02*
X026631Y031112D01*
X028169Y032856D02*
X036659Y032856D01*
X036290Y031429D02*
X036223Y031268D01*
X036223Y031112D02*
X034103Y031112D01*
X034046Y030954D02*
X036281Y030954D01*
X036443Y030795D02*
X033884Y030795D01*
X033987Y030478D02*
X036339Y030478D01*
X036245Y030320D02*
X034082Y030320D01*
X034103Y030161D02*
X036223Y030161D01*
X036260Y030003D02*
X034066Y030003D01*
X033950Y029844D02*
X036377Y029844D01*
X036388Y029527D02*
X033938Y029527D01*
X034061Y029369D02*
X036265Y029369D01*
X036223Y029210D02*
X034103Y029210D01*
X034086Y029052D02*
X036240Y029052D01*
X036328Y028893D02*
X033999Y028893D01*
X033388Y029527D02*
X033138Y029527D01*
X033150Y029844D02*
X033377Y029844D01*
X036987Y030478D02*
X041083Y030478D01*
X041083Y030320D02*
X037082Y030320D01*
X037103Y030161D02*
X041083Y030161D01*
X041083Y030003D02*
X037066Y030003D01*
X040856Y031905D02*
X041083Y031905D01*
X041083Y032063D02*
X041026Y032063D01*
X035616Y024614D02*
X035130Y024614D01*
X035068Y024675D02*
X034863Y024675D01*
X034863Y024180D01*
X034863Y024180D01*
X034863Y024180D01*
X034863Y023685D01*
X035068Y023685D01*
X035358Y023975D01*
X035358Y024180D01*
X035358Y024385D01*
X035068Y024675D01*
X034863Y024614D02*
X034863Y024614D01*
X034863Y024455D02*
X034863Y024455D01*
X034863Y024297D02*
X034863Y024297D01*
X034863Y024180D02*
X035358Y024180D01*
X034863Y024180D01*
X034863Y024180D01*
X034863Y024138D02*
X034863Y024138D01*
X034863Y023980D02*
X034863Y023980D01*
X034863Y023821D02*
X034863Y023821D01*
X035204Y023821D02*
X035522Y023821D01*
X035410Y023980D02*
X035358Y023980D01*
X035358Y024138D02*
X035368Y024138D01*
X035358Y024297D02*
X035376Y024297D01*
X035441Y024455D02*
X035288Y024455D01*
X034597Y024614D02*
X034061Y024614D01*
X034219Y024455D02*
X034438Y024455D01*
X029881Y028735D02*
X029843Y028735D01*
X037671Y013994D02*
X040055Y013994D01*
X039923Y013836D02*
X037803Y013836D01*
X037803Y013677D02*
X039923Y013677D01*
X039923Y013519D02*
X037803Y013519D01*
X037665Y013360D02*
X040061Y013360D01*
X040133Y013202D02*
X037593Y013202D01*
X037593Y013043D02*
X040133Y013043D01*
X040133Y012885D02*
X037593Y012885D01*
X037593Y012726D02*
X040084Y012726D01*
X039272Y012568D02*
X039088Y012568D01*
X038638Y012568D02*
X037593Y012568D01*
X037593Y012409D02*
X038480Y012409D01*
X038423Y012251D02*
X037593Y012251D01*
X037593Y012092D02*
X038423Y012092D01*
X038477Y011934D02*
X037593Y011934D01*
X037593Y011775D02*
X038636Y011775D01*
X039090Y011775D02*
X039289Y011775D01*
X039363Y011617D02*
X038049Y011617D01*
X038207Y011458D02*
X039162Y011458D01*
X039240Y010824D02*
X038129Y010824D01*
X037597Y010824D02*
X036833Y010824D01*
X036803Y010666D02*
X040543Y010666D01*
X040543Y010824D02*
X040486Y010824D01*
X040515Y010507D02*
X040543Y010507D01*
X040534Y009873D02*
X040543Y009873D01*
X040543Y009715D02*
X040284Y009715D01*
X040543Y009556D02*
X037412Y009556D01*
X037254Y009715D02*
X039443Y009715D01*
X039193Y009873D02*
X039168Y009873D01*
X038863Y009750D02*
X038863Y010190D01*
X038863Y010190D01*
X038863Y010190D01*
X038863Y010630D01*
X038681Y010630D01*
X038423Y010372D01*
X038558Y010507D02*
X036803Y010507D01*
X036991Y010983D02*
X037438Y010983D01*
X037423Y011141D02*
X037150Y011141D01*
X037308Y011300D02*
X037423Y011300D01*
X037467Y011458D02*
X037519Y011458D01*
X037593Y011617D02*
X037677Y011617D01*
X037133Y011775D02*
X036478Y011120D01*
X036181Y011120D01*
X035923Y010862D01*
X035923Y010498D01*
X036133Y010288D01*
X036133Y010235D01*
X035593Y010775D01*
X035593Y011288D01*
X035803Y011498D01*
X035803Y011795D01*
X035803Y011617D02*
X036974Y011617D01*
X036816Y011458D02*
X035763Y011458D01*
X035605Y011300D02*
X036657Y011300D01*
X036499Y011141D02*
X035593Y011141D01*
X035593Y010983D02*
X036043Y010983D01*
X035923Y010824D02*
X035593Y010824D01*
X035703Y010666D02*
X035923Y010666D01*
X035923Y010507D02*
X035861Y010507D01*
X036020Y010349D02*
X036072Y010349D01*
X036703Y009398D02*
X036920Y009398D01*
X037571Y009398D02*
X040543Y009398D01*
X040543Y009239D02*
X037729Y009239D01*
X039085Y009081D02*
X040543Y009081D01*
X040543Y008922D02*
X039243Y008922D01*
X039303Y008764D02*
X040543Y008764D01*
X040543Y008605D02*
X039303Y008605D01*
X039252Y008447D02*
X040543Y008447D01*
X039883Y009715D02*
X039843Y009715D01*
X039843Y009873D02*
X039883Y009873D01*
X039883Y010032D02*
X039843Y010032D01*
X039843Y010200D02*
X039843Y010660D01*
X039525Y010660D01*
X039451Y010648D01*
X039379Y010625D01*
X039312Y010591D01*
X039251Y010546D01*
X039197Y010493D01*
X039191Y010484D01*
X039045Y010630D01*
X038863Y010630D01*
X038863Y010190D01*
X038863Y010190D01*
X038863Y010190D01*
X039303Y010190D01*
X039211Y010507D02*
X039168Y010507D01*
X038863Y010507D02*
X038863Y010507D01*
X038863Y010349D02*
X038863Y010349D01*
X038863Y010032D02*
X038863Y010032D01*
X039843Y010349D02*
X039883Y010349D01*
X039883Y010507D02*
X039843Y010507D01*
X040364Y011617D02*
X040543Y011617D01*
X040543Y011775D02*
X040437Y011775D01*
X040486Y005435D02*
X037730Y005435D01*
X037763Y005277D02*
X040328Y005277D01*
X040169Y005118D02*
X037183Y005118D01*
X037183Y004960D02*
X037103Y004960D01*
X037103Y004801D02*
X037183Y004801D01*
X037756Y004801D02*
X038970Y004801D01*
X038970Y004643D02*
X036541Y004643D01*
X036530Y004801D02*
X036124Y004801D01*
X037763Y004960D02*
X038970Y004960D01*
X038970Y004484D02*
X037763Y004484D01*
X037763Y004326D02*
X038970Y004326D01*
X038970Y004167D02*
X037763Y004167D01*
X037763Y004009D02*
X038970Y004009D01*
X038408Y002107D02*
X038253Y002107D01*
X038249Y001948D02*
X038105Y001948D01*
X038091Y001790D02*
X037909Y001790D01*
X037909Y001631D02*
X037932Y001631D01*
X036919Y001473D02*
X036807Y001473D01*
X036390Y001790D02*
X036235Y001790D01*
X036235Y001757D02*
X036235Y002214D01*
X035973Y002214D01*
X035928Y002202D01*
X035887Y002178D01*
X035853Y002145D01*
X035829Y002104D01*
X035817Y002058D01*
X035817Y001757D01*
X036235Y001757D01*
X036235Y001948D02*
X036390Y001948D01*
X036390Y002107D02*
X036235Y002107D01*
X035831Y002107D02*
X035596Y002107D01*
X035698Y001948D02*
X035817Y001948D01*
X035817Y001790D02*
X035698Y001790D01*
X035698Y001473D02*
X035817Y001473D01*
X035241Y001790D02*
X035086Y001790D01*
X035086Y001948D02*
X035241Y001948D01*
X035241Y002107D02*
X035086Y002107D01*
X024067Y000997D02*
X023653Y000997D01*
X023788Y001156D02*
X023937Y001156D01*
X023883Y001314D02*
X023839Y001314D01*
X023843Y001473D02*
X023883Y001473D01*
X023883Y001631D02*
X023843Y001631D01*
X023843Y001790D02*
X023883Y001790D01*
X023883Y001948D02*
X023843Y001948D01*
X023827Y002107D02*
X023896Y002107D01*
X023891Y002265D02*
X023831Y002265D01*
X023843Y002424D02*
X023883Y002424D01*
X023883Y002582D02*
X023843Y002582D01*
X023843Y002741D02*
X023883Y002741D01*
X023883Y002899D02*
X023843Y002899D01*
X023837Y003058D02*
X023883Y003058D01*
X023941Y003216D02*
X023782Y003216D01*
X022883Y001631D02*
X022843Y001631D01*
X022843Y001473D02*
X022883Y001473D01*
X022888Y001314D02*
X022843Y001314D01*
X022790Y001156D02*
X022939Y001156D01*
X023074Y000997D02*
X022659Y000997D01*
X007883Y013202D02*
X007867Y013202D01*
X007994Y013360D02*
X007708Y013360D01*
X007693Y013519D02*
X008153Y013519D01*
X008147Y013677D02*
X007693Y013677D01*
X007693Y013836D02*
X007989Y013836D01*
X007883Y013994D02*
X007624Y013994D01*
X007466Y014153D02*
X007883Y014153D01*
X007883Y014311D02*
X007331Y014311D01*
X005344Y014787D02*
X005143Y014787D01*
X005143Y014945D02*
X005324Y014945D01*
X005258Y015104D02*
X005143Y015104D01*
X005143Y015262D02*
X005254Y015262D01*
X005291Y015421D02*
X005143Y015421D01*
X005143Y015579D02*
X005382Y015579D01*
X005186Y014628D02*
X005143Y014628D01*
X011564Y024138D02*
X011580Y024138D01*
D38*
X011863Y024180D02*
X011363Y024680D01*
X011863Y024180D02*
X017513Y024180D01*
X018663Y023030D01*
X021663Y023030D01*
X023363Y021330D01*
X023363Y018280D01*
X022513Y017480D02*
X024513Y015480D01*
X024513Y013180D01*
X025063Y012630D01*
X025763Y012630D01*
X026863Y011530D01*
X026863Y009180D01*
X026863Y008180D01*
X026613Y008180D01*
X025113Y006680D01*
X024863Y006680D01*
X025363Y005930D02*
X026613Y004680D01*
X026863Y004680D01*
X027313Y004530D02*
X027013Y004230D01*
X023713Y004230D01*
X023663Y004280D01*
X023463Y004280D01*
X023863Y004680D02*
X023863Y005430D01*
X020563Y008730D01*
X019863Y009180D02*
X019863Y008180D01*
X020863Y007180D01*
X020863Y006680D01*
X021363Y005930D02*
X022613Y004680D01*
X022863Y004680D01*
X021913Y003930D02*
X028763Y003930D01*
X029863Y002830D01*
X029863Y002798D01*
X030713Y002630D02*
X030863Y002780D01*
X030863Y002798D01*
X030713Y002630D02*
X030713Y001480D01*
X030698Y001480D01*
X032013Y001480D02*
X032013Y002630D01*
X031863Y002780D01*
X031863Y002798D01*
X032863Y003798D02*
X032863Y003830D01*
X028963Y007730D01*
X027313Y004530D02*
X027313Y016680D01*
X027063Y017180D02*
X036363Y017180D01*
X037863Y017180D01*
X037913Y017180D01*
X038863Y018130D01*
X038863Y018170D01*
X038863Y018180D01*
X039863Y018180D01*
X039863Y017180D01*
X039863Y016180D02*
X038863Y016180D01*
X038863Y016190D01*
X037363Y013680D02*
X037363Y011680D01*
X036363Y010680D01*
X036363Y010280D01*
X037863Y008780D01*
X037863Y008680D01*
X036363Y009680D02*
X035363Y010680D01*
X035363Y011680D01*
X035863Y012180D01*
X035863Y014580D01*
X038863Y012180D02*
X038863Y012170D01*
X038863Y012180D02*
X039863Y012180D01*
X040363Y012680D01*
X040363Y013680D01*
X039863Y011180D02*
X037863Y011180D01*
X035529Y004180D02*
X035513Y004180D01*
X035513Y003130D01*
X035163Y002780D01*
X035163Y002731D01*
X032029Y001480D02*
X032013Y001480D01*
X025363Y001680D02*
X025363Y002680D01*
X024363Y002680D02*
X024363Y001680D01*
X021913Y003930D02*
X018663Y007180D01*
X018363Y007180D01*
X018363Y006180D02*
X019163Y006180D01*
X020213Y005130D01*
X021513Y005030D02*
X019413Y007130D01*
X019413Y010030D01*
X020963Y011580D01*
X020713Y012180D02*
X018663Y014230D01*
X017963Y014230D01*
X017663Y014530D01*
X017663Y015280D01*
X018363Y015530D02*
X018363Y015680D01*
X018363Y015530D02*
X019488Y014405D01*
X020813Y015730D01*
X021763Y015730D01*
X022063Y016030D01*
X022063Y016330D01*
X021763Y016630D01*
X021063Y016630D01*
X019563Y018130D01*
X017963Y018130D01*
X017563Y017730D01*
X015213Y017730D01*
X014763Y018180D01*
X014163Y018180D01*
X011663Y020680D01*
X011363Y020680D01*
X011163Y021180D02*
X009813Y019830D01*
X009813Y016430D01*
X008813Y015730D02*
X008763Y015680D01*
X008813Y015730D02*
X008813Y021330D01*
X011163Y023680D01*
X011363Y023680D01*
X011363Y022680D02*
X013663Y022680D01*
X014163Y023180D01*
X014913Y023180D01*
X015213Y023480D01*
X015513Y023480D01*
X017663Y021330D01*
X017663Y019280D01*
X017813Y017680D02*
X017363Y017230D01*
X016613Y017230D01*
X014563Y015180D01*
X014163Y015180D01*
X013663Y014680D01*
X011363Y014680D01*
X010663Y014180D02*
X010663Y011130D01*
X010113Y010580D01*
X009463Y010230D02*
X009363Y010330D01*
X009363Y010530D01*
X008563Y011330D01*
X008313Y011330D01*
X007913Y011730D01*
X007913Y012480D01*
X006963Y013430D01*
X006963Y013580D01*
X006922Y013589D01*
X007163Y014130D02*
X006663Y014130D01*
X006238Y013705D01*
X006363Y013580D01*
X006363Y012080D01*
X008013Y010430D01*
X008363Y010430D01*
X008813Y009980D01*
X008813Y008030D01*
X012663Y004180D01*
X013863Y004180D01*
X013363Y005680D02*
X012863Y005680D01*
X013363Y005680D02*
X013863Y006180D01*
X013863Y007180D02*
X012863Y007180D01*
X012863Y008180D02*
X013863Y008180D01*
X014263Y008730D02*
X011813Y008730D01*
X010863Y009680D01*
X010963Y010230D02*
X011513Y009680D01*
X011863Y009680D01*
X012863Y009680D02*
X013363Y009180D01*
X013863Y009180D01*
X014363Y009530D02*
X014163Y009730D01*
X013413Y009730D01*
X012913Y010230D01*
X012713Y010230D01*
X012413Y010530D01*
X012413Y010830D01*
X014263Y012680D01*
X014363Y012680D01*
X014163Y013180D02*
X013863Y013480D01*
X013863Y014180D01*
X014363Y014680D01*
X013863Y015180D02*
X014363Y015680D01*
X013863Y015180D02*
X009213Y015180D01*
X008763Y014730D01*
X008213Y014730D01*
X007713Y015230D01*
X006713Y015230D01*
X006163Y014680D01*
X005563Y014680D01*
X005213Y014330D01*
X005213Y007430D01*
X008813Y003830D01*
X008813Y001280D01*
X009163Y000930D01*
X013563Y000930D01*
X015063Y002430D01*
X016513Y002430D01*
X017263Y001680D01*
X018363Y001680D01*
X019363Y002680D02*
X019363Y003280D01*
X017613Y005030D01*
X017613Y008780D01*
X018313Y009480D01*
X018313Y011830D01*
X016963Y013180D01*
X014163Y013180D01*
X014363Y013680D02*
X014663Y013680D01*
X017163Y016180D01*
X021363Y016180D01*
X022263Y017130D02*
X022263Y011530D01*
X021363Y010630D01*
X021013Y010480D02*
X021263Y010230D01*
X022513Y010230D01*
X022913Y010630D01*
X022913Y010830D01*
X024263Y012180D01*
X025363Y012180D01*
X022463Y010780D02*
X022363Y010680D01*
X022463Y010780D02*
X022463Y017230D01*
X021513Y018180D01*
X021363Y018180D01*
X021063Y017630D02*
X021763Y017630D01*
X022263Y017130D01*
X022513Y017480D02*
X022513Y019880D01*
X021363Y021030D01*
X021363Y021180D01*
X021363Y020180D02*
X021363Y020030D01*
X020663Y019330D01*
X020663Y018030D01*
X021063Y017630D01*
X019913Y018780D02*
X019913Y021480D01*
X017713Y023680D01*
X014363Y023680D01*
X014363Y022680D02*
X013963Y022680D01*
X012463Y021180D01*
X011163Y021180D01*
X014363Y018780D02*
X014363Y018680D01*
X014363Y018780D02*
X015363Y019780D01*
X015363Y020680D01*
X018763Y023230D02*
X017313Y024680D01*
X014363Y024680D01*
X014363Y025680D02*
X018813Y025680D01*
X018763Y023230D02*
X021513Y023230D01*
X021813Y023530D01*
X021813Y023730D01*
X022663Y024580D01*
X024013Y024580D01*
X025363Y022180D02*
X025363Y021180D01*
X026963Y021180D01*
X026863Y021080D01*
X026863Y019180D01*
X027063Y017180D02*
X026063Y016180D01*
X025363Y016180D01*
X025363Y015180D01*
X022063Y012330D02*
X022063Y011830D01*
X021013Y010780D01*
X021013Y010480D01*
X020713Y012180D02*
X021363Y012180D01*
X021063Y012630D02*
X021763Y012630D01*
X022063Y012330D01*
X021063Y012630D02*
X020663Y013030D01*
X020663Y013230D01*
X019488Y014405D01*
X015863Y012680D02*
X015863Y012330D01*
X013863Y010330D01*
X013863Y010180D01*
X013363Y010680D02*
X013863Y011180D01*
X013363Y010680D02*
X012863Y010680D01*
X014363Y009530D02*
X015863Y009530D01*
X016013Y010030D02*
X016163Y010030D01*
X016563Y009630D01*
X017263Y009630D01*
X017563Y009330D01*
X017563Y009030D01*
X017163Y008630D01*
X016463Y008630D01*
X016163Y008330D01*
X016163Y006880D01*
X016863Y006180D01*
X016863Y006030D01*
X016163Y005330D01*
X016163Y005030D01*
X016563Y004630D01*
X017263Y004630D01*
X017563Y004330D01*
X017563Y004030D01*
X016163Y002630D01*
X013313Y002630D01*
X012363Y001680D01*
X011363Y001680D02*
X011363Y002580D01*
X010563Y003380D01*
X010563Y004130D01*
X010388Y004455D02*
X010363Y004480D01*
X010363Y005580D01*
X008913Y007030D01*
X010413Y004480D02*
X010388Y004455D01*
X009363Y003430D01*
X009363Y001680D01*
X011063Y003680D02*
X011063Y004130D01*
X010713Y004480D01*
X010413Y004480D01*
X011663Y003680D02*
X016363Y003680D01*
X016863Y004180D01*
X021513Y004830D02*
X021513Y005030D01*
X016863Y009180D02*
X014713Y009180D01*
X014263Y008730D01*
X010963Y010230D02*
X009463Y010230D01*
X009363Y011420D02*
X009363Y011630D01*
X008413Y012580D01*
X008163Y012580D01*
X007463Y013280D01*
X007463Y013830D01*
X007163Y014130D01*
X006238Y013705D02*
X005813Y014130D01*
X005804Y014137D01*
X017813Y017680D02*
X018363Y017680D01*
X029613Y023930D02*
X030363Y023180D01*
X029613Y023930D02*
X029613Y030630D01*
X028563Y031680D01*
X028363Y031680D01*
X030363Y028180D02*
X030363Y027180D01*
X032863Y027780D02*
X033363Y027280D01*
X033363Y026180D01*
X032863Y027780D02*
X032863Y028180D01*
X032863Y030180D02*
X033663Y030180D01*
X036663Y028180D02*
X036663Y026180D01*
X036363Y026180D01*
X036663Y026180D02*
X037863Y026180D01*
D39*
X033563Y021630D02*
X033913Y021280D01*
X033913Y020980D01*
X036063Y018830D01*
X040413Y018830D01*
X040813Y018430D01*
X040813Y005380D01*
X039613Y004180D01*
X039583Y004180D01*
X039513Y004130D01*
X039513Y002830D01*
X037763Y001080D01*
X034763Y001080D01*
X034613Y001230D01*
X032713Y001230D01*
X032698Y001480D01*
X032763Y001530D01*
X032763Y002680D01*
X032813Y002730D01*
X032863Y002798D01*
X032863Y002830D01*
X034713Y004680D01*
X035863Y004680D01*
X036163Y004380D01*
X036163Y004230D01*
X036198Y004180D01*
X037143Y004180D01*
X032698Y001480D02*
X032663Y001480D01*
X032663Y001280D01*
X032363Y000980D01*
X030363Y000980D01*
X030063Y001280D01*
X030063Y001480D01*
X030029Y001480D01*
X029963Y001530D01*
X029863Y001630D01*
X026413Y001630D01*
X026363Y001680D01*
X026363Y002680D01*
X030913Y021630D02*
X033563Y021630D01*
X030913Y021630D02*
X029363Y023180D01*
X029363Y024880D01*
X028363Y025880D01*
X028363Y031080D01*
M02*
