%
M48
M72
T01C0.0240
T02C0.0320
T03C0.0360
T04C0.0400
T05C0.0440
T06C0.0900
T07C0.1250
T08C0.1300
%
T01
X8913Y7030
X10563Y4130
X15863Y9530
X16013Y10030
X20413Y10180
X21363Y10630
X20963Y11580
X20563Y8730
X24163Y7530
X25813Y9380
X28963Y7730
X23463Y4280
X21513Y4830
X20213Y5130
X10113Y10580
X10663Y14180
X10313Y15630
X9813Y16430
X8763Y15680
X17263Y21230
X18363Y22530
X15363Y23130
X18813Y25680
X24013Y24580
X22863Y21330
X19913Y18780
X17663Y19280
X17663Y15280
X22863Y18280
X23363Y18280
X27313Y16680
X27813Y20280
X35713Y16680
X29713Y12780
X36663Y2730
X37913Y2280
X23813Y31130
T02
X25363Y30680
X26363Y30680
X24363Y32680
X23363Y32680
X21363Y32680
X20363Y32680
X20863Y30180
X21863Y30180
X18363Y27180
X17363Y27180
X14363Y25680
X14363Y24680
X14363Y23680
X14363Y22680
X14363Y21680
X15363Y21680
X15363Y20680
X14363Y20680
X14363Y19680
X15363Y19180
X14363Y18680
X15363Y18180
X14363Y17680
X14363Y16680
X14363Y15680
X14363Y14680
X14363Y13680
X14363Y12680
X15863Y12680
X16863Y12680
X18363Y13680
X18363Y14680
X18363Y15680
X18363Y16680
X18363Y17680
X18363Y18680
X18363Y19680
X16863Y19680
X16863Y16680
X21363Y16180
X21363Y15180
X21363Y14180
X21363Y13180
X21363Y12180
X22363Y10680
X23363Y10680
X22863Y9180
X23863Y9180
X23863Y8180
X22863Y8180
X21863Y6680
X21363Y5930
X20863Y6680
X19863Y8180
X19863Y9180
X17863Y10180
X16863Y10180
X16863Y9180
X16863Y8180
X16863Y7180
X16863Y6180
X16863Y5180
X16863Y4180
X13863Y4180
X13863Y5180
X13863Y6180
X13863Y7180
X12863Y7180
X12863Y8180
X13863Y8180
X13863Y9180
X13863Y10180
X13863Y11180
X12863Y10680
X12863Y9680
X11363Y12680
X11363Y13680
X11363Y14680
X11363Y15680
X11363Y16680
X11363Y17680
X11363Y18680
X10363Y18680
X10363Y19680
X11363Y19680
X11363Y20680
X11363Y21680
X11363Y22680
X11363Y23680
X11363Y24680
X11363Y25680
X10863Y28180
X10863Y30180
X11363Y31180
X10863Y32680
X9863Y32680
X12863Y32680
X13863Y32680
X14363Y31180
X13363Y29680
X13363Y28680
X21363Y23680
X22363Y23680
X21363Y22180
X21363Y21180
X21363Y20180
X21363Y19180
X21363Y18180
X21363Y17180
X25363Y17180
X25363Y16180
X25363Y15180
X25363Y14180
X25363Y13180
X25363Y12180
X26863Y9180
X26863Y8180
X25863Y6680
X25363Y5930
X24863Y6680
X23863Y4680
X22863Y4680
X19863Y4680
X26863Y4680
X35363Y8680
X36363Y8680
X36363Y9680
X36363Y10680
X35363Y11680
X37863Y11180
X38863Y10190
X38863Y8680
X37863Y8680
X38863Y12170
X37363Y13680
X36363Y13680
X35863Y14580
X35863Y15380
X36363Y17180
X36363Y18180
X37863Y17180
X38863Y16190
X38863Y18170
X38863Y19680
X35863Y19680
X34363Y21180
X33363Y21180
X34863Y24180
X35863Y24180
X36363Y26180
X37863Y27680
X36663Y28180
X37863Y28680
X36663Y29180
X36663Y30180
X36663Y31180
X33663Y31180
X33663Y30180
X32863Y30180
X32863Y29180
X33663Y29180
X33663Y28180
X32863Y28180
X32863Y27180
X33363Y26180
X27763Y21180
X26963Y21180
X25363Y21180
X25363Y20180
X25363Y19180
X25363Y18180
X26863Y19180
X26863Y16180
X25363Y22180
X17863Y11180
X16863Y11180
X12863Y5680
X12863Y4680
X40363Y13680
T03
X37863Y25180
X37863Y26180
X18363Y7180
X18363Y6180
X18363Y5180
X16363Y1680
X15363Y1680
X11863Y9680
X10863Y9680
X10863Y10680
X11863Y10680
X7863Y30680
X7863Y31680
X7863Y32680
T04
X16363Y28180
X17363Y28180
X18363Y28180
X9363Y21200
X8363Y20660
X9363Y20110
X8363Y19570
X9363Y19030
X8363Y18480
X9363Y17940
X8363Y17400
X9363Y16850
X8363Y16310
X9363Y15770
X8363Y15220
X9363Y14680
X8363Y14140
X9363Y13590
X8363Y13050
X9363Y12510
X8363Y11960
X9363Y11420
X8363Y10880
X9363Y10330
X8363Y9790
X9363Y9250
X8363Y8700
X9363Y8160
X6922Y12499
X5804Y13046
X5804Y14137
X5804Y15223
X6922Y14680
X6922Y13589
X6922Y15771
X6922Y16861
X5804Y16314
X18363Y2680
X19363Y2680
X19363Y1680
X18363Y1680
X20363Y1680
X20363Y2680
X22363Y2680
X22363Y1680
X23363Y1680
X24363Y1680
X25363Y1680
X25363Y2680
X24363Y2680
X23363Y2680
X26363Y2680
X26363Y1680
X29863Y2798
X30863Y2798
X30863Y3798
X29863Y3798
X31863Y3798
X32863Y3798
X32863Y2798
X31863Y2798
X39863Y10180
X39863Y11180
X39863Y12180
X39863Y16180
X39863Y17180
X39863Y18180
X30363Y23180
X30363Y24180
X30363Y25180
X30363Y26180
X30363Y27180
X30363Y28180
X30363Y29180
X30363Y30180
X30363Y31180
X30363Y32180
X13363Y1680
X12363Y1680
X11363Y1680
X10363Y1680
X9363Y1680
X8363Y1680
T05
X21363Y26180
X21363Y28180
X26363Y28180
X26363Y26180
T06
X7863Y26290
X6682Y28180
T07
X5863Y1680
X37263Y23180
X37263Y32180
X40363Y32680
X9084Y28180
X5863Y32680
X40363Y1680
T08
X8863Y5420
X6363Y9759
X6363Y19601
X8863Y23940
M30
